STARTFONT 2.1
COMMENT
COMMENT Converted from OpenType font "Arial_regular.ttf" by "otf2bdf 3.0".
COMMENT
FONT -FreeType-Arial-Medium-R-Normal--50-360-100-100-P-239-ISO10646-1
SIZE 36 100 100
FONTBOUNDINGBOX 90 68 -33 -16
STARTPROPERTIES 19
FOUNDRY "FreeType"
FAMILY_NAME "Arial"
WEIGHT_NAME "Medium"
SLANT "R"
SETWIDTH_NAME "Normal"
ADD_STYLE_NAME ""
PIXEL_SIZE 50
POINT_SIZE 360
RESOLUTION_X 100
RESOLUTION_Y 100
SPACING "P"
AVERAGE_WIDTH 239
CHARSET_REGISTRY "ISO10646"
CHARSET_ENCODING "1"
FONT_ASCENT 45
FONT_DESCENT 10
COPYRIGHT "Typeface © The Monotype Corporation plc. Data © The Monotype Corporation plc/Type Solutions Inc. 1990-1992. All Rights Reserved"
_OTF_FONTFILE "Arial_regular.ttf"
_OTF_PSNAME "ArialMT"
ENDPROPERTIES
CHARS 1186
STARTCHAR 0020
ENCODING 32
SWIDTH 260 0
DWIDTH 13 0
BBX 0 0 0 0
BITMAP
ENDCHAR
STARTCHAR 0021
ENCODING 33
SWIDTH 260 0
DWIDTH 13 0
BBX 6 36 4 0
BITMAP
FC
FC
FC
FC
FC
FC
FC
FC
FC
FC
FC
7C
78
78
78
78
78
78
78
78
78
78
78
78
78
38
38
00
00
00
00
FC
FC
FC
FC
FC
ENDCHAR
STARTCHAR 0022
ENCODING 34
SWIDTH 340 0
DWIDTH 17 0
BBX 13 13 2 23
BITMAP
F8F8
F8F8
F8F8
F8F8
F8F8
F8F8
F8F8
7878
7878
7878
7878
7070
7030
ENDCHAR
STARTCHAR 0023
ENCODING 35
SWIDTH 540 0
DWIDTH 27 0
BBX 26 37 1 -1
BITMAP
00780F00
00700F00
00F00F00
00F00E00
00F01E00
00F01E00
00E01E00
01E01C00
01E01C00
01E03C00
FFFFFFC0
FFFFFFC0
FFFFFFC0
FFFFFFC0
03C07800
03807800
03807800
07807000
07807000
0780F000
0700F000
0700F000
0F00E000
FFFFFFC0
FFFFFFC0
FFFFFFC0
0E01E000
1E01C000
1E03C000
1E03C000
1C03C000
1C03C000
3C038000
3C078000
3C078000
38078000
38078000
ENDCHAR
STARTCHAR 0024
ENCODING 36
SWIDTH 540 0
DWIDTH 27 0
BBX 23 44 2 -5
BITMAP
003800
003800
00FF00
07FFC0
0FFFE0
1FFFF0
3F39F8
7E38FC
7C387C
78383C
78383E
783800
783800
783800
7C3800
7C3800
3E3800
3FF800
1FF800
0FFF80
03FFE0
00FFF0
003FF8
0039FC
00387E
00383E
00383E
00381E
10381E
F0381E
F8381E
F8381E
F8383E
7C383E
7E387C
3FB9F8
1FFFF8
0FFFE0
03FFC0
007E00
003800
003800
003800
003800
ENDCHAR
STARTCHAR 0025
ENCODING 37
SWIDTH 880 0
DWIDTH 44 0
BBX 38 37 3 -1
BITMAP
0FE0001C00
3FF8003C00
3FF8003800
783C007800
781C007000
F01E00F000
F01E00E000
F01E01E000
F01E01C000
F01E03C000
F01E078000
F01E078000
F01E0F0000
701E0F0000
783C1E0000
3FF81E0000
3FF83C0000
0FE0380000
0100780700
0000701FE0
0000F07FF0
0000E07DF8
0001E0F078
0001C0F03C
0003C1E03C
000381E03C
000781E03C
000701E01C
000F01E01C
000E01E03C
001E01E03C
001C01E03C
003C00F03C
003800F878
0078007FF0
0070003FE0
00F0001FC0
ENDCHAR
STARTCHAR 0026
ENCODING 38
SWIDTH 660 0
DWIDTH 33 0
BBX 30 37 2 -1
BITMAP
007FC000
00FFE000
01FFF000
03F1F800
07C0F800
07C07C00
07807C00
07807C00
07807C00
07C07800
07E0F800
03E1F000
03F3F000
01FFE000
00FF8000
007F0000
01FF0000
07FF0000
0FFF8000
1F8FC180
3F07E1F0
7E07E1E0
7C03F3E0
7801FBE0
F800FFC0
F8007FC0
F8003F80
F8003F80
F8001F80
7C003FC0
7E007FE0
3F00FFF0
3FC7FBF8
1FFFF1FC
0FFFE0F8
03FF8070
00780010
ENDCHAR
STARTCHAR 0027
ENCODING 39
SWIDTH 180 0
DWIDTH 9 0
BBX 5 13 2 23
BITMAP
F8
F8
F8
F8
F8
F8
F8
F8
78
78
70
70
70
ENDCHAR
STARTCHAR 0028
ENCODING 40
SWIDTH 320 0
DWIDTH 16 0
BBX 12 47 3 -11
BITMAP
00E0
01E0
01C0
03C0
0780
0780
0F00
0F00
1E00
1E00
3E00
3C00
3C00
7C00
7800
7800
7800
F800
F800
F800
F800
F800
F800
F800
F800
F800
F800
F800
F800
7800
7800
7800
7C00
3C00
3C00
3E00
1E00
1E00
0F00
0F00
0780
0780
03C0
01C0
01E0
00E0
0070
ENDCHAR
STARTCHAR 0029
ENCODING 41
SWIDTH 320 0
DWIDTH 16 0
BBX 12 47 3 -11
BITMAP
7000
7800
3800
3C00
1C00
1E00
0F00
0F00
0780
0780
0780
03C0
03C0
03C0
03E0
01E0
01E0
01E0
01F0
01F0
01F0
01F0
01F0
01F0
01F0
01F0
01F0
01F0
01E0
01E0
01E0
03E0
03C0
03C0
03C0
0780
0780
0780
0F00
0F00
1E00
1E00
3C00
3800
7800
7000
E000
ENDCHAR
STARTCHAR 002A
ENCODING 42
SWIDTH 380 0
DWIDTH 19 0
BBX 16 15 2 21
BITMAP
0380
0380
0380
0382
F39E
FFFE
FFFF
3FF8
07C0
0FE0
1EF0
3C78
3C7C
1838
0800
ENDCHAR
STARTCHAR 002B
ENCODING 43
SWIDTH 580 0
DWIDTH 29 0
BBX 23 23 3 6
BITMAP
003C00
003C00
003C00
003C00
003C00
003C00
003C00
003C00
003C00
FFFFFE
FFFFFE
FFFFFE
FFFFFE
003C00
003C00
003C00
003C00
003C00
003C00
003C00
003C00
003C00
003C00
ENDCHAR
STARTCHAR 002C
ENCODING 44
SWIDTH 260 0
DWIDTH 13 0
BBX 5 12 4 -7
BITMAP
F8
F8
F8
F8
F8
18
18
18
38
70
F0
40
ENDCHAR
STARTCHAR 002D
ENCODING 45
SWIDTH 320 0
DWIDTH 16 0
BBX 13 4 2 11
BITMAP
FFF8
FFF8
FFF8
FFF8
ENDCHAR
STARTCHAR 002E
ENCODING 46
SWIDTH 260 0
DWIDTH 13 0
BBX 5 5 5 0
BITMAP
F8
F8
F8
F8
F8
ENDCHAR
STARTCHAR 002F
ENCODING 47
SWIDTH 260 0
DWIDTH 13 0
BBX 14 37 0 -1
BITMAP
003C
0038
0038
0078
0078
0070
00F0
00F0
00E0
00E0
01E0
01E0
01C0
03C0
03C0
0380
0380
0780
0780
0700
0700
0F00
0F00
0E00
1E00
1E00
1C00
1C00
3C00
3C00
3800
7800
7800
7000
7000
F000
F000
ENDCHAR
STARTCHAR 0030
ENCODING 48
SWIDTH 540 0
DWIDTH 27 0
BBX 23 37 2 -1
BITMAP
007E00
03FF80
07FFE0
0FFFF0
1F81F0
1F00F8
3E0078
3C007C
7C003C
78003E
78003E
78003E
F8001E
F8001E
F8001E
F8001E
F8001E
F8001E
F8001E
F8001E
F8001E
F8001E
F8001E
F8001E
F8001E
78003E
78003E
7C003C
7C003C
3C007C
3E0078
1F00F8
1F83F0
0FFFE0
07FFC0
01FF80
001C00
ENDCHAR
STARTCHAR 0031
ENCODING 49
SWIDTH 540 0
DWIDTH 27 0
BBX 14 36 5 0
BITMAP
001C
003C
007C
00FC
01FC
03FC
07FC
1FFC
3FFC
FE7C
FC7C
F07C
C07C
007C
007C
007C
007C
007C
007C
007C
007C
007C
007C
007C
007C
007C
007C
007C
007C
007C
007C
007C
007C
007C
007C
007C
ENDCHAR
STARTCHAR 0032
ENCODING 50
SWIDTH 540 0
DWIDTH 27 0
BBX 24 36 1 0
BITMAP
007F80
01FFE0
07FFF8
0FFFFC
1F80FC
1F003E
3E001F
3C001F
3C001F
7C000F
3C000F
00001F
00001F
00001F
00003E
00007E
0000FC
0000F8
0001F0
0007F0
000FE0
001F80
003F00
007E00
00FC00
01F800
07F000
07C000
0F8000
1F0000
3F0000
3E0000
7FFFFF
7FFFFF
7FFFFF
FFFFFF
ENDCHAR
STARTCHAR 0033
ENCODING 51
SWIDTH 540 0
DWIDTH 27 0
BBX 24 37 2 -1
BITMAP
00FE00
03FF80
0FFFE0
1FFFF0
3F01F0
3E00F8
7C0078
7C007C
78007C
78007C
00007C
00007C
0000F8
0001F8
0003F0
007FE0
007F80
007FE0
007FF8
0000FC
00007C
00003E
00003E
00001E
00001E
00001F
F8001E
F8001E
F8003E
7C003E
7C007C
3E00FC
3F83F8
1FFFF0
0FFFE0
03FF80
003800
ENDCHAR
STARTCHAR 0034
ENCODING 52
SWIDTH 540 0
DWIDTH 27 0
BBX 24 36 1 0
BITMAP
0000F0
0001F0
0003F0
0003F0
0007F0
000FF0
000FF0
001FF0
003DF0
007DF0
0079F0
00F1F0
01F1F0
01E1F0
03C1F0
0781F0
0F81F0
0F01F0
1E01F0
3E01F0
3C01F0
7801F0
F801F0
FFFFFF
FFFFFF
FFFFFF
FFFFFF
0001F0
0001F0
0001F0
0001F0
0001F0
0001F0
0001F0
0001F0
0001F0
ENDCHAR
STARTCHAR 0035
ENCODING 53
SWIDTH 540 0
DWIDTH 27 0
BBX 24 36 2 -1
BITMAP
0FFFFC
0FFFFC
0FFFFC
0FFFFC
1F0000
1F0000
1E0000
1E0000
1E0000
3E0000
3E0000
3C3E00
3CFFC0
3FFFE0
3FFFF8
7F83F8
7E00FC
7C007E
08003E
00003E
00001F
00001F
00001F
00001F
00001F
38001F
F8001E
F8003E
7C003E
7C007C
3E00FC
3F83F8
1FFFF0
0FFFE0
03FF80
007C00
ENDCHAR
STARTCHAR 0036
ENCODING 54
SWIDTH 540 0
DWIDTH 27 0
BBX 24 37 2 -1
BITMAP
007F00
01FFC0
07FFF0
0FFFF8
1F81F8
1F007C
3E007C
3C003E
7C003E
780000
780000
780000
F80000
F07F80
F1FFE0
F3FFF0
F7FFF8
FF81FC
FE007C
FC003E
FC003E
F8001E
F8001E
F8001E
F8001F
F8001E
78001E
78001E
7C003E
7C003E
3E007C
1F00FC
1FC1F8
0FFFF0
07FFE0
01FF80
003800
ENDCHAR
STARTCHAR 0037
ENCODING 55
SWIDTH 540 0
DWIDTH 27 0
BBX 24 35 2 0
BITMAP
FFFFFF
FFFFFF
FFFFFF
FFFFFE
00007C
000078
0000F8
0001F0
0003E0
0003E0
0007C0
000780
000F80
001F00
001F00
003E00
003E00
003C00
007C00
007C00
00F800
00F800
00F000
01F000
01F000
01E000
01E000
03E000
03E000
03E000
03C000
03C000
03C000
07C000
07C000
ENDCHAR
STARTCHAR 0038
ENCODING 56
SWIDTH 540 0
DWIDTH 27 0
BBX 24 37 2 -1
BITMAP
00FE00
03FFC0
07FFE0
0FFFF0
1F81F8
3E00F8
3E007C
3C007C
7C003C
7C003C
3C003C
3C007C
3E007C
1F00F8
1F83F0
07FFE0
01FF80
0FFFE0
1FFFF0
3F00F8
7E007C
7C003E
F8003E
F8001E
F8001F
F8001F
F8001F
F8001E
F8001E
7C003E
7C007E
3E00FC
3F81F8
1FFFF0
0FFFE0
03FF80
003800
ENDCHAR
STARTCHAR 0039
ENCODING 57
SWIDTH 540 0
DWIDTH 27 0
BBX 24 37 2 -1
BITMAP
00FE00
03FF80
0FFFC0
1FFFF0
3F81F0
3E00F8
7C007C
7C003C
F8003E
F8003E
F8001E
F8001E
F8001E
F8001E
F8003F
F8003F
7C003F
7C007F
3E00FF
3F83FF
1FFFDF
0FFF9E
07FF1E
00F81E
00001E
00001E
00003E
18003C
78007C
7C007C
7C00F8
3E01F0
3F03F0
1FFFE0
0FFFC0
03FF00
007800
ENDCHAR
STARTCHAR 003A
ENCODING 58
SWIDTH 260 0
DWIDTH 13 0
BBX 5 26 5 0
BITMAP
F8
F8
F8
F8
F8
00
00
00
00
00
00
00
00
00
00
00
00
00
00
00
00
F8
F8
F8
F8
F8
ENDCHAR
STARTCHAR 003B
ENCODING 59
SWIDTH 260 0
DWIDTH 13 0
BBX 5 33 4 -7
BITMAP
F8
F8
F8
F8
F8
00
00
00
00
00
00
00
00
00
00
00
00
00
00
00
00
F8
F8
F8
F8
F8
18
18
18
38
70
F0
40
ENDCHAR
STARTCHAR 003C
ENCODING 60
SWIDTH 580 0
DWIDTH 29 0
BBX 23 23 3 7
BITMAP
00000E
00003E
0000FE
0007FE
001FF8
007FE0
03FF00
0FFC00
7FF000
FF8000
FE0000
F80000
FF0000
FFC000
3FF000
07FE00
01FF80
007FF0
000FFC
0003FE
0000FE
00001E
000006
ENDCHAR
STARTCHAR 003D
ENCODING 61
SWIDTH 580 0
DWIDTH 29 0
BBX 23 15 3 10
BITMAP
FFFFFE
FFFFFE
FFFFFE
FFFFFE
000000
000000
000000
000000
000000
000000
000000
FFFFFE
FFFFFE
FFFFFE
FFFFFE
ENDCHAR
STARTCHAR 003E
ENCODING 62
SWIDTH 580 0
DWIDTH 29 0
BBX 23 23 3 7
BITMAP
E00000
F80000
FE0000
FFC000
3FF000
0FFE00
01FF80
007FE0
000FFC
0003FE
0000FE
00003E
0000FE
0007FE
001FF8
00FFC0
03FF00
0FFC00
7FE000
FF8000
FE0000
F00000
C00000
ENDCHAR
STARTCHAR 003F
ENCODING 63
SWIDTH 540 0
DWIDTH 27 0
BBX 23 36 2 0
BITMAP
01FF80
07FFE0
0FFFF0
1FC7F8
3F00FC
7E007C
7C003E
78003E
F8001E
F8001E
00001E
00003E
00003E
00007C
0000FC
0001F8
0003F0
0007E0
000FC0
001F80
001F00
003E00
003C00
003C00
003C00
007C00
003C00
000000
000000
000000
000000
007C00
007C00
007C00
007C00
007C00
ENDCHAR
STARTCHAR 0040
ENCODING 64
SWIDTH 1000 0
DWIDTH 50 0
BBX 45 47 3 -11
BITMAP
0000FFFE0000
0003FFFFC000
000FFFFFF000
003FF00FF800
007F0001FC00
01FC00007E00
03F000001F00
03E000000F80
07C0000007C0
0F80000003C0
0F003F83C1E0
1E00FFE3C1E0
3C01FFF7C0F0
3C03F0FFC0F0
3807C07F8070
780F803F8070
781F001F8078
701F001F8078
F03E000F8078
F03E000F0078
F03C000F0078
E07C000F0078
E07C001F0070
E07C001E00F0
E07C001E00F0
E07C001E01E0
E07C003E01E0
F07C003E03C0
F07C007C07C0
F03C00FC0F80
F03E01FC1F00
781F03FC7F00
781FFFFFFE00
780FFF3FF800
3C07FE3FF000
3E01F81FC000
1E0000000078
1F00000000F8
0F80000001F0
07E0000007E0
03F800000FC0
01FE00007F80
007FE007FE00
003FFFFFFC00
0007FFFFF000
0000FFFF8000
000002800000
ENDCHAR
STARTCHAR 0041
ENCODING 65
SWIDTH 660 0
DWIDTH 33 0
BBX 33 36 0 0
BITMAP
0003E00000
0007E00000
0007F00000
000FF00000
000FF80000
000F780000
001F780000
001E7C0000
003E3C0000
003E3E0000
003C3E0000
007C1E0000
007C1F0000
00781F0000
00F80F8000
00F00F8000
01F0078000
01F007C000
01E007C000
03E003E000
03E003E000
07FFFFF000
07FFFFF000
07FFFFF000
0FFFFFF800
0F8000F800
0F0000FC00
1F00007C00
1F00007C00
3E00003E00
3E00003E00
3E00003F00
7C00001F00
7C00001F00
FC00001F80
F800000F80
ENDCHAR
STARTCHAR 0042
ENCODING 66
SWIDTH 660 0
DWIDTH 33 0
BBX 27 36 4 0
BITMAP
FFFF8000
FFFFF000
FFFFFC00
FFFFFE00
F007FE00
F0003F00
F0001F00
F0000F80
F0000F80
F0000F80
F0000F80
F0000F80
F0000F00
F0001F00
F0003E00
FFFFFC00
FFFFF800
FFFFF800
FFFFFE00
F007FF00
F0001F80
F0000FC0
F00007C0
F00007C0
F00003E0
F00003E0
F00003E0
F00003E0
F00007C0
F0000FC0
F0001FC0
F0007F80
FFFFFF00
FFFFFE00
FFFFFC00
FFFFE000
ENDCHAR
STARTCHAR 0043
ENCODING 67
SWIDTH 720 0
DWIDTH 36 0
BBX 32 37 2 -1
BITMAP
000FFE00
007FFF80
00FFFFE0
03FFFFF0
07F803F8
0FE001F8
0F8000FC
1F00007E
3F00003E
3E00003E
3E000018
7C000000
7C000000
7C000000
7C000000
78000000
F8000000
F8000000
F8000000
78000000
78000000
7C000000
7C000000
7C000010
7C00001F
3E00001F
3E00003F
3F00003E
1F00007E
1F8000FC
0FC001FC
07F003F8
03FF3FF0
01FFFFE0
00FFFF80
003FFE00
0001E000
ENDCHAR
STARTCHAR 0044
ENCODING 68
SWIDTH 720 0
DWIDTH 36 0
BBX 29 36 4 0
BITMAP
FFFF8000
FFFFF800
FFFFFE00
FFFFFF00
F807FF80
F8001FC0
F8000FE0
F80007E0
F80003F0
F80001F0
F80001F0
F80000F8
F80000F8
F80000F8
F80000F8
F80000F8
F8000078
F8000078
F8000078
F80000F8
F80000F8
F80000F8
F80000F8
F80000F8
F80000F8
F80001F0
F80001F0
F80003F0
F80003E0
F80007E0
F8001FC0
F800FF80
FFFFFF00
FFFFFE00
FFFFF800
FFFFC000
ENDCHAR
STARTCHAR 0045
ENCODING 69
SWIDTH 660 0
DWIDTH 33 0
BBX 27 36 4 0
BITMAP
FFFFFFC0
FFFFFFC0
FFFFFFC0
FFFFFFC0
F8000000
F8000000
F8000000
F8000000
F8000000
F8000000
F8000000
F8000000
F8000000
F8000000
F8000000
FFFFFF00
FFFFFF00
FFFFFF00
FFFFFF00
FFFFFF00
F8000000
F8000000
F8000000
F8000000
F8000000
F8000000
F8000000
F8000000
F8000000
F8000000
F8000000
F8000000
FFFFFFE0
FFFFFFE0
FFFFFFE0
FFFFFFE0
ENDCHAR
STARTCHAR 0046
ENCODING 70
SWIDTH 600 0
DWIDTH 30 0
BBX 24 36 4 0
BITMAP
FFFFFF
FFFFFF
FFFFFF
FFFFFF
F80000
F80000
F80000
F80000
F80000
F80000
F80000
F80000
F80000
F80000
F80000
F80000
FFFFFC
FFFFFC
FFFFFC
FFFFFC
F80000
F80000
F80000
F80000
F80000
F80000
F80000
F80000
F80000
F80000
F80000
F80000
F80000
F80000
F80000
F80000
ENDCHAR
STARTCHAR 0047
ENCODING 71
SWIDTH 760 0
DWIDTH 38 0
BBX 33 37 3 -1
BITMAP
001FFF0000
007FFFC000
01FFFFF000
03FFFFF800
07F003FC00
0FC000FC00
1F80007E00
3F00003E00
3E00001F00
7E00001F00
7C00000E00
7C00000000
F800000000
F800000000
F800000000
F800000000
F800000000
F800000000
F8003FFF80
F8003FFF80
F8003FFF80
F8003FFF80
F800000F80
F800000F80
FC00000F80
7C00000F80
7C00000F80
3E00000F80
3F00000F80
1F80001F80
0FC0007F80
0FF801FF00
03FFFFFE00
01FFFFF800
007FFFE000
001FFF8000
0001E00000
ENDCHAR
STARTCHAR 0048
ENCODING 72
SWIDTH 720 0
DWIDTH 36 0
BBX 28 36 4 0
BITMAP
F80001F0
F80001F0
F80001F0
F80001F0
F80001F0
F80001F0
F80001F0
F80001F0
F80001F0
F80001F0
F80001F0
F80001F0
F80001F0
F80001F0
F80001F0
FFFFFFF0
FFFFFFF0
FFFFFFF0
FFFFFFF0
F80001F0
F80001F0
F80001F0
F80001F0
F80001F0
F80001F0
F80001F0
F80001F0
F80001F0
F80001F0
F80001F0
F80001F0
F80001F0
F80001F0
F80001F0
F80001F0
F80001F0
ENDCHAR
STARTCHAR 0049
ENCODING 73
SWIDTH 260 0
DWIDTH 13 0
BBX 4 36 5 0
BITMAP
F0
F0
F0
F0
F0
F0
F0
F0
F0
F0
F0
F0
F0
F0
F0
F0
F0
F0
F0
F0
F0
F0
F0
F0
F0
F0
F0
F0
F0
F0
F0
F0
F0
F0
F0
F0
ENDCHAR
STARTCHAR 004A
ENCODING 74
SWIDTH 500 0
DWIDTH 25 0
BBX 20 37 1 -1
BITMAP
0001F0
0001F0
0001F0
0001F0
0001F0
0001F0
0001F0
0001F0
0001F0
0001F0
0001F0
0001F0
0001F0
0001F0
0001F0
0001F0
0001F0
0001F0
0001F0
0001F0
0001F0
0001F0
0001F0
0001F0
0001F0
1801F0
F801F0
F801F0
7801F0
7801F0
7C03E0
7E07E0
3FFFE0
3FFFC0
1FFF80
07FE00
00E000
ENDCHAR
STARTCHAR 004B
ENCODING 75
SWIDTH 660 0
DWIDTH 33 0
BBX 29 36 4 0
BITMAP
F00003F0
F00007E0
F0000FC0
F0001F80
F0003F00
F0007E00
F000FC00
F001F800
F003F000
F007E000
F00FC000
F01F8000
F03F0000
F07E0000
F0FC0000
F1FC0000
F3FE0000
F7FF0000
FFDF0000
FF9F8000
FF0FC000
FE07E000
FC07E000
F803F000
F001F800
F000FC00
F000FC00
F0007E00
F0003F00
F0003F00
F0001F80
F0000FC0
F00007E0
F00007E0
F00003F0
F00001F8
ENDCHAR
STARTCHAR 004C
ENCODING 76
SWIDTH 540 0
DWIDTH 27 0
BBX 22 36 4 0
BITMAP
F00000
F00000
F00000
F00000
F00000
F00000
F00000
F00000
F00000
F00000
F00000
F00000
F00000
F00000
F00000
F00000
F00000
F00000
F00000
F00000
F00000
F00000
F00000
F00000
F00000
F00000
F00000
F00000
F00000
F00000
F00000
F00000
FFFFFC
FFFFFC
FFFFFC
FFFFFC
ENDCHAR
STARTCHAR 004D
ENCODING 77
SWIDTH 820 0
DWIDTH 41 0
BBX 34 36 4 0
BITMAP
FE00001FC0
FE00001FC0
FF00001FC0
FF00003FC0
FF00003FC0
FF80003FC0
F780007FC0
F780007FC0
F7C00077C0
F3C000F7C0
F3C000F7C0
F3E000E7C0
F1E001E7C0
F1E001E7C0
F1F001C7C0
F0F003C7C0
F0F003C7C0
F0F80387C0
F0780787C0
F0780787C0
F07C0F07C0
F03C0F07C0
F03C0F07C0
F03E1E07C0
F01E1E07C0
F01E1E07C0
F01F3C07C0
F00F3C07C0
F00F3C07C0
F00FF807C0
F007F807C0
F007F007C0
F007F007C0
F003F007C0
F003E007C0
F003E007C0
ENDCHAR
STARTCHAR 004E
ENCODING 78
SWIDTH 720 0
DWIDTH 36 0
BBX 28 36 4 0
BITMAP
F80001F0
FC0001F0
FC0001F0
FE0001F0
FF0001F0
FF0001F0
FF8001F0
FFC001F0
F7C001F0
F7E001F0
F3F001F0
F1F001F0
F1F801F0
F0FC01F0
F07C01F0
F07E01F0
F03F01F0
F01F01F0
F01F81F0
F00FC1F0
F007C1F0
F007E1F0
F003F1F0
F001F1F0
F001F9F0
F000FDF0
F0007DF0
F0007FF0
F0003FF0
F0001FF0
F0001FF0
F0000FF0
F00007F0
F00007F0
F00003F0
F00001F0
ENDCHAR
STARTCHAR 004F
ENCODING 79
SWIDTH 760 0
DWIDTH 38 0
BBX 35 37 2 -1
BITMAP
000FFE0000
007FFFC000
00FFFFE000
03FFFFF800
07F803FC00
0FE000FE00
0FC0007E00
1F80003F00
3F00001F80
3E00000F80
3E00000F80
7C000007C0
7C000007C0
7C000007C0
7C000007C0
78000003C0
F8000003E0
F8000003E0
F8000003E0
F8000003E0
78000003E0
78000003C0
7C000007C0
7C000007C0
7C000007C0
3E00000F80
3E00000F80
3F00001F80
1F00001F00
0F80003E00
0FE000FE00
07F001FC00
03FFBFF800
01FFFFF000
007FFFC000
001FFF0000
0000E00000
ENDCHAR
STARTCHAR 0050
ENCODING 80
SWIDTH 660 0
DWIDTH 33 0
BBX 27 36 4 0
BITMAP
FFFFE000
FFFFFC00
FFFFFF00
FFFFFF80
F801FF80
F8000FC0
F80007C0
F80003E0
F80003E0
F80003E0
F80003E0
F80003E0
F80003E0
F80003E0
F80007E0
F8000FC0
F8001FC0
FFFFFF80
FFFFFF00
FFFFFE00
FFFFF800
F8000000
F8000000
F8000000
F8000000
F8000000
F8000000
F8000000
F8000000
F8000000
F8000000
F8000000
F8000000
F8000000
F8000000
F8000000
ENDCHAR
STARTCHAR 0051
ENCODING 81
SWIDTH 760 0
DWIDTH 38 0
BBX 35 39 2 -3
BITMAP
001FFE0000
007FFF8000
01FFFFE000
03FFFFF000
07F803F800
0FE000FC00
1F80007E00
1F00003F00
3F00001F00
3E00001F80
7C00000F80
7C00000F80
7C000007C0
78000007C0
F8000007C0
F8000007C0
F8000007C0
F8000007C0
F8000007C0
F8000007C0
F8000007C0
F8000007C0
78000007C0
7C000007C0
7C000007C0
7C00000F80
3E00300F80
3E003C1F00
1F003F3F00
1F807FFE00
0FC00FFC00
07F003FC00
03FFBFF800
01FFFFFE00
007FFFFF80
001FFF1FE0
0001E007E0
00000001C0
0000000040
ENDCHAR
STARTCHAR 0052
ENCODING 82
SWIDTH 720 0
DWIDTH 36 0
BBX 31 36 4 0
BITMAP
FFFFF000
FFFFFF00
FFFFFF80
FFFFFFC0
F8001FE0
F80007F0
F80003F0
F80001F0
F80001F0
F80000F8
F80000F8
F80001F0
F80001F0
F80003F0
F80007E0
F8001FE0
FFFFFFC0
FFFFFF80
FFFFFE00
FFFFF000
F807F000
F801F800
F800FC00
F8007E00
F8003F00
F8001F80
F8001F80
F8000FC0
F80007E0
F80007E0
F80003F0
F80001F8
F80001F8
F80000FC
F800007E
F800007E
ENDCHAR
STARTCHAR 0053
ENCODING 83
SWIDTH 660 0
DWIDTH 33 0
BBX 29 37 2 -1
BITMAP
007FF000
03FFFC00
07FFFF00
0FFFFF80
1FC01FC0
1F0007C0
3E0003E0
3C0003E0
3C0001E0
3C0001F0
3C000180
3E000000
3F000000
1FC00000
1FF80000
0FFF8000
07FFF800
01FFFE00
003FFF80
0003FFC0
00003FE0
000007F0
000003F0
000001F0
F80000F8
F80000F8
F80000F8
7C0000F8
7C0000F0
7E0001F0
3F0003F0
1FC00FE0
1FFFFFC0
0FFFFF80
03FFFF00
00FFFC00
00038000
ENDCHAR
STARTCHAR 0054
ENCODING 84
SWIDTH 600 0
DWIDTH 30 0
BBX 29 36 1 0
BITMAP
FFFFFFF8
FFFFFFF8
FFFFFFF8
FFFFFFF8
000F8000
000F8000
000F8000
000F8000
000F8000
000F8000
000F8000
000F8000
000F8000
000F8000
000F8000
000F8000
000F8000
000F8000
000F8000
000F8000
000F8000
000F8000
000F8000
000F8000
000F8000
000F8000
000F8000
000F8000
000F8000
000F8000
000F8000
000F8000
000F8000
000F8000
000F8000
000F8000
ENDCHAR
STARTCHAR 0055
ENCODING 85
SWIDTH 720 0
DWIDTH 36 0
BBX 28 37 4 -1
BITMAP
F80001F0
F80001F0
F80001F0
F80001F0
F80001F0
F80001F0
F80001F0
F80001F0
F80001F0
F80001F0
F80001F0
F80001F0
F80001F0
F80001F0
F80001F0
F80001F0
F80001F0
F80001F0
F80001F0
F80001F0
F80001F0
F80001F0
F80001F0
F80001F0
F80001F0
F80001F0
F80001F0
780003E0
7C0003E0
7E0007E0
3F0007C0
3F801FC0
1FFFFF80
0FFFFF00
07FFFE00
01FFF800
00078000
ENDCHAR
STARTCHAR 0056
ENCODING 86
SWIDTH 660 0
DWIDTH 33 0
BBX 33 36 0 0
BITMAP
F800000F80
7C00000F00
7C00001F00
3E00001F00
3E00001E00
3E00003E00
1F00003E00
1F00007C00
1F00007C00
0F80007800
0F8000F800
078000F800
07C000F000
07C001F000
03C001E000
03E003E000
01E003E000
01F003C000
01F007C000
00F0078000
00F8078000
00F80F8000
00780F0000
007C1F0000
003C1E0000
003C1E0000
003E3E0000
001E3C0000
001E3C0000
000F7C0000
000F780000
000F780000
0007F00000
0007F00000
0003F00000
0003E00000
ENDCHAR
STARTCHAR 0057
ENCODING 87
SWIDTH 940 0
DWIDTH 47 0
BBX 46 36 1 0
BITMAP
F8000FC0007C
F8001FC00078
F8001FC000F8
F8001FC000F8
78001FE000F0
7C003DE000F0
7C003DE001F0
3C003DF001F0
3C007CF001E0
3E0078F001E0
3E0078F003E0
1E0078F803E0
1E00F07803C0
1F00F07803C0
1F00F07C07C0
0F00F03C0780
0F01E03C0780
0F01E03C0780
0F81E03E0F80
0783E01E0F00
0783C01E0F00
0783C01F0F00
03C3C00F1F00
03C7800F1E00
03C7800F1E00
03C7800F1E00
01EF8007BC00
01EF0007BC00
01EF0007BC00
01EF0007BC00
00EE0003B800
00FE0003F800
00FE0003F800
00FE0001F800
007C0001F000
007C0001F000
ENDCHAR
STARTCHAR 0058
ENCODING 88
SWIDTH 660 0
DWIDTH 33 0
BBX 32 36 1 0
BITMAP
7E00003E
3E00007C
1F0000F8
1F8001F8
0FC001F0
07C003E0
07E007C0
03F00FC0
01F00F80
01F81F00
00FC3E00
007C7E00
003E7C00
003FF800
001FF000
000FF000
000FE000
0007E000
000FE000
001FF000
001FF800
003EFC00
007E7C00
00FC7E00
00F83F00
01F01F80
03F01F80
03E00FC0
07C007E0
0FC003E0
1F8003F0
1F0001F8
3E0000FC
7E0000FC
FC00007E
F800003F
ENDCHAR
STARTCHAR 0059
ENCODING 89
SWIDTH 660 0
DWIDTH 33 0
BBX 33 36 0 0
BITMAP
FC00001F80
7E00001F00
3E00003E00
3F00007E00
1F80007C00
0F8000F800
0FC001F800
07E001F000
03E003E000
03F007E000
01F807C000
00F80F8000
00FC1F0000
007E1F0000
003E3E0000
003F3C0000
001F7C0000
000FF80000
000FF00000
0007F00000
0003E00000
0003E00000
0003E00000
0003E00000
0003E00000
0003E00000
0003E00000
0003E00000
0003E00000
0003E00000
0003E00000
0003E00000
0003E00000
0003E00000
0003E00000
0003E00000
ENDCHAR
STARTCHAR 005A
ENCODING 90
SWIDTH 600 0
DWIDTH 30 0
BBX 28 36 1 0
BITMAP
3FFFFFF0
3FFFFFF0
3FFFFFF0
3FFFFFF0
000003F0
000007E0
00000FC0
00001F80
00003F00
00003F00
00007E00
0000FC00
0001F800
0003F000
0003F000
0007E000
000FC000
001F8000
003F0000
003F0000
007E0000
00FC0000
01F80000
03F00000
03F00000
07E00000
0FC00000
1F800000
3F000000
3E000000
7E000000
FC000000
FFFFFFF0
FFFFFFF0
FFFFFFF0
FFFFFFF0
ENDCHAR
STARTCHAR 005B
ENCODING 91
SWIDTH 260 0
DWIDTH 13 0
BBX 10 46 3 -10
BITMAP
FFC0
FFC0
FFC0
FFC0
F800
F800
F800
F800
F800
F800
F800
F800
F800
F800
F800
F800
F800
F800
F800
F800
F800
F800
F800
F800
F800
F800
F800
F800
F800
F800
F800
F800
F800
F800
F800
F800
F800
F800
F800
F800
F800
F800
FFC0
FFC0
FFC0
FFC0
ENDCHAR
STARTCHAR 005C
ENCODING 92
SWIDTH 260 0
DWIDTH 13 0
BBX 14 37 0 -1
BITMAP
F000
7000
7000
7800
7800
3800
3800
3C00
3C00
1C00
1E00
1E00
0E00
0E00
0F00
0F00
0700
0780
0780
0380
0380
03C0
03C0
01C0
01E0
01E0
00E0
00E0
00F0
00F0
0070
0070
0078
0038
0038
003C
003C
ENDCHAR
STARTCHAR 005D
ENCODING 93
SWIDTH 260 0
DWIDTH 13 0
BBX 10 46 1 -10
BITMAP
FFC0
FFC0
FFC0
FFC0
07C0
07C0
07C0
07C0
07C0
07C0
07C0
07C0
07C0
07C0
07C0
07C0
07C0
07C0
07C0
07C0
07C0
07C0
07C0
07C0
07C0
07C0
07C0
07C0
07C0
07C0
07C0
07C0
07C0
07C0
07C0
07C0
07C0
07C0
07C0
07C0
07C0
07C0
FFC0
FFC0
FFC0
FFC0
ENDCHAR
STARTCHAR 005E
ENCODING 94
SWIDTH 460 0
DWIDTH 23 0
BBX 20 19 2 17
BITMAP
00F000
01F000
01F800
03F800
03FC00
07BC00
07BE00
0F9E00
0F1E00
0F0F00
1E0F00
1E0780
3E0780
3C07C0
7C03C0
7803E0
F801E0
F801E0
F001F0
ENDCHAR
STARTCHAR 005F
ENCODING 95
SWIDTH 540 0
DWIDTH 27 0
BBX 29 3 -1 -10
BITMAP
FFFFFFF8
FFFFFFF8
FFFFFFF8
ENDCHAR
STARTCHAR 0060
ENCODING 96
SWIDTH 320 0
DWIDTH 16 0
BBX 8 7 3 29
BITMAP
F8
FC
7C
3E
1E
0F
07
ENDCHAR
STARTCHAR 0061
ENCODING 97
SWIDTH 540 0
DWIDTH 27 0
BBX 23 28 2 -1
BITMAP
001800
03FFC0
0FFFF0
1FFFF8
3F83FC
3E00FC
7C007C
78003C
78003C
00003C
00003C
0003FC
01FFFC
0FFFFC
3FFF3C
7FF03C
7E003C
F8003C
F8003C
F8007C
F8007C
F800FC
F801FC
7E07FE
7FFFBE
3FFF1E
1FFC1E
01C000
ENDCHAR
STARTCHAR 0062
ENCODING 98
SWIDTH 540 0
DWIDTH 27 0
BBX 23 37 3 -1
BITMAP
F80000
F80000
F80000
F80000
F80000
F80000
F80000
F80000
F80000
F81000
F8FF00
FBFFC0
FFFFE0
FF87F0
FE01F8
FC00F8
FC007C
F8007C
F8003C
F8003C
F0003E
F0003E
F0003E
F0003E
F0003E
F0003E
F8003C
F8003C
F8007C
FC007C
FC00F8
FE01F8
FF87F0
F7FFE0
F3FFC0
F1FF00
001000
ENDCHAR
STARTCHAR 0063
ENCODING 99
SWIDTH 500 0
DWIDTH 25 0
BBX 22 28 2 -1
BITMAP
001800
01FF80
07FFE0
0FFFF0
1FC3F0
3F00F8
7E0078
7C007C
78003C
F80000
F80000
F80000
F80000
F00000
F00000
F80000
F80000
F80000
F8003C
78003C
7C007C
7C007C
3E00F8
1F83F0
0FFFE0
07FFC0
03FF80
001800
ENDCHAR
STARTCHAR 0064
ENCODING 100
SWIDTH 540 0
DWIDTH 27 0
BBX 22 37 2 -1
BITMAP
00003C
00003C
00003C
00003C
00003C
00003C
00003C
00003C
00003C
00203C
03FE3C
0FFF3C
1FFFBC
3F87FC
3E01FC
7C00FC
7C007C
F8007C
F8003C
F8003C
F0003C
F0003C
F0003C
F0003C
F0003C
F0003C
F8003C
F8003C
F8007C
7C007C
7C00FC
3E01FC
1F83FC
1FFFFC
07FFBC
03FE3C
003000
ENDCHAR
STARTCHAR 0065
ENCODING 101
SWIDTH 540 0
DWIDTH 27 0
BBX 24 28 2 -1
BITMAP
001800
01FF80
07FFE0
0FFFF0
1FC3F8
3F00FC
7E007C
7C003E
78003E
F8001E
F8001E
F8001F
FFFFFF
FFFFFF
FFFFFF
F00000
F00000
F80000
F80000
78001F
7C003E
7E003E
3F007C
1FC1FC
0FFFF8
07FFE0
01FFC0
001C00
ENDCHAR
STARTCHAR 0066
ENCODING 102
SWIDTH 260 0
DWIDTH 13 0
BBX 16 36 0 0
BITMAP
01FF
03FE
07FE
07FE
07C0
0F80
0F80
0F80
0F80
0F80
FFFC
FFFC
FFFC
0F80
0F80
0F80
0F80
0F80
0F80
0F80
0F80
0F80
0F80
0F80
0F80
0F80
0F80
0F80
0F80
0F80
0F80
0F80
0F80
0F80
0F80
0F80
ENDCHAR
STARTCHAR 0067
ENCODING 103
SWIDTH 540 0
DWIDTH 27 0
BBX 22 38 2 -11
BITMAP
003000
03FE3C
0FFFBC
1FFFFC
3F87FC
3E01FC
7C00FC
78007C
F8007C
F8003C
F0003C
F0003C
F0003C
F0003C
F0003C
F0003C
F0003C
F8003C
F8003C
78007C
7C007C
7E00FC
3F01FC
1FFFFC
0FFFBC
07FF3C
01FC3C
00003C
00003C
E0003C
78007C
780078
7C00F8
7F03F0
3FFFE0
1FFFC0
07FF00
003000
ENDCHAR
STARTCHAR 0068
ENCODING 104
SWIDTH 540 0
DWIDTH 27 0
BBX 21 36 3 0
BITMAP
F80000
F80000
F80000
F80000
F80000
F80000
F80000
F80000
F80000
F80800
F8FF80
FBFFE0
FFFFF0
FFC7F0
FF01F8
FC00F8
FC0078
F80078
F80078
F80078
F80078
F80078
F80078
F80078
F80078
F80078
F80078
F80078
F80078
F80078
F80078
F80078
F80078
F80078
F80078
F80078
ENDCHAR
STARTCHAR 0069
ENCODING 105
SWIDTH 220 0
DWIDTH 11 0
BBX 5 36 3 0
BITMAP
F8
F8
F8
F8
F8
00
00
00
00
00
F8
F8
F8
F8
F8
F8
F8
F8
F8
F8
F8
F8
F8
F8
F8
F8
F8
F8
F8
F8
F8
F8
F8
F8
F8
F8
ENDCHAR
STARTCHAR 006A
ENCODING 106
SWIDTH 220 0
DWIDTH 11 0
BBX 10 46 -2 -11
BITMAP
07C0
07C0
07C0
07C0
07C0
0000
0000
0000
0000
0000
07C0
07C0
07C0
07C0
07C0
07C0
07C0
07C0
07C0
07C0
07C0
07C0
07C0
07C0
07C0
07C0
07C0
07C0
07C0
07C0
07C0
07C0
07C0
07C0
07C0
07C0
07C0
07C0
07C0
07C0
07C0
0780
CF80
FF80
FF00
FE00
ENDCHAR
STARTCHAR 006B
ENCODING 107
SWIDTH 500 0
DWIDTH 25 0
BBX 21 36 3 0
BITMAP
F80000
F80000
F80000
F80000
F80000
F80000
F80000
F80000
F80000
F80000
F801F0
F803E0
F807C0
F80F80
F81F00
F83E00
F87C00
F8F800
F9F000
FBE000
FFE000
FFF000
FFF800
FEF800
FC7C00
F83E00
F83E00
F81F00
F80F80
F80F80
F807C0
F807E0
F803E0
F801F0
F801F8
F800F8
ENDCHAR
STARTCHAR 006C
ENCODING 108
SWIDTH 220 0
DWIDTH 11 0
BBX 5 36 3 0
BITMAP
F8
F8
F8
F8
F8
F8
F8
F8
F8
F8
F8
F8
F8
F8
F8
F8
F8
F8
F8
F8
F8
F8
F8
F8
F8
F8
F8
F8
F8
F8
F8
F8
F8
F8
F8
F8
ENDCHAR
STARTCHAR 006D
ENCODING 109
SWIDTH 820 0
DWIDTH 41 0
BBX 35 27 3 0
BITMAP
0008001000
F0FF81FF00
F3FFC3FF80
F7FFE7FFC0
FFCFEF8FE0
FE03FE03E0
FC01FC03E0
FC01F801E0
F800F801E0
F800F001E0
F800F001E0
F800F001E0
F800F001E0
F800F001E0
F800F001E0
F800F001E0
F800F001E0
F800F001E0
F800F001E0
F800F001E0
F800F001E0
F800F001E0
F800F001E0
F800F001E0
F800F001E0
F800F001E0
F800F001E0
ENDCHAR
STARTCHAR 006E
ENCODING 110
SWIDTH 540 0
DWIDTH 27 0
BBX 21 27 3 0
BITMAP
000800
F0FF80
F3FFE0
F7FFF0
FFC7F0
FE01F8
FC00F8
FC0078
F80078
F80078
F80078
F80078
F80078
F80078
F80078
F80078
F80078
F80078
F80078
F80078
F80078
F80078
F80078
F80078
F80078
F80078
F80078
ENDCHAR
STARTCHAR 006F
ENCODING 111
SWIDTH 540 0
DWIDTH 27 0
BBX 24 28 2 -1
BITMAP
001800
01FF80
07FFE0
0FFFF0
1FC3F8
3E00FC
7C007C
7C003E
F8003E
F8001E
F8001F
F0001F
F0001F
F0001F
F0001F
F0001F
F0001F
F0001F
F8001F
F8003E
7C003E
7C007C
3E00FC
3F83F8
1FFFF0
07FFE0
03FF80
001800
ENDCHAR
STARTCHAR 0070
ENCODING 112
SWIDTH 540 0
DWIDTH 27 0
BBX 23 37 3 -10
BITMAP
001800
F1FF00
F3FFC0
F7FFE0
FF83F0
FE01F8
FC00F8
FC007C
F8007C
F8003C
F8003E
F0003E
F0003E
F0003E
F0003E
F0003E
F0003E
F8003C
F8003C
F8007C
FC007C
FC00F8
FE01F8
FF83F0
FFFFE0
FBFFC0
F9FF00
F81000
F80000
F80000
F80000
F80000
F80000
F80000
F80000
F80000
F80000
ENDCHAR
STARTCHAR 0071
ENCODING 113
SWIDTH 540 0
DWIDTH 27 0
BBX 22 37 2 -10
BITMAP
002000
03FE3C
0FFF3C
1FFFBC
3F83FC
3E01FC
7C00FC
7C007C
F8007C
F8003C
F8003C
F0003C
F0003C
F0003C
F0003C
F0003C
F0003C
F8003C
F8003C
78007C
7C007C
7C00FC
3E01FC
1F83FC
0FFFFC
07FFBC
03FE3C
00703C
00003C
00003C
00003C
00003C
00003C
00003C
00003C
00003C
00003C
ENDCHAR
STARTCHAR 0072
ENCODING 114
SWIDTH 320 0
DWIDTH 16 0
BBX 14 27 3 0
BITMAP
0040
F1FC
F3FC
F7FC
FFF8
FF08
FC00
FC00
F800
F800
F800
F800
F800
F800
F800
F800
F800
F800
F800
F800
F800
F800
F800
F800
F800
F800
F800
ENDCHAR
STARTCHAR 0073
ENCODING 115
SWIDTH 500 0
DWIDTH 25 0
BBX 21 28 2 -1
BITMAP
006000
07FE00
1FFF80
3FFFC0
7E07E0
7803F0
F801F0
F800F0
F80000
FC0000
7F0000
7FE000
3FFE00
1FFFC0
07FFE0
007FF0
0007F8
0001F8
0000F8
F00078
F000F8
F800F8
7C01F0
7F03F0
3FFFE0
1FFFC0
07FF00
00F000
ENDCHAR
STARTCHAR 0074
ENCODING 116
SWIDTH 260 0
DWIDTH 13 0
BBX 12 34 1 1
BITMAP
0600
1E00
1E00
1E00
1E00
1E00
1E00
1E00
FFF0
FFF0
FFF0
1E00
1E00
1E00
1E00
1E00
1E00
1E00
1E00
1E00
1E00
1E00
1E00
1E00
1E00
1E00
1E00
1E00
1F00
1F00
1FF0
0FF0
0FF0
07F0
ENDCHAR
STARTCHAR 0075
ENCODING 117
SWIDTH 540 0
DWIDTH 27 0
BBX 21 27 3 -1
BITMAP
F80078
F80078
F80078
F80078
F80078
F80078
F80078
F80078
F80078
F80078
F80078
F80078
F80078
F80078
F80078
F80078
F80078
F80078
F800F8
F800F8
7801F8
7C03F8
7F0FF8
3FFF78
1FFE78
0FFC78
01C000
ENDCHAR
STARTCHAR 0076
ENCODING 118
SWIDTH 500 0
DWIDTH 25 0
BBX 23 26 1 0
BITMAP
F0001E
F8003E
78003E
7C003C
7C007C
3C0078
3E0078
3E00F8
1E00F0
1F01F0
0F01E0
0F01E0
0F83E0
0783C0
0783C0
03C7C0
03C780
03C780
01EF00
01EF00
01EF00
00FE00
00FE00
007E00
007C00
007C00
ENDCHAR
STARTCHAR 0077
ENCODING 119
SWIDTH 720 0
DWIDTH 36 0
BBX 36 26 0 0
BITMAP
F800F001F0
7801F801E0
7801F801E0
7C01F803E0
7C01F803C0
3C03FC03C0
3C03FC03C0
3E03FC0780
1E03BE0780
1E079E0780
1F079E0F00
0F071E0F00
0F0F1F0F00
0F0F0F1F00
078F0F1E00
078E0F1E00
079E079E00
079E07BC00
03DE07BC00
03DC07BC00
03FC03F800
01FC03F800
01FC03F800
01F803F000
00F801F000
00F801F000
ENDCHAR
STARTCHAR 0078
ENCODING 120
SWIDTH 500 0
DWIDTH 25 0
BBX 23 26 1 0
BITMAP
FC007E
7C007C
3E00F8
3F01F0
1F01F0
0F83E0
07C7C0
07CFC0
03EF80
01FF00
01FE00
00FE00
007C00
00FE00
01FF00
01FF00
03EF80
07C7C0
07C7C0
0F83E0
1F01F0
1F01F0
3E00F8
7C007C
FC007E
F8003E
ENDCHAR
STARTCHAR 0079
ENCODING 121
SWIDTH 500 0
DWIDTH 25 0
BBX 23 36 1 -11
BITMAP
F8001E
F8001E
78003E
7C003C
7C003C
3C007C
3E0078
1E00F8
1F00F0
1F00F0
0F01F0
0F81E0
0781E0
0783E0
07C3C0
03C7C0
03C780
03E780
01EF80
01EF00
00FF00
00FF00
00FE00
007E00
007C00
007C00
007C00
007800
007800
00F800
00F000
01F000
3FE000
3FE000
3FC000
3F8000
ENDCHAR
STARTCHAR 007A
ENCODING 122
SWIDTH 500 0
DWIDTH 25 0
BBX 23 26 1 0
BITMAP
7FFFFC
7FFFFC
7FFFFC
7FFFFC
0000F8
0001F0
0003E0
0007C0
000F80
001F80
003F00
007E00
007C00
00F800
01F000
03E000
07E000
0FC000
1F8000
1F0000
3E0000
7C0000
FFFFFE
FFFFFE
FFFFFE
FFFFFE
ENDCHAR
STARTCHAR 007B
ENCODING 123
SWIDTH 320 0
DWIDTH 16 0
BBX 15 47 1 -11
BITMAP
007E
01FE
01FE
03F8
03C0
03C0
03C0
07C0
07C0
07C0
07C0
07C0
07C0
07C0
0780
0780
0780
0780
0780
0F00
1F00
FE00
FC00
F800
FE00
3F00
0F00
0780
0780
0780
0780
0780
07C0
07C0
07C0
07C0
07C0
07C0
03C0
03C0
03C0
03C0
03F0
01FE
01FE
00FE
0006
ENDCHAR
STARTCHAR 007C
ENCODING 124
SWIDTH 240 0
DWIDTH 12 0
BBX 3 47 5 -11
BITMAP
E0
E0
E0
E0
E0
E0
E0
E0
E0
E0
E0
E0
E0
E0
E0
E0
E0
E0
E0
E0
E0
E0
E0
E0
E0
E0
E0
E0
E0
E0
E0
E0
E0
E0
E0
E0
E0
E0
E0
E0
E0
E0
E0
E0
E0
E0
E0
ENDCHAR
STARTCHAR 007D
ENCODING 125
SWIDTH 320 0
DWIDTH 16 0
BBX 14 47 1 -11
BITMAP
FC00
FE00
FF00
3F80
0F80
0780
0780
0780
0780
0780
0780
0780
0780
0780
0780
0780
0780
03C0
03C0
03E0
01F0
00FC
007C
007C
00FC
01F0
03E0
03C0
03C0
0780
0780
0780
0780
0780
0780
0780
0780
0780
0780
0780
0780
0F80
1F80
FF00
FE00
FC00
E000
ENDCHAR
STARTCHAR 007E
ENCODING 126
SWIDTH 580 0
DWIDTH 29 0
BBX 25 7 2 15
BITMAP
1FF00080
7FFC0180
FFFF8F80
FFFFFF80
F07FFF80
C00FFF00
8003FC00
ENDCHAR
STARTCHAR 00A0
ENCODING 160
SWIDTH 260 0
DWIDTH 13 0
BBX 0 0 0 0
BITMAP
ENDCHAR
STARTCHAR 00A1
ENCODING 161
SWIDTH 320 0
DWIDTH 16 0
BBX 5 36 6 -10
BITMAP
F8
F8
F8
F8
F8
00
00
00
00
70
70
70
70
70
70
F0
F0
F0
F0
F8
F8
F8
F8
F8
F8
F8
F8
F8
F8
F8
F8
F8
F8
F8
F8
F8
ENDCHAR
STARTCHAR 00A2
ENCODING 162
SWIDTH 540 0
DWIDTH 27 0
BBX 22 46 3 -10
BITMAP
000080
0000E0
0000E0
0001C0
0001C0
0001C0
000380
000380
000380
003380
03FF00
07FFC0
1FFFE0
3F8FF0
3E0EF8
7C0EF8
780E78
F81C7C
F81C00
F01C00
F03800
F03800
F03800
F07000
F07000
F07000
F07000
F8E03C
F8E07C
78E07C
7DC0F8
3FC1F8
3FC3F0
1FFFE0
0FFFC0
03FF00
03B800
070000
070000
070000
070000
0E0000
0E0000
0E0000
1C0000
0C0000
ENDCHAR
STARTCHAR 00A3
ENCODING 163
SWIDTH 540 0
DWIDTH 27 0
BBX 25 37 1 -1
BITMAP
007FC000
01FFF000
03FFF800
07F1FC00
0FC07E00
1F803F00
1F001F00
1F000F00
1E000F00
1E000000
1E000000
1E000000
1F000000
1F000000
1F000000
0F000000
FFFF0000
FFFF0000
FFFF0000
FFFF0000
07C00000
07C00000
07C00000
07C00000
07C00000
07800000
07800000
0F000000
0F000000
1E000000
3C000000
7FFC0100
FFFFFF80
FFFFFF80
FF3FFF80
7003FF00
40003000
ENDCHAR
STARTCHAR 00A4
ENCODING 164
SWIDTH 540 0
DWIDTH 27 0
BBX 24 24 2 6
BITMAP
200000
70000C
F8FE1E
FFFFBF
7FFFFE
3FFFF8
1F83F0
1F00F8
3E0078
3C007C
3C003C
78003C
78003C
3C003C
3C003C
3C007C
3E00F8
1F01F8
1FEFF8
3FFFFC
7FFFFE
F9FF3F
701C1E
20000C
ENDCHAR
STARTCHAR 00A5
ENCODING 165
SWIDTH 540 0
DWIDTH 27 0
BBX 27 36 0 0
BITMAP
F80003E0
7C0003E0
7C0007C0
3E0007C0
3E000F80
1F000F80
0F001F00
0F803F00
07803E00
07C07C00
03E07C00
03E0F800
01F0F800
00F1F000
00F9F000
007BE000
007FC000
003FC000
3FFFFFC0
3FFFFFC0
3FFFFFC0
000F0000
000F0000
000F0000
000F0000
3FFFFFC0
3FFFFFC0
3FFFFFC0
000F0000
000F0000
000F0000
000F0000
000F0000
000F0000
000F0000
000F0000
ENDCHAR
STARTCHAR 00A6
ENCODING 166
SWIDTH 240 0
DWIDTH 12 0
BBX 3 47 5 -11
BITMAP
E0
E0
E0
E0
E0
E0
E0
E0
E0
E0
E0
E0
E0
E0
E0
E0
E0
E0
E0
00
00
00
00
00
00
00
00
E0
E0
E0
E0
E0
E0
E0
E0
E0
E0
E0
E0
E0
E0
E0
E0
E0
E0
E0
E0
ENDCHAR
STARTCHAR 00A7
ENCODING 167
SWIDTH 540 0
DWIDTH 27 0
BBX 24 46 2 -11
BITMAP
01FF00
07FFC0
0FFFE0
1FC7F0
1F01F0
1E00F8
3E00F8
3E0078
3E0000
1F0000
1F8000
0FC000
07E000
07F800
1FFC00
3EFF00
7C3FC0
781FE0
F007F0
F003F8
F000FC
F0007E
F8003E
7C001E
7E001F
3F801E
1FC01E
0FF01E
07F83C
01FE7C
007FF0
003FC0
000FE0
0007F0
0001F8
0000F8
00007C
1C007C
3C007C
3E007C
3E007C
1F00F8
1FC3F8
0FFFF0
07FFE0
01FF80
ENDCHAR
STARTCHAR 00A8
ENCODING 168
SWIDTH 320 0
DWIDTH 16 0
BBX 14 5 1 31
BITMAP
F83C
F83C
F83C
F83C
F83C
ENDCHAR
STARTCHAR 00A9
ENCODING 169
SWIDTH 720 0
DWIDTH 36 0
BBX 37 36 0 0
BITMAP
0007FF0000
003FFFE000
007FFFF000
01FC01FC00
03E0003E00
07C0001F00
0F00000780
1E000003C0
1C03FE01C0
3C07FF01E0
381FDF80E0
781E03C0F0
703C01E070
703800E070
F078000078
E070000038
E070000038
E070000038
E070000038
E070000038
E070000038
F07800C078
703800E070
703C01E070
783E03C0F0
381F8FC0E0
3C0FFF81E0
1C03FE01C0
1E002003C0
0F00000780
07C0000F00
03E0003E00
01F800FC00
00FFFFF800
003FFFE000
0007FF0000
ENDCHAR
STARTCHAR 00AA
ENCODING 170
SWIDTH 360 0
DWIDTH 18 0
BBX 16 18 1 18
BITMAP
0FF8
3FFC
3FFE
781E
700E
000F
001F
07FF
3FFF
7FCF
F80F
F00F
F01F
F01F
787F
7FFF
3FE7
0F00
ENDCHAR
STARTCHAR 00AB
ENCODING 171
SWIDTH 540 0
DWIDTH 27 0
BBX 20 22 4 2
BITMAP
01C0F0
03C1E0
0781E0
0783C0
0F07C0
1F0780
3E0F00
3C1F00
7C1E00
F83E00
F87C00
F87C00
F83E00
7C3E00
3C1F00
3E0F00
1E0780
0F0780
0F83C0
0781E0
03C1E0
01C0F0
ENDCHAR
STARTCHAR 00AC
ENCODING 172
SWIDTH 580 0
DWIDTH 29 0
BBX 23 15 3 10
BITMAP
FFFFFE
FFFFFE
FFFFFE
FFFFFE
00001E
00001E
00001E
00001E
00001E
00001E
00001E
00001E
00001E
00001E
00001E
ENDCHAR
STARTCHAR 00AD
ENCODING 173
SWIDTH 320 0
DWIDTH 16 0
BBX 13 4 2 11
BITMAP
FFF8
FFF8
FFF8
FFF8
ENDCHAR
STARTCHAR 00AE
ENCODING 174
SWIDTH 720 0
DWIDTH 36 0
BBX 37 36 0 0
BITMAP
0007FF0000
003FFFE000
007FFFF000
01FC01FC00
03E0003E00
07C0001F00
0F00000780
1E000003C0
1C3FF001C0
3C3FFE01E0
383FFF80E0
783C0780F0
703C03C070
703C03C070
F03C03C078
E03C038038
E03C078038
E03FFF0038
E03FFE0038
E03FF00038
E03C3C0038
F03C1E0078
703C0E0070
703C0F0070
783C0780F0
383C0380E0
3C3C03C1E0
1C3C01E1C0
1E000003C0
0F00000780
07C0000F00
03E0003E00
01F800FC00
00FFFFF800
003FFFE000
0007FF0000
ENDCHAR
STARTCHAR 00AF
ENCODING 175
SWIDTH 540 0
DWIDTH 27 0
BBX 29 3 -1 38
BITMAP
FFFFFFF8
FFFFFFF8
FFFFFFF8
ENDCHAR
STARTCHAR 00B0
ENCODING 176
SWIDTH 400 0
DWIDTH 20 0
BBX 14 13 3 23
BITMAP
1FC0
3FF0
78F0
7038
E018
E01C
E01C
E01C
E038
7038
7FF0
3FE0
0FC0
ENDCHAR
STARTCHAR 00B1
ENCODING 177
SWIDTH 540 0
DWIDTH 27 0
BBX 24 30 2 0
BITMAP
003C00
003C00
003C00
003C00
003C00
003C00
003C00
003C00
003C00
003C00
FFFFFF
FFFFFF
FFFFFF
FFFFFF
003C00
003C00
003C00
003C00
003C00
003C00
003C00
003C00
003C00
003C00
000000
000000
FFFFFF
FFFFFF
FFFFFF
FFFFFF
ENDCHAR
STARTCHAR 00B2
ENCODING 178
SWIDTH 320 0
DWIDTH 16 0
BBX 15 18 1 18
BITMAP
0FF0
3FF8
7FFC
783E
F01E
001E
001C
003C
0078
01F0
03E0
07C0
1F80
3E00
7C00
7FFE
FFFE
FFFE
ENDCHAR
STARTCHAR 00B3
ENCODING 179
SWIDTH 320 0
DWIDTH 16 0
BBX 15 19 1 17
BITMAP
1FE0
3FF8
7FF8
783C
703C
003C
0078
03F0
03E0
03F8
003C
001E
001E
F01E
F03C
7CFC
7FF8
1FF0
0180
ENDCHAR
STARTCHAR 00B4
ENCODING 180
SWIDTH 320 0
DWIDTH 16 0
BBX 8 7 6 29
BITMAP
3F
3E
7C
7C
78
F0
E0
ENDCHAR
STARTCHAR 00B5
ENCODING 181
SWIDTH 560 0
DWIDTH 28 0
BBX 21 36 4 -10
BITMAP
F00078
F00078
F00078
F00078
F00078
F00078
F00078
F00078
F00078
F00078
F00078
F00078
F00078
F000F8
F000F8
F000F8
F000F8
F800F8
F800F8
F800F8
FC01F8
FE03F8
FF9FF8
FFFFF8
F7FF78
F3FE78
F06000
F00000
F00000
F00000
F00000
F00000
F00000
F00000
F00000
F00000
ENDCHAR
STARTCHAR 00B6
ENCODING 182
SWIDTH 520 0
DWIDTH 26 0
BBX 27 46 0 -10
BITMAP
00FFFFE0
07FFFFE0
0FFFFFE0
3FFFFFE0
3FFC1F00
7FFC1F00
7FFC1F00
FFFC1F00
FFFC1F00
FFFC1F00
FFFC1F00
FFFC1F00
FFFC1F00
FFFC1F00
7FFC1F00
7FFC1F00
3FFC1F00
1FFC1F00
0FFC1F00
03FC1F00
003C1F00
003C1F00
003C1F00
003C1F00
003C1F00
003C1F00
003C1F00
003C1F00
003C1F00
003C1F00
003C1F00
003C1F00
003C1F00
003C1F00
003C1F00
003C1F00
003C1F00
003C1F00
003C1F00
003C1F00
003C1F00
003C1F00
003C1F00
003C1F00
003C1F00
003C1F00
ENDCHAR
STARTCHAR 00B7
ENCODING 183
SWIDTH 260 0
DWIDTH 13 0
BBX 5 5 5 15
BITMAP
F8
F8
F8
F8
F8
ENDCHAR
STARTCHAR 00B8
ENCODING 184
SWIDTH 320 0
DWIDTH 16 0
BBX 10 11 3 -10
BITMAP
0E00
1E00
1C00
1F00
3F80
03C0
03C0
03C0
FFC0
FF80
FE00
ENDCHAR
STARTCHAR 00B9
ENCODING 185
SWIDTH 320 0
DWIDTH 16 0
BBX 9 18 3 18
BITMAP
0780
0F80
1F80
7F80
FF80
F780
C780
0780
0780
0780
0780
0780
0780
0780
0780
0780
0780
0780
ENDCHAR
STARTCHAR 00BA
ENCODING 186
SWIDTH 360 0
DWIDTH 18 0
BBX 16 18 1 18
BITMAP
0FF0
1FF8
3FFC
7C3E
781E
F00F
F00F
F00F
F00F
F00F
F00F
F00F
700F
781E
3E7E
3FFC
1FF8
07E0
ENDCHAR
STARTCHAR 00BB
ENCODING 187
SWIDTH 540 0
DWIDTH 27 0
BBX 20 22 4 2
BITMAP
E07800
F03C00
783C00
7C1E00
3C0F00
1E0F00
1F0780
0F07C0
0F83E0
07C3E0
07C1F0
03E1F0
07C1E0
0F83E0
0F07C0
1F0780
1E0F80
3C0F00
3C1E00
781C00
F03C00
F07800
ENDCHAR
STARTCHAR 00BC
ENCODING 188
SWIDTH 820 0
DWIDTH 41 0
BBX 38 37 3 -1
BITMAP
0780000780
0F80000780
1F80000F00
7F80001E00
FF80001C00
F780003C00
C780007800
078000F000
078000F000
078001E000
078003C000
0780038000
0780078000
07800F0000
07801E0000
07801E0000
07803C0000
0780780000
00007000E0
0000F000E0
0001E001E0
0003C003E0
0003C007E0
0007800FE0
000F001EE0
000E003EE0
001E003CE0
003C0078E0
007800F0E0
007801E0E0
00F001FFFC
01E001FFFC
01C001FFFC
03C00000E0
07800000E0
0F000000E0
0F000000E0
ENDCHAR
STARTCHAR 00BD
ENCODING 189
SWIDTH 820 0
DWIDTH 41 0
BBX 38 37 3 -1
BITMAP
0780000780
0F80000F00
1F80001E00
7F80001E00
FF80003C00
F780007800
C780007000
078000F000
078001E000
078003C000
078003C000
0780078000
07800F0000
07800E0000
07801E0000
07803C0000
0780780000
0780780000
0000F00200
0001E03FF0
0001C07FF8
0003C0F8F8
000781F07C
000F01E03C
000F00003C
001E000078
003C0000F8
00380001F0
00780003E0
00F00007C0
01E0001F80
01E0003E00
03C0007C00
078000F800
070001FFFC
0F0001FFFC
1E0001FFFC
ENDCHAR
STARTCHAR 00BE
ENCODING 190
SWIDTH 820 0
DWIDTH 41 0
BBX 40 37 1 -1
BITMAP
1FE00001E0
3FF80001E0
7FF80003C0
783C000780
703C000700
003C000F00
0078001E00
03F0003C00
03E0003C00
03F8007800
003C00F000
001E00E000
001E01E000
F01E03C000
F03C078000
7CFC078000
7FF80F0000
1FF01E0000
01801C0038
00003C0078
0000780078
0000F000F8
0000F001F8
0001E003F8
0003C007B8
0003800FB8
0007800F38
000F001E38
001E003C38
001E007838
003C007FFF
0078007FFF
0070007FFF
00F0000038
01E0000038
03C0000038
03C0000038
ENDCHAR
STARTCHAR 00BF
ENCODING 191
SWIDTH 600 0
DWIDTH 30 0
BBX 23 36 4 -10
BITMAP
007C00
007C00
007C00
007C00
007C00
000000
000000
000000
000000
007C00
007C00
007C00
007800
007800
00F800
01F800
03F000
07E000
0FC000
1F8000
3F0000
7E0000
7C0000
F80000
F80000
F00000
F0003E
F0003E
F8003C
F8007C
7C00FC
7E01F8
3F87F0
1FFFF0
0FFFC0
03FF80
ENDCHAR
STARTCHAR 00C0
ENCODING 192
SWIDTH 660 0
DWIDTH 33 0
BBX 33 45 0 0
BITMAP
001F800000
000F800000
0007C00000
0003C00000
0003E00000
0001E00000
0000F00000
0000000000
0000000000
0003E00000
0007E00000
0007F00000
000FF00000
000FF80000
000F780000
001F780000
001E7C0000
003E3C0000
003E3E0000
003C3E0000
007C1E0000
007C1F0000
00781F0000
00F80F8000
00F00F8000
01F0078000
01F007C000
01E007C000
03E003E000
03E003E000
07FFFFF000
07FFFFF000
07FFFFF000
0FFFFFF800
0F8000F800
0F0000FC00
1F00007C00
1F00007C00
3E00003E00
3E00003E00
3E00003F00
7C00001F00
7C00001F00
FC00001F80
F800000F80
ENDCHAR
STARTCHAR 00C1
ENCODING 193
SWIDTH 660 0
DWIDTH 33 0
BBX 33 45 0 0
BITMAP
0000FC0000
0000F80000
0001F00000
0001F00000
0003E00000
0003C00000
0007800000
0000000000
0000000000
0003E00000
0007E00000
0007F00000
000FF00000
000FF80000
000F780000
001F780000
001E7C0000
003E3C0000
003E3E0000
003C3E0000
007C1E0000
007C1F0000
00781F0000
00F80F8000
00F00F8000
01F0078000
01F007C000
01E007C000
03E003E000
03E003E000
07FFFFF000
07FFFFF000
07FFFFF000
0FFFFFF800
0F8000F800
0F0000FC00
1F00007C00
1F00007C00
3E00003E00
3E00003E00
3E00003F00
7C00001F00
7C00001F00
FC00001F80
F800000F80
ENDCHAR
STARTCHAR 00C2
ENCODING 194
SWIDTH 660 0
DWIDTH 33 0
BBX 33 45 0 0
BITMAP
0007E00000
0007E00000
000FF00000
001F780000
003E7C0000
003C3E0000
007C1E0000
0000000000
0000000000
0003E00000
0007E00000
0007F00000
000FF00000
000FF80000
000F780000
001F780000
001E7C0000
003E3C0000
003E3E0000
003C3E0000
007C1E0000
007C1F0000
00781F0000
00F80F8000
00F00F8000
01F0078000
01F007C000
01E007C000
03E003E000
03E003E000
07FFFFF000
07FFFFF000
07FFFFF000
0FFFFFF800
0F8000F800
0F0000FC00
1F00007C00
1F00007C00
3E00003E00
3E00003E00
3E00003F00
7C00001F00
7C00001F00
FC00001F80
F800000F80
ENDCHAR
STARTCHAR 00C3
ENCODING 195
SWIDTH 660 0
DWIDTH 33 0
BBX 33 44 0 0
BITMAP
0004038000
003F878000
007FFF8000
007FFF0000
0070FE0000
00F03C0000
0000000000
0000000000
0003E00000
0007E00000
0007F00000
000FF00000
000FF80000
000F780000
001F780000
001E7C0000
003E3C0000
003E3E0000
003C3E0000
007C1E0000
007C1F0000
00781F0000
00F80F8000
00F00F8000
01F0078000
01F007C000
01E007C000
03E003E000
03E003E000
07FFFFF000
07FFFFF000
07FFFFF000
0FFFFFF800
0F8000F800
0F0000FC00
1F00007C00
1F00007C00
3E00003E00
3E00003E00
3E00003F00
7C00001F00
7C00001F00
FC00001F80
F800000F80
ENDCHAR
STARTCHAR 00C4
ENCODING 196
SWIDTH 660 0
DWIDTH 33 0
BBX 33 43 0 0
BITMAP
007C3E0000
007C3E0000
007C3E0000
007C3E0000
007C3E0000
0000000000
0000000000
0003E00000
0007E00000
0007F00000
000FF00000
000FF80000
000F780000
001F780000
001E7C0000
003E3C0000
003E3E0000
003C3E0000
007C1E0000
007C1F0000
00781F0000
00F80F8000
00F00F8000
01F0078000
01F007C000
01E007C000
03E003E000
03E003E000
07FFFFF000
07FFFFF000
07FFFFF000
0FFFFFF800
0F8000F800
0F0000FC00
1F00007C00
1F00007C00
3E00003E00
3E00003E00
3E00003F00
7C00001F00
7C00001F00
FC00001F80
F800000F80
ENDCHAR
STARTCHAR 00C5
ENCODING 197
SWIDTH 660 0
DWIDTH 33 0
BBX 33 43 0 0
BITMAP
0007E00000
000E700000
000C300000
000C100000
000C180000
000C300000
000E700000
0007E00000
0007E00000
0007F00000
000FF00000
000FF80000
000F780000
001F780000
001E7C0000
003E3C0000
003E3E0000
003C3E0000
007C1E0000
007C1F0000
00781F0000
00F80F8000
00F00F8000
01F0078000
01F007C000
01E007C000
03E003E000
03E003E000
07FFFFF000
07FFFFF000
07FFFFF000
0FFFFFF800
0F8000F800
0F0000FC00
1F00007C00
1F00007C00
3E00003E00
3E00003E00
3E00003F00
7C00001F00
7C00001F00
FC00001F80
F800000F80
ENDCHAR
STARTCHAR 00C6
ENCODING 198
SWIDTH 1000 0
DWIDTH 50 0
BBX 47 36 0 0
BITMAP
00007FFFFFFE
00007FFFFFFE
0000FFFFFFFE
0000FFFFFFFE
0001F0F80000
0001F0F80000
0003E0F80000
0003E0F80000
0007C0F80000
0007C0F80000
000F80F80000
000F80F80000
001F00F80000
001F00F80000
003E00F80000
003E00FFFFF8
007C00FFFFF8
007C00FFFFF8
00F800FFFFF8
00F800FFFFF8
01F800F80000
01FFFFF80000
03FFFFF80000
03FFFFF80000
03FFFFF80000
07FFFFF80000
07C000F80000
0F8000F80000
0F8000F80000
1F0000F80000
1F0000F80000
3E0000F80000
3E0000FFFFFE
7C0000FFFFFE
7C0000FFFFFE
F80000FFFFFE
ENDCHAR
STARTCHAR 00C7
ENCODING 199
SWIDTH 720 0
DWIDTH 36 0
BBX 32 46 2 -10
BITMAP
000FFE00
007FFF80
00FFFFE0
03FFFFF0
07F803F8
0FE001F8
0F8000FC
1F00007E
3F00003E
3E00003E
3E000018
7C000000
7C000000
7C000000
7C000000
78000000
F8000000
F8000000
F8000000
78000000
78000000
7C000000
7C000000
7C000010
7C00001F
3E00001F
3E00003F
3F00003E
1F00007E
1F8000FC
0FC001FC
07F003F8
03FF3FF0
01FFFFE0
00FFFF80
003FFE00
0003E000
00038000
0007E000
0007F000
00007800
00007800
0000F800
001FF800
001FF000
001FC000
ENDCHAR
STARTCHAR 00C8
ENCODING 200
SWIDTH 660 0
DWIDTH 33 0
BBX 27 45 4 0
BITMAP
00FC0000
007C0000
007E0000
003E0000
001F0000
000F0000
00078000
00000000
00000000
FFFFFFC0
FFFFFFC0
FFFFFFC0
FFFFFFC0
F8000000
F8000000
F8000000
F8000000
F8000000
F8000000
F8000000
F8000000
F8000000
F8000000
F8000000
FFFFFF00
FFFFFF00
FFFFFF00
FFFFFF00
FFFFFF00
F8000000
F8000000
F8000000
F8000000
F8000000
F8000000
F8000000
F8000000
F8000000
F8000000
F8000000
F8000000
FFFFFFE0
FFFFFFE0
FFFFFFE0
FFFFFFE0
ENDCHAR
STARTCHAR 00C9
ENCODING 201
SWIDTH 660 0
DWIDTH 33 0
BBX 27 45 4 0
BITMAP
0007C000
000FC000
000F8000
001F0000
001E0000
003E0000
003C0000
00000000
00000000
FFFFFFC0
FFFFFFC0
FFFFFFC0
FFFFFFC0
F8000000
F8000000
F8000000
F8000000
F8000000
F8000000
F8000000
F8000000
F8000000
F8000000
F8000000
FFFFFF00
FFFFFF00
FFFFFF00
FFFFFF00
FFFFFF00
F8000000
F8000000
F8000000
F8000000
F8000000
F8000000
F8000000
F8000000
F8000000
F8000000
F8000000
F8000000
FFFFFFE0
FFFFFFE0
FFFFFFE0
FFFFFFE0
ENDCHAR
STARTCHAR 00CA
ENCODING 202
SWIDTH 660 0
DWIDTH 33 0
BBX 27 45 4 0
BITMAP
003F0000
003F8000
007F8000
00FBC000
01F3E000
01F1F000
03E0F800
00000000
00000000
FFFFFFC0
FFFFFFC0
FFFFFFC0
FFFFFFC0
F8000000
F8000000
F8000000
F8000000
F8000000
F8000000
F8000000
F8000000
F8000000
F8000000
F8000000
FFFFFF00
FFFFFF00
FFFFFF00
FFFFFF00
FFFFFF00
F8000000
F8000000
F8000000
F8000000
F8000000
F8000000
F8000000
F8000000
F8000000
F8000000
F8000000
F8000000
FFFFFFE0
FFFFFFE0
FFFFFFE0
FFFFFFE0
ENDCHAR
STARTCHAR 00CB
ENCODING 203
SWIDTH 660 0
DWIDTH 33 0
BBX 27 43 4 0
BITMAP
03E1F000
03E1F000
03E1F000
03E1F000
03E1F000
00000000
00000000
FFFFFFC0
FFFFFFC0
FFFFFFC0
FFFFFFC0
F8000000
F8000000
F8000000
F8000000
F8000000
F8000000
F8000000
F8000000
F8000000
F8000000
F8000000
FFFFFF00
FFFFFF00
FFFFFF00
FFFFFF00
FFFFFF00
F8000000
F8000000
F8000000
F8000000
F8000000
F8000000
F8000000
F8000000
F8000000
F8000000
F8000000
F8000000
FFFFFFE0
FFFFFFE0
FFFFFFE0
FFFFFFE0
ENDCHAR
STARTCHAR 00CC
ENCODING 204
SWIDTH 260 0
DWIDTH 13 0
BBX 8 45 2 0
BITMAP
F8
FC
7C
3E
1E
0F
07
00
00
1E
1E
1E
1E
1E
1E
1E
1E
1E
1E
1E
1E
1E
1E
1E
1E
1E
1E
1E
1E
1E
1E
1E
1E
1E
1E
1E
1E
1E
1E
1E
1E
1E
1E
1E
1E
ENDCHAR
STARTCHAR 00CD
ENCODING 205
SWIDTH 260 0
DWIDTH 13 0
BBX 8 45 4 0
BITMAP
1F
3E
3E
7C
78
F0
E0
00
00
78
78
78
78
78
78
78
78
78
78
78
78
78
78
78
78
78
78
78
78
78
78
78
78
78
78
78
78
78
78
78
78
78
78
78
78
ENDCHAR
STARTCHAR 00CE
ENCODING 206
SWIDTH 260 0
DWIDTH 13 0
BBX 14 45 0 0
BITMAP
0F80
1FC0
1FE0
3FF0
7CF8
F878
F87C
0000
0000
0780
0780
0780
0780
0780
0780
0780
0780
0780
0780
0780
0780
0780
0780
0780
0780
0780
0780
0780
0780
0780
0780
0780
0780
0780
0780
0780
0780
0780
0780
0780
0780
0780
0780
0780
0780
ENDCHAR
STARTCHAR 00CF
ENCODING 207
SWIDTH 260 0
DWIDTH 13 0
BBX 14 43 0 0
BITMAP
F87C
F87C
F87C
F87C
F87C
0000
0000
0780
0780
0780
0780
0780
0780
0780
0780
0780
0780
0780
0780
0780
0780
0780
0780
0780
0780
0780
0780
0780
0780
0780
0780
0780
0780
0780
0780
0780
0780
0780
0780
0780
0780
0780
0780
ENDCHAR
STARTCHAR 00D0
ENCODING 208
SWIDTH 720 0
DWIDTH 36 0
BBX 33 36 0 0
BITMAP
0FFFF80000
0FFFFF8000
0FFFFFE000
0FFFFFF000
0F807FF800
0F8001FC00
0F8000FE00
0F80003E00
0F80003F00
0F80001F00
0F80001F00
0F80000F80
0F80000F80
0F80000F80
0F80000F80
0F80000F80
FFFFC00780
FFFFC00780
FFFFC00780
FFFFC00F80
0F80000F80
0F80000F80
0F80000F80
0F80000F80
0F80000F80
0F80001F00
0F80001F00
0F80003F00
0F80003E00
0F80007E00
0F8001FC00
0F800FF800
0FFFFFF000
0FFFFFE000
0FFFFF8000
0FFFFC0000
ENDCHAR
STARTCHAR 00D1
ENCODING 209
SWIDTH 720 0
DWIDTH 36 0
BBX 28 44 4 0
BITMAP
00100E00
00FE1E00
01FFFE00
01FFFC00
01C3F800
03C0F000
00000000
00000000
F80001F0
FC0001F0
FC0001F0
FE0001F0
FF0001F0
FF0001F0
FF8001F0
FFC001F0
F7C001F0
F7E001F0
F3F001F0
F1F001F0
F1F801F0
F0FC01F0
F07C01F0
F07E01F0
F03F01F0
F01F01F0
F01F81F0
F00FC1F0
F007C1F0
F007E1F0
F003F1F0
F001F1F0
F001F9F0
F000FDF0
F0007DF0
F0007FF0
F0003FF0
F0001FF0
F0001FF0
F0000FF0
F00007F0
F00007F0
F00003F0
F00001F0
ENDCHAR
STARTCHAR 00D2
ENCODING 210
SWIDTH 760 0
DWIDTH 38 0
BBX 35 46 2 -1
BITMAP
001F800000
000FC00000
0007C00000
0003E00000
0001E00000
0000F00000
0000F00000
0000000000
0000000000
000FFE0000
007FFFC000
00FFFFE000
03FFFFF800
07F803FC00
0FE000FE00
0FC0007E00
1F80003F00
3F00001F80
3E00000F80
3E00000F80
7C000007C0
7C000007C0
7C000007C0
7C000007C0
78000003C0
F8000003E0
F8000003E0
F8000003E0
F8000003E0
78000003E0
78000003C0
7C000007C0
7C000007C0
7C000007C0
3E00000F80
3E00000F80
3F00001F80
1F00001F00
0F80003E00
0FE000FE00
07F001FC00
03FFBFF800
01FFFFF000
007FFFC000
001FFF0000
0000E00000
ENDCHAR
STARTCHAR 00D3
ENCODING 211
SWIDTH 760 0
DWIDTH 38 0
BBX 35 46 2 -1
BITMAP
00003E0000
00007E0000
00007C0000
0000F80000
0000F00000
0001E00000
0001E00000
0000000000
0000000000
000FFE0000
007FFFC000
00FFFFE000
03FFFFF800
07F803FC00
0FE000FE00
0FC0007E00
1F80003F00
3F00001F80
3E00000F80
3E00000F80
7C000007C0
7C000007C0
7C000007C0
7C000007C0
78000003C0
F8000003E0
F8000003E0
F8000003E0
F8000003E0
78000003E0
78000003C0
7C000007C0
7C000007C0
7C000007C0
3E00000F80
3E00000F80
3F00001F80
1F00001F00
0F80003E00
0FE000FE00
07F001FC00
03FFBFF800
01FFFFF000
007FFFC000
001FFF0000
0000E00000
ENDCHAR
STARTCHAR 00D4
ENCODING 212
SWIDTH 760 0
DWIDTH 38 0
BBX 35 46 2 -1
BITMAP
0001F00000
0003F80000
0007FC0000
000FBC0000
000F1E0000
001F1F0000
003E0F8000
0000000000
0000000000
000FFE0000
007FFFC000
00FFFFE000
03FFFFF800
07F803FC00
0FE000FE00
0FC0007E00
1F80003F00
3F00001F80
3E00000F80
3E00000F80
7C000007C0
7C000007C0
7C000007C0
7C000007C0
78000003C0
F8000003E0
F8000003E0
F8000003E0
F8000003E0
78000003E0
78000003C0
7C000007C0
7C000007C0
7C000007C0
3E00000F80
3E00000F80
3F00001F80
1F00001F00
0F80003E00
0FE000FE00
07F001FC00
03FFBFF800
01FFFFF000
007FFFC000
001FFF0000
0000E00000
ENDCHAR
STARTCHAR 00D5
ENCODING 213
SWIDTH 760 0
DWIDTH 38 0
BBX 35 45 2 -1
BITMAP
000203C000
001FC3C000
003FFF8000
003FFF8000
00787F0000
00781E0000
0000000000
0000000000
000FFE0000
007FFFC000
00FFFFE000
03FFFFF800
07F803FC00
0FE000FE00
0FC0007E00
1F80003F00
3F00001F80
3E00000F80
3E00000F80
7C000007C0
7C000007C0
7C000007C0
7C000007C0
78000003C0
F8000003E0
F8000003E0
F8000003E0
F8000003E0
78000003E0
78000003C0
7C000007C0
7C000007C0
7C000007C0
3E00000F80
3E00000F80
3F00001F80
1F00001F00
0F80003E00
0FE000FE00
07F001FC00
03FFBFF800
01FFFFF000
007FFFC000
001FFF0000
0000E00000
ENDCHAR
STARTCHAR 00D6
ENCODING 214
SWIDTH 760 0
DWIDTH 38 0
BBX 35 44 2 -1
BITMAP
001E0F0000
001E0F0000
001E0F0000
001E0F0000
001E0F0000
0000000000
0000000000
000FFE0000
007FFFC000
00FFFFE000
03FFFFF800
07F803FC00
0FE000FE00
0FC0007E00
1F80003F00
3F00001F80
3E00000F80
3E00000F80
7C000007C0
7C000007C0
7C000007C0
7C000007C0
78000003C0
F8000003E0
F8000003E0
F8000003E0
F8000003E0
78000003E0
78000003C0
7C000007C0
7C000007C0
7C000007C0
3E00000F80
3E00000F80
3F00001F80
1F00001F00
0F80003E00
0FE000FE00
07F001FC00
03FFBFF800
01FFFFF000
007FFFC000
001FFF0000
0000E00000
ENDCHAR
STARTCHAR 00D7
ENCODING 215
SWIDTH 580 0
DWIDTH 29 0
BBX 21 21 4 7
BITMAP
300060
7800F0
FC01F8
7E03F0
3F07E0
1F8FC0
0FDF80
07FF00
03FE00
01FC00
01FC00
03FE00
07FF00
0FDF80
1F8FC0
3F07E0
7E03F0
FC01F8
F800F8
700070
200020
ENDCHAR
STARTCHAR 00D8
ENCODING 216
SWIDTH 760 0
DWIDTH 38 0
BBX 35 38 2 -1
BITMAP
0000000080
000FFE01E0
007FFFC3E0
00FFFFE7C0
03FFFFFF80
07F803FF00
0FE000FE00
0FC0007E00
1F00007F00
3F0000FF00
3E0001EF80
3E0003EF80
7C0007C7C0
7C000F87C0
7C000F07C0
78001E07C0
F8003C07C0
F8007803C0
F800F003E0
F801E003E0
F803C003E0
F807C003C0
780F8007C0
7C0F0007C0
7C1E0007C0
7C3C0007C0
3E78000F80
3EF0000F80
3FE0001F80
1FC0003F00
0FC0007E00
0FE000FE00
1FF001FC00
1FFFBFF800
3DFFFFF000
787FFFC000
F01FFF0000
6000E00000
ENDCHAR
STARTCHAR 00D9
ENCODING 217
SWIDTH 720 0
DWIDTH 36 0
BBX 28 46 4 -1
BITMAP
00FC0000
007C0000
003E0000
003E0000
001F0000
000F0000
00078000
00000000
00000000
F80001F0
F80001F0
F80001F0
F80001F0
F80001F0
F80001F0
F80001F0
F80001F0
F80001F0
F80001F0
F80001F0
F80001F0
F80001F0
F80001F0
F80001F0
F80001F0
F80001F0
F80001F0
F80001F0
F80001F0
F80001F0
F80001F0
F80001F0
F80001F0
F80001F0
F80001F0
F80001F0
780003E0
7C0003E0
7E0007E0
3F0007C0
3F801FC0
1FFFFF80
0FFFFF00
07FFFE00
01FFF800
00078000
ENDCHAR
STARTCHAR 00DA
ENCODING 218
SWIDTH 720 0
DWIDTH 36 0
BBX 28 46 4 -1
BITMAP
0003F000
0003E000
0007C000
00078000
000F8000
000F0000
001E0000
00000000
00000000
F80001F0
F80001F0
F80001F0
F80001F0
F80001F0
F80001F0
F80001F0
F80001F0
F80001F0
F80001F0
F80001F0
F80001F0
F80001F0
F80001F0
F80001F0
F80001F0
F80001F0
F80001F0
F80001F0
F80001F0
F80001F0
F80001F0
F80001F0
F80001F0
F80001F0
F80001F0
F80001F0
780003E0
7C0003E0
7E0007E0
3F0007C0
3F801FC0
1FFFFF80
0FFFFF00
07FFFE00
01FFF800
00078000
ENDCHAR
STARTCHAR 00DB
ENCODING 219
SWIDTH 720 0
DWIDTH 36 0
BBX 28 46 4 -1
BITMAP
001F0000
003F8000
003FC000
007FE000
00F9F000
01F0F000
01F0F800
00000000
00000000
F80001F0
F80001F0
F80001F0
F80001F0
F80001F0
F80001F0
F80001F0
F80001F0
F80001F0
F80001F0
F80001F0
F80001F0
F80001F0
F80001F0
F80001F0
F80001F0
F80001F0
F80001F0
F80001F0
F80001F0
F80001F0
F80001F0
F80001F0
F80001F0
F80001F0
F80001F0
F80001F0
780003E0
7C0003E0
7E0007E0
3F0007C0
3F801FC0
1FFFFF80
0FFFFF00
07FFFE00
01FFF800
00078000
ENDCHAR
STARTCHAR 00DC
ENCODING 220
SWIDTH 720 0
DWIDTH 36 0
BBX 28 44 4 -1
BITMAP
01F0F800
01F0F800
01F0F800
01F0F800
01F0F800
00000000
00000000
F80001F0
F80001F0
F80001F0
F80001F0
F80001F0
F80001F0
F80001F0
F80001F0
F80001F0
F80001F0
F80001F0
F80001F0
F80001F0
F80001F0
F80001F0
F80001F0
F80001F0
F80001F0
F80001F0
F80001F0
F80001F0
F80001F0
F80001F0
F80001F0
F80001F0
F80001F0
F80001F0
780003E0
7C0003E0
7E0007E0
3F0007C0
3F801FC0
1FFFFF80
0FFFFF00
07FFFE00
01FFF800
00078000
ENDCHAR
STARTCHAR 00DD
ENCODING 221
SWIDTH 660 0
DWIDTH 33 0
BBX 33 45 0 0
BITMAP
00007C0000
0000FC0000
0000F80000
0001F00000
0001E00000
0003C00000
0003C00000
0000000000
0000000000
FC00001F80
7E00001F00
3E00003E00
3F00007E00
1F80007C00
0F8000F800
0FC001F800
07E001F000
03E003E000
03F007E000
01F807C000
00F80F8000
00FC1F0000
007E1F0000
003E3E0000
003F3C0000
001F7C0000
000FF80000
000FF00000
0007F00000
0003E00000
0003E00000
0003E00000
0003E00000
0003E00000
0003E00000
0003E00000
0003E00000
0003E00000
0003E00000
0003E00000
0003E00000
0003E00000
0003E00000
0003E00000
0003E00000
ENDCHAR
STARTCHAR 00DE
ENCODING 222
SWIDTH 660 0
DWIDTH 33 0
BBX 27 36 4 0
BITMAP
F8000000
F8000000
F8000000
F8000000
F8000000
F8000000
F8000000
FFFE0000
FFFFF800
FFFFFE00
FFFFFF00
FFFFFF80
F8001FC0
F80007C0
F80007E0
F80003E0
F80003E0
F80003E0
F80003E0
F80003E0
F80003E0
F80007E0
F80007C0
F8001FC0
FFFFFF80
FFFFFF00
FFFFFE00
FFFFF800
FFFFC000
F8000000
F8000000
F8000000
F8000000
F8000000
F8000000
F8000000
ENDCHAR
STARTCHAR 00DF
ENCODING 223
SWIDTH 600 0
DWIDTH 30 0
BBX 25 37 4 -1
BITMAP
07FE0000
0FFF8000
3FFFC000
3F0FC000
7C03E000
F801E000
F801E000
F801E000
F001E000
F003E000
F003C000
F007C000
F0078000
F00F8000
F00F0000
F01F0000
F01F0000
F01F0000
F01F0000
F00FC000
F00FE000
F007F800
F001FC00
F000FE00
F0007F00
F0001F00
F0000F80
F0000F80
F0000F80
F0200F80
F0F00F80
F0F81F00
F0FC3F00
F07FFE00
F03FFC00
F01FF800
00018000
ENDCHAR
STARTCHAR 00E0
ENCODING 224
SWIDTH 540 0
DWIDTH 27 0
BBX 23 37 2 -1
BITMAP
01F000
01F800
00F800
007C00
003C00
001E00
000E00
000000
000000
001800
03FFC0
0FFFF0
1FFFF8
3F83FC
3E00FC
7C007C
78003C
78003C
00003C
00003C
0003FC
01FFFC
0FFFFC
3FFF3C
7FF03C
7E003C
F8003C
F8003C
F8007C
F8007C
F800FC
F801FC
7E07FE
7FFFBE
3FFF1E
1FFC1E
01C000
ENDCHAR
STARTCHAR 00E1
ENCODING 225
SWIDTH 540 0
DWIDTH 27 0
BBX 23 37 2 -1
BITMAP
000FC0
000F80
001F00
001F00
003E00
003C00
007800
000000
000000
001800
03FFC0
0FFFF0
1FFFF8
3F83FC
3E00FC
7C007C
78003C
78003C
00003C
00003C
0003FC
01FFFC
0FFFFC
3FFF3C
7FF03C
7E003C
F8003C
F8003C
F8007C
F8007C
F800FC
F801FC
7E07FE
7FFFBE
3FFF1E
1FFC1E
01C000
ENDCHAR
STARTCHAR 00E2
ENCODING 226
SWIDTH 540 0
DWIDTH 27 0
BBX 23 37 2 -1
BITMAP
007C00
00FE00
01FF00
01EF80
03E7C0
07C3C0
0F83E0
000000
000000
001800
03FFC0
0FFFF0
1FFFF8
3F83FC
3E00FC
7C007C
78003C
78003C
00003C
00003C
0003FC
01FFFC
0FFFFC
3FFF3C
7FF03C
7E003C
F8003C
F8003C
F8007C
F8007C
F800FC
F801FC
7E07FE
7FFFBE
3FFF1E
1FFC1E
01C000
ENDCHAR
STARTCHAR 00E3
ENCODING 227
SWIDTH 540 0
DWIDTH 27 0
BBX 23 36 2 -1
BITMAP
03F070
07FCF0
0FFFE0
0E3FE0
0E0FC0
000000
000000
000000
001800
03FFC0
0FFFF0
1FFFF8
3F83FC
3E00FC
7C007C
78003C
78003C
00003C
00003C
0003FC
01FFFC
0FFFFC
3FFF3C
7FF03C
7E003C
F8003C
F8003C
F8007C
F8007C
F800FC
F801FC
7E07FE
7FFFBE
3FFF1E
1FFC1E
01C000
ENDCHAR
STARTCHAR 00E4
ENCODING 228
SWIDTH 540 0
DWIDTH 27 0
BBX 23 37 2 -1
BITMAP
07C3E0
07C3E0
07C3E0
07C3E0
07C3E0
000000
000000
000000
000000
001800
03FFC0
0FFFF0
1FFFF8
3F83FC
3E00FC
7C007C
78003C
78003C
00003C
00003C
0003FC
01FFFC
0FFFFC
3FFF3C
7FF03C
7E003C
F8003C
F8003C
F8007C
F8007C
F800FC
F801FC
7E07FE
7FFFBE
3FFF1E
1FFC1E
01C000
ENDCHAR
STARTCHAR 00E5
ENCODING 229
SWIDTH 540 0
DWIDTH 27 0
BBX 23 38 2 -1
BITMAP
003C00
00FE00
00C300
018300
018300
018300
00C700
007E00
003C00
000000
001800
03FFC0
0FFFF0
1FFFF8
3F83FC
3E00FC
7C007C
78003C
78003C
00003C
00003C
0003FC
01FFFC
0FFFFC
3FFF3C
7FF03C
7E003C
F8003C
F8003C
F8007C
F8007C
F800FC
F801FC
7E07FE
7FFFBE
3FFF1E
1FFC1E
01C000
ENDCHAR
STARTCHAR 00E6
ENCODING 230
SWIDTH 880 0
DWIDTH 44 0
BBX 40 28 2 -1
BITMAP
0010000C00
03FFC0FFC0
0FFFE3FFF0
1FFFF7FFF8
3F83FFE1FC
7C00FF807C
7C007E003E
78007E001E
F8007C001F
00007C000F
00007C000F
0003FC000F
01FFFFFFFF
0FFFFFFFFF
3FFF7FFFFF
7FE07C0000
7E007C0000
F8007C0000
F8007C0000
F0007C001F
F000FE001F
F800FE003E
F801FF807E
FC07CFC0FC
7FFF87FFF8
3FFF03FFF0
1FFC00FFC0
0180000C00
ENDCHAR
STARTCHAR 00E7
ENCODING 231
SWIDTH 500 0
DWIDTH 25 0
BBX 22 37 2 -10
BITMAP
001800
01FF80
07FFE0
0FFFF0
1FC3F0
3F00F8
7E0078
7C007C
78003C
F80000
F80000
F80000
F80000
F00000
F00000
F80000
F80000
F80000
F8003C
78003C
7C007C
7C007C
3E00F8
1F83F0
0FFFE0
07FFC0
03FF80
007800
007000
00FC00
003E00
000F00
000F00
003F00
03FE00
07FC00
07E000
ENDCHAR
STARTCHAR 00E8
ENCODING 232
SWIDTH 540 0
DWIDTH 27 0
BBX 24 37 2 -1
BITMAP
03F000
01F000
00F800
00F800
007C00
003C00
001E00
000000
000000
001800
01FF80
07FFE0
0FFFF0
1FC3F8
3F00FC
7E007C
7C003E
78003E
F8001E
F8001E
F8001F
FFFFFF
FFFFFF
FFFFFF
F00000
F00000
F80000
F80000
78001F
7C003E
7E003E
3F007C
1FC1FC
0FFFF8
07FFE0
01FFC0
001C00
ENDCHAR
STARTCHAR 00E9
ENCODING 233
SWIDTH 540 0
DWIDTH 27 0
BBX 24 37 2 -1
BITMAP
000FC0
000F80
001F00
001F00
003E00
003C00
003800
000000
000000
001800
01FF80
07FFE0
0FFFF0
1FC3F8
3F00FC
7E007C
7C003E
78003E
F8001E
F8001E
F8001F
FFFFFF
FFFFFF
FFFFFF
F00000
F00000
F80000
F80000
78001F
7C003E
7E003E
3F007C
1FC1FC
0FFFF8
07FFE0
01FFC0
001C00
ENDCHAR
STARTCHAR 00EA
ENCODING 234
SWIDTH 540 0
DWIDTH 27 0
BBX 24 37 2 -1
BITMAP
007C00
00FE00
01FF00
01EF80
03E7C0
07C3C0
0F83E0
000000
000000
001800
01FF80
07FFE0
0FFFF0
1FC3F8
3F00FC
7E007C
7C003E
78003E
F8001E
F8001E
F8001F
FFFFFF
FFFFFF
FFFFFF
F00000
F00000
F80000
F80000
78001F
7C003E
7E003E
3F007C
1FC1FC
0FFFF8
07FFE0
01FFC0
001C00
ENDCHAR
STARTCHAR 00EB
ENCODING 235
SWIDTH 540 0
DWIDTH 27 0
BBX 24 37 2 -1
BITMAP
07C3E0
07C3E0
07C3E0
07C3E0
07C3E0
000000
000000
000000
000000
001800
01FF80
07FFE0
0FFFF0
1FC3F8
3F00FC
7E007C
7C003E
78003E
F8001E
F8001E
F8001F
FFFFFF
FFFFFF
FFFFFF
F00000
F00000
F80000
F80000
78001F
7C003E
7E003E
3F007C
1FC1FC
0FFFF8
07FFE0
01FFC0
001C00
ENDCHAR
STARTCHAR 00EC
ENCODING 236
SWIDTH 260 0
DWIDTH 13 0
BBX 9 36 1 0
BITMAP
FC00
7C00
3E00
1E00
0F00
0F00
0780
0000
0000
0000
0F00
0F00
0F00
0F00
0F00
0F00
0F00
0F00
0F00
0F00
0F00
0F00
0F00
0F00
0F00
0F00
0F00
0F00
0F00
0F00
0F00
0F00
0F00
0F00
0F00
0F00
ENDCHAR
STARTCHAR 00ED
ENCODING 237
SWIDTH 260 0
DWIDTH 13 0
BBX 8 36 5 0
BITMAP
1F
3E
3E
7C
78
F0
F0
00
00
00
F0
F0
F0
F0
F0
F0
F0
F0
F0
F0
F0
F0
F0
F0
F0
F0
F0
F0
F0
F0
F0
F0
F0
F0
F0
F0
ENDCHAR
STARTCHAR 00EE
ENCODING 238
SWIDTH 260 0
DWIDTH 13 0
BBX 15 36 0 0
BITMAP
0FC0
0FE0
1FF0
3EF0
7C78
7C7C
F83E
0000
0000
0000
0780
0780
0780
0780
0780
0780
0780
0780
0780
0780
0780
0780
0780
0780
0780
0780
0780
0780
0780
0780
0780
0780
0780
0780
0780
0780
ENDCHAR
STARTCHAR 00EF
ENCODING 239
SWIDTH 260 0
DWIDTH 13 0
BBX 14 36 0 0
BITMAP
F87C
F87C
F87C
F87C
F87C
0000
0000
0000
0000
0000
0780
0780
0780
0780
0780
0780
0780
0780
0780
0780
0780
0780
0780
0780
0780
0780
0780
0780
0780
0780
0780
0780
0780
0780
0780
0780
ENDCHAR
STARTCHAR 00F0
ENCODING 240
SWIDTH 540 0
DWIDTH 27 0
BBX 24 37 2 -1
BITMAP
03E020
01F0F0
007FF0
003FE0
003F00
00FF80
03F780
07C3C0
0703E0
0001F0
00FDF0
07FFF8
0FFFF8
1FEFFC
3F01FC
7E007C
7C007E
78003E
F8001E
F8001E
F0001F
F0001F
F0001F
F0001F
F0001F
F0001F
F8001F
F8001E
F8003E
7C003E
7C007C
3E00FC
1F83F8
1FFFF0
07FFE0
03FF80
001800
ENDCHAR
STARTCHAR 00F1
ENCODING 241
SWIDTH 540 0
DWIDTH 27 0
BBX 21 35 3 0
BITMAP
03E0F0
07FDE0
0FFFE0
0E3FE0
1E0F80
000000
000000
000000
000800
F0FF80
F3FFE0
F7FFF0
FFC7F0
FE01F8
FC00F8
FC0078
F80078
F80078
F80078
F80078
F80078
F80078
F80078
F80078
F80078
F80078
F80078
F80078
F80078
F80078
F80078
F80078
F80078
F80078
F80078
ENDCHAR
STARTCHAR 00F2
ENCODING 242
SWIDTH 540 0
DWIDTH 27 0
BBX 24 37 2 -1
BITMAP
03F000
01F000
00F800
00F800
007C00
003C00
001E00
000000
000000
001800
01FF80
07FFE0
0FFFF0
1FC3F8
3E00FC
7C007C
7C003E
F8003E
F8001E
F8001F
F0001F
F0001F
F0001F
F0001F
F0001F
F0001F
F0001F
F8001F
F8003E
7C003E
7C007C
3E00FC
3F83F8
1FFFF0
07FFE0
03FF80
001800
ENDCHAR
STARTCHAR 00F3
ENCODING 243
SWIDTH 540 0
DWIDTH 27 0
BBX 24 37 2 -1
BITMAP
000FC0
000F80
001F00
001F00
003E00
003C00
003800
000000
000000
001800
01FF80
07FFE0
0FFFF0
1FC3F8
3E00FC
7C007C
7C003E
F8003E
F8001E
F8001F
F0001F
F0001F
F0001F
F0001F
F0001F
F0001F
F0001F
F8001F
F8003E
7C003E
7C007C
3E00FC
3F83F8
1FFFF0
07FFE0
03FF80
001800
ENDCHAR
STARTCHAR 00F4
ENCODING 244
SWIDTH 540 0
DWIDTH 27 0
BBX 24 37 2 -1
BITMAP
007C00
00FE00
01FF00
01EF80
03E7C0
07C3C0
0F83E0
000000
000000
001800
01FF80
07FFE0
0FFFF0
1FC3F8
3E00FC
7C007C
7C003E
F8003E
F8001E
F8001F
F0001F
F0001F
F0001F
F0001F
F0001F
F0001F
F0001F
F8001F
F8003E
7C003E
7C007C
3E00FC
3F83F8
1FFFF0
07FFE0
03FF80
001800
ENDCHAR
STARTCHAR 00F5
ENCODING 245
SWIDTH 540 0
DWIDTH 27 0
BBX 24 36 2 -1
BITMAP
03F070
07FCF0
0FFFE0
0E1FE0
0E07C0
000000
000000
000000
001800
01FF80
07FFE0
0FFFF0
1FC3F8
3E00FC
7C007C
7C003E
F8003E
F8001E
F8001F
F0001F
F0001F
F0001F
F0001F
F0001F
F0001F
F0001F
F8001F
F8003E
7C003E
7C007C
3E00FC
3F83F8
1FFFF0
07FFE0
03FF80
001800
ENDCHAR
STARTCHAR 00F6
ENCODING 246
SWIDTH 540 0
DWIDTH 27 0
BBX 24 37 2 -1
BITMAP
07C3E0
07C3E0
07C3E0
07C3E0
07C3E0
000000
000000
000000
000000
001800
01FF80
07FFE0
0FFFF0
1FC3F8
3E00FC
7C007C
7C003E
F8003E
F8001E
F8001F
F0001F
F0001F
F0001F
F0001F
F0001F
F0001F
F0001F
F8001F
F8003E
7C003E
7C007C
3E00FC
3F83F8
1FFFF0
07FFE0
03FF80
001800
ENDCHAR
STARTCHAR 00F7
ENCODING 247
SWIDTH 540 0
DWIDTH 27 0
BBX 24 20 2 8
BITMAP
007C00
007C00
007C00
007C00
007C00
000000
000000
000000
FFFFFF
FFFFFF
FFFFFF
FFFFFF
000000
000000
000000
007C00
007C00
007C00
007C00
007C00
ENDCHAR
STARTCHAR 00F8
ENCODING 248
SWIDTH 600 0
DWIDTH 30 0
BBX 24 29 3 -1
BITMAP
000006
01FF8F
07FFEE
0FFFFC
1FC3FC
3F00FC
3E00FE
7C00FE
7C01FF
7803DF
F8078F
F8070F
F80F0F
F81E0F
F83C0F
F8380F
F8700F
F8F00F
79E01F
7FC01F
7F803E
3F803E
3F007C
1FC1FC
1FFFF8
3FFFE0
79FFC0
702800
200000
ENDCHAR
STARTCHAR 00F9
ENCODING 249
SWIDTH 540 0
DWIDTH 27 0
BBX 21 37 3 -1
BITMAP
03F000
01F000
00F800
00F800
007C00
003C00
001E00
000000
000000
000000
F80078
F80078
F80078
F80078
F80078
F80078
F80078
F80078
F80078
F80078
F80078
F80078
F80078
F80078
F80078
F80078
F80078
F80078
F800F8
F800F8
7801F8
7C03F8
7F0FF8
3FFF78
1FFE78
0FFC78
01C000
ENDCHAR
STARTCHAR 00FA
ENCODING 250
SWIDTH 540 0
DWIDTH 27 0
BBX 21 37 3 -1
BITMAP
001F80
001F00
003E00
003C00
007C00
007800
00F000
000000
000000
000000
F80078
F80078
F80078
F80078
F80078
F80078
F80078
F80078
F80078
F80078
F80078
F80078
F80078
F80078
F80078
F80078
F80078
F80078
F800F8
F800F8
7801F8
7C03F8
7F0FF8
3FFF78
1FFE78
0FFC78
01C000
ENDCHAR
STARTCHAR 00FB
ENCODING 251
SWIDTH 540 0
DWIDTH 27 0
BBX 21 37 3 -1
BITMAP
00F800
01FC00
03FE00
03DF00
07CF80
0F8780
1F07C0
000000
000000
000000
F80078
F80078
F80078
F80078
F80078
F80078
F80078
F80078
F80078
F80078
F80078
F80078
F80078
F80078
F80078
F80078
F80078
F80078
F800F8
F800F8
7801F8
7C03F8
7F0FF8
3FFF78
1FFE78
0FFC78
01C000
ENDCHAR
STARTCHAR 00FC
ENCODING 252
SWIDTH 540 0
DWIDTH 27 0
BBX 21 37 3 -1
BITMAP
0F07C0
0F07C0
0F07C0
0F07C0
0F07C0
000000
000000
000000
000000
000000
F80078
F80078
F80078
F80078
F80078
F80078
F80078
F80078
F80078
F80078
F80078
F80078
F80078
F80078
F80078
F80078
F80078
F80078
F800F8
F800F8
7801F8
7C03F8
7F0FF8
3FFF78
1FFE78
0FFC78
01C000
ENDCHAR
STARTCHAR 00FD
ENCODING 253
SWIDTH 500 0
DWIDTH 25 0
BBX 23 46 1 -11
BITMAP
000FC0
000F80
001F00
001F00
003E00
003C00
007800
000000
000000
000000
F8001E
F8001E
78003E
7C003C
7C003C
3C007C
3E0078
1E00F8
1F00F0
1F00F0
0F01F0
0F81E0
0781E0
0783E0
07C3C0
03C7C0
03C780
03E780
01EF80
01EF00
00FF00
00FF00
00FE00
007E00
007C00
007C00
007C00
007800
007800
00F800
00F000
01F000
3FE000
3FE000
3FC000
3F8000
ENDCHAR
STARTCHAR 00FE
ENCODING 254
SWIDTH 540 0
DWIDTH 27 0
BBX 23 46 3 -10
BITMAP
F80000
F80000
F80000
F80000
F80000
F80000
F80000
F80000
F80000
F81800
F9FF00
FBFFC0
FFFFE0
FF83F0
FE01F8
FC00F8
FC007C
F8007C
F8003C
F8003E
F0003E
F0003E
F0003E
F0003E
F0003E
F0003E
F8003C
F8003C
F8007C
FC007C
FC00F8
FE01F8
FF83F0
FFFFE0
FBFFC0
F9FF00
F81000
F80000
F80000
F80000
F80000
F80000
F80000
F80000
F80000
F80000
ENDCHAR
STARTCHAR 00FF
ENCODING 255
SWIDTH 500 0
DWIDTH 25 0
BBX 23 46 1 -11
BITMAP
07C3E0
07C3E0
07C3E0
07C3E0
07C3E0
000000
000000
000000
000000
000000
F8001E
F8001E
78003E
7C003C
7C003C
3C007C
3E0078
1E00F8
1F00F0
1F00F0
0F01F0
0F81E0
0781E0
0783E0
07C3C0
03C7C0
03C780
03E780
01EF80
01EF00
00FF00
00FF00
00FE00
007E00
007C00
007C00
007C00
007800
007800
00F800
00F000
01F000
3FE000
3FE000
3FC000
3F8000
ENDCHAR
STARTCHAR 0100
ENCODING 256
SWIDTH 660 0
DWIDTH 33 0
BBX 33 42 0 0
BITMAP
007FFF0000
007FFF0000
007FFF0000
0000000000
0000000000
0000000000
0003E00000
0007E00000
0007F00000
000FF00000
000FF80000
000F780000
001F780000
001E7C0000
003E3C0000
003E3E0000
003C3E0000
007C1E0000
007C1F0000
00781F0000
00F80F8000
00F00F8000
01F0078000
01F007C000
01E007C000
03E003E000
03E003E000
07FFFFF000
07FFFFF000
07FFFFF000
0FFFFFF800
0F8000F800
0F0000FC00
1F00007C00
1F00007C00
3E00003E00
3E00003E00
3E00003F00
7C00001F00
7C00001F00
FC00001F80
F800000F80
ENDCHAR
STARTCHAR 0101
ENCODING 257
SWIDTH 540 0
DWIDTH 27 0
BBX 23 35 2 -1
BITMAP
07FFF0
07FFF0
07FFF0
07FFF0
000000
000000
000000
001800
03FFC0
0FFFF0
1FFFF8
3F83FC
3E00FC
7C007C
78003C
78003C
00003C
00003C
0003FC
01FFFC
0FFFFC
3FFF3C
7FF03C
7E003C
F8003C
F8003C
F8007C
F8007C
F800FC
F801FC
7E07FE
7FFFBE
3FFF1E
1FFC1E
01C000
ENDCHAR
STARTCHAR 0102
ENCODING 258
SWIDTH 660 0
DWIDTH 33 0
BBX 33 44 0 0
BITMAP
0078070000
00380E0000
003C1E0000
001FFC0000
000FF80000
0007F00000
0000000000
0000000000
0003E00000
0007E00000
0007F00000
000FF00000
000FF80000
000F780000
001F780000
001E7C0000
003E3C0000
003E3E0000
003C3E0000
007C1E0000
007C1F0000
00781F0000
00F80F8000
00F00F8000
01F0078000
01F007C000
01E007C000
03E003E000
03E003E000
07FFFFF000
07FFFFF000
07FFFFF000
0FFFFFF800
0F8000F800
0F0000FC00
1F00007C00
1F00007C00
3E00003E00
3E00003E00
3E00003F00
7C00001F00
7C00001F00
FC00001F80
F800000F80
ENDCHAR
STARTCHAR 0103
ENCODING 259
SWIDTH 540 0
DWIDTH 27 0
BBX 23 37 2 -1
BITMAP
0700F0
0780E0
0381E0
03F7C0
01FFC0
00FF80
000800
000000
000000
001800
03FFC0
0FFFF0
1FFFF8
3F83FC
3E00FC
7C007C
78003C
78003C
00003C
00003C
0003FC
01FFFC
0FFFFC
3FFF3C
7FF03C
7E003C
F8003C
F8003C
F8007C
F8007C
F800FC
F801FC
7E07FE
7FFFBE
3FFF1E
1FFC1E
01C000
ENDCHAR
STARTCHAR 0104
ENCODING 260
SWIDTH 660 0
DWIDTH 33 0
BBX 38 46 0 -10
BITMAP
0003E00000
0007E00000
0007F00000
000FF00000
000FF80000
000F780000
001F780000
001E7C0000
003E3C0000
003E3E0000
003C3E0000
007C1E0000
007C1F0000
00781F0000
00F80F8000
00F00F8000
01F0078000
01F007C000
01E007C000
03E003E000
03E003E000
07FFFFF000
07FFFFF000
07FFFFF000
0FFFFFF800
0F8000F800
0F0000FC00
1F00007C00
1F00007C00
3E00003E00
3E00003E00
3E00003F00
7C00001F00
7C00001F00
FC00001F80
F800000F80
0000000E00
0000001C00
0000001C00
0000001C00
0000001C00
0000001E00
0000001F0C
0000000FFC
0000000FFC
00000003F0
ENDCHAR
STARTCHAR 0105
ENCODING 261
SWIDTH 540 0
DWIDTH 27 0
BBX 29 37 2 -10
BITMAP
00180000
03FFC000
0FFFF000
1FFFF800
3F83FC00
3E00FC00
7C007C00
78003C00
78003C00
00003C00
00003C00
0003FC00
01FFFC00
0FFFFC00
3FFF3C00
7FF03C00
7E003C00
F8003C00
F8003C00
F8007C00
F8007C00
F800FC00
F801FC00
7E07FE00
7FFFBE00
3FFF1E00
1FFC1E00
01C01C00
00001800
00003800
00003800
00003C00
00003C00
00001FF8
00001FF8
00000FF8
000003C0
ENDCHAR
STARTCHAR 0106
ENCODING 262
SWIDTH 720 0
DWIDTH 36 0
BBX 32 46 2 -1
BITMAP
00007E00
00007C00
0000F800
0000F800
0001F000
0001E000
0003C000
00000000
00000000
000FFE00
007FFF80
00FFFFE0
03FFFFF0
07F803F8
0FE001F8
0F8000FC
1F00007E
3F00003E
3E00003E
3E000018
7C000000
7C000000
7C000000
7C000000
78000000
F8000000
F8000000
F8000000
78000000
78000000
7C000000
7C000000
7C000010
7C00001F
3E00001F
3E00003F
3F00003E
1F00007E
1F8000FC
0FC001FC
07F003F8
03FF3FF0
01FFFFE0
00FFFF80
003FFE00
0001E000
ENDCHAR
STARTCHAR 0107
ENCODING 263
SWIDTH 500 0
DWIDTH 25 0
BBX 22 37 2 -1
BITMAP
001F80
001F00
003E00
003E00
007C00
007800
007000
000000
000000
001800
01FF80
07FFE0
0FFFF0
1FC3F0
3F00F8
7E0078
7C007C
78003C
F80000
F80000
F80000
F80000
F00000
F00000
F80000
F80000
F80000
F8003C
78003C
7C007C
7C007C
3E00F8
1F83F0
0FFFE0
07FFC0
03FF80
001800
ENDCHAR
STARTCHAR 0108
ENCODING 264
SWIDTH 720 0
DWIDTH 36 0
BBX 32 46 2 -1
BITMAP
0003E000
0003F000
0007F800
000FFC00
001F3C00
003E1E00
003E1F00
00000000
00000000
000FFE00
007FFF80
00FFFFE0
03FFFFF0
07F803F8
0FE001F8
0F8000FC
1F00007E
3F00003E
3E00003E
3E000018
7C000000
7C000000
7C000000
7C000000
78000000
F8000000
F8000000
F8000000
78000000
78000000
7C000000
7C000000
7C000010
7C00001F
3E00001F
3E00003F
3F00003E
1F00007E
1F8000FC
0FC001FC
07F003F8
03FF3FF0
01FFFFE0
00FFFF80
003FFE00
0001E000
ENDCHAR
STARTCHAR 0109
ENCODING 265
SWIDTH 500 0
DWIDTH 25 0
BBX 22 37 2 -1
BITMAP
003E00
007F00
00FF80
01F780
01E3C0
03E3E0
07C1F0
000000
000000
001800
01FF80
07FFE0
0FFFF0
1FC3F0
3F00F8
7E0078
7C007C
78003C
F80000
F80000
F80000
F80000
F00000
F00000
F80000
F80000
F80000
F8003C
78003C
7C007C
7C007C
3E00F8
1F83F0
0FFFE0
07FFC0
03FF80
001800
ENDCHAR
STARTCHAR 010A
ENCODING 266
SWIDTH 720 0
DWIDTH 36 0
BBX 32 45 2 -1
BITMAP
0003F000
0003F000
0003F000
0003F000
0003F000
00000000
00000000
00000000
000FFE00
007FFF80
00FFFFE0
03FFFFF0
07F803F8
0FE001F8
0F8000FC
1F00007E
3F00003E
3E00003E
3E000018
7C000000
7C000000
7C000000
7C000000
78000000
F8000000
F8000000
F8000000
78000000
78000000
7C000000
7C000000
7C000010
7C00001F
3E00001F
3E00003F
3F00003E
1F00007E
1F8000FC
0FC001FC
07F003F8
03FF3FF0
01FFFFE0
00FFFF80
003FFE00
0001E000
ENDCHAR
STARTCHAR 010B
ENCODING 267
SWIDTH 500 0
DWIDTH 25 0
BBX 22 36 2 -1
BITMAP
007E00
007E00
007E00
007E00
007E00
007E00
000000
000000
001800
01FF80
07FFE0
0FFFF0
1FC3F0
3F00F8
7E0078
7C007C
78003C
F80000
F80000
F80000
F80000
F00000
F00000
F80000
F80000
F80000
F8003C
78003C
7C007C
7C007C
3E00F8
1F83F0
0FFFE0
07FFC0
03FF80
001800
ENDCHAR
STARTCHAR 010C
ENCODING 268
SWIDTH 720 0
DWIDTH 36 0
BBX 32 46 2 -1
BITMAP
003E0F80
003E1F00
001F1E00
000FBC00
0007FC00
0003F800
0003F000
00000000
00000000
000FFE00
007FFF80
00FFFFE0
03FFFFF0
07F803F8
0FE001F8
0F8000FC
1F00007E
3F00003E
3E00003E
3E000018
7C000000
7C000000
7C000000
7C000000
78000000
F8000000
F8000000
F8000000
78000000
78000000
7C000000
7C000000
7C000010
7C00001F
3E00001F
3E00003F
3F00003E
1F00007E
1F8000FC
0FC001FC
07F003F8
03FF3FF0
01FFFFE0
00FFFF80
003FFE00
0001E000
ENDCHAR
STARTCHAR 010D
ENCODING 269
SWIDTH 500 0
DWIDTH 25 0
BBX 22 37 2 -1
BITMAP
0F83E0
07C7C0
03E780
01EF80
01FF00
00FE00
007C00
000000
000000
001800
01FF80
07FFE0
0FFFF0
1FC3F0
3F00F8
7E0078
7C007C
78003C
F80000
F80000
F80000
F80000
F00000
F00000
F80000
F80000
F80000
F8003C
78003C
7C007C
7C007C
3E00F8
1F83F0
0FFFE0
07FFC0
03FF80
001800
ENDCHAR
STARTCHAR 010E
ENCODING 270
SWIDTH 720 0
DWIDTH 36 0
BBX 29 45 4 0
BITMAP
1F07C000
0F878000
078F8000
07DF0000
03FE0000
01FC0000
00F80000
00000000
00000000
FFFF8000
FFFFF800
FFFFFE00
FFFFFF00
F807FF80
F8001FC0
F8000FE0
F80007E0
F80003F0
F80001F0
F80001F0
F80000F8
F80000F8
F80000F8
F80000F8
F80000F8
F8000078
F8000078
F8000078
F80000F8
F80000F8
F80000F8
F80000F8
F80000F8
F80000F8
F80001F0
F80001F0
F80003F0
F80003E0
F80007E0
F8001FC0
F800FF80
FFFFFF00
FFFFFE00
FFFFF800
FFFFC000
ENDCHAR
STARTCHAR 010F
ENCODING 271
SWIDTH 600 0
DWIDTH 30 0
BBX 29 37 2 -1
BITMAP
00003CF8
00003CF8
00003CF8
00003CF8
00003CF8
00003C38
00003C38
00003C30
00003C70
00203CE0
03FE3C40
0FFF3C00
1FFFBC00
3F87FC00
3E01FC00
7C00FC00
7C007C00
F8007C00
F8003C00
F8003C00
F0003C00
F0003C00
F0003C00
F0003C00
F0003C00
F0003C00
F8003C00
F8003C00
78007C00
7C007C00
7C00FC00
3E01FC00
1F83FC00
1FFFFC00
07FFBC00
03FE3C00
00300000
ENDCHAR
STARTCHAR 0110
ENCODING 272
SWIDTH 720 0
DWIDTH 36 0
BBX 33 36 0 0
BITMAP
0FFFF80000
0FFFFF8000
0FFFFFE000
0FFFFFF000
0F807FF800
0F8001FC00
0F8000FE00
0F80003E00
0F80003F00
0F80001F00
0F80001F00
0F80000F80
0F80000F80
0F80000F80
0F80000F80
0F80000F80
FFFFC00780
FFFFC00780
FFFFC00780
FFFFC00F80
0F80000F80
0F80000F80
0F80000F80
0F80000F80
0F80000F80
0F80001F00
0F80001F00
0F80003F00
0F80003E00
0F80007E00
0F8001FC00
0F800FF800
0FFFFFF000
0FFFFFE000
0FFFFF8000
0FFFFC0000
ENDCHAR
STARTCHAR 0111
ENCODING 273
SWIDTH 540 0
DWIDTH 27 0
BBX 26 37 2 -1
BITMAP
00003C00
00003C00
00003C00
007FFFC0
007FFFC0
007FFFC0
00003C00
00003C00
00003C00
00203C00
03FE3C00
0FFF3C00
1FFFBC00
3F87FC00
3E01FC00
7C00FC00
7C007C00
F8007C00
F8003C00
F8003C00
F0003C00
F0003C00
F0003C00
F0003C00
F0003C00
F0003C00
F8003C00
F8003C00
F8007C00
7C007C00
7C00FC00
3E01FC00
1F83FC00
1FFFFC00
07FFBC00
03FE3C00
00300000
ENDCHAR
STARTCHAR 0112
ENCODING 274
SWIDTH 660 0
DWIDTH 33 0
BBX 27 42 4 0
BITMAP
03FFF800
03FFF800
03FFF800
00000000
00000000
00000000
FFFFFFC0
FFFFFFC0
FFFFFFC0
FFFFFFC0
F8000000
F8000000
F8000000
F8000000
F8000000
F8000000
F8000000
F8000000
F8000000
F8000000
F8000000
FFFFFF00
FFFFFF00
FFFFFF00
FFFFFF00
FFFFFF00
F8000000
F8000000
F8000000
F8000000
F8000000
F8000000
F8000000
F8000000
F8000000
F8000000
F8000000
F8000000
FFFFFFE0
FFFFFFE0
FFFFFFE0
FFFFFFE0
ENDCHAR
STARTCHAR 0113
ENCODING 275
SWIDTH 540 0
DWIDTH 27 0
BBX 24 35 2 -1
BITMAP
0FFFE0
0FFFE0
0FFFE0
0FFFE0
000000
000000
000000
001800
01FF80
07FFE0
0FFFF0
1FC3F8
3F00FC
7E007C
7C003E
78003E
F8001E
F8001E
F8001F
FFFFFF
FFFFFF
FFFFFF
F00000
F00000
F80000
F80000
78001F
7C003E
7E003E
3F007C
1FC1FC
0FFFF8
07FFE0
01FFC0
001C00
ENDCHAR
STARTCHAR 0114
ENCODING 276
SWIDTH 660 0
DWIDTH 33 0
BBX 27 45 4 0
BITMAP
03807000
03807000
03C0F000
01F1E000
00FFE000
007FC000
000E0000
00000000
00000000
FFFFFFC0
FFFFFFC0
FFFFFFC0
FFFFFFC0
F8000000
F8000000
F8000000
F8000000
F8000000
F8000000
F8000000
F8000000
F8000000
F8000000
F8000000
FFFFFF00
FFFFFF00
FFFFFF00
FFFFFF00
FFFFFF00
F8000000
F8000000
F8000000
F8000000
F8000000
F8000000
F8000000
F8000000
F8000000
F8000000
F8000000
F8000000
FFFFFFE0
FFFFFFE0
FFFFFFE0
FFFFFFE0
ENDCHAR
STARTCHAR 0115
ENCODING 277
SWIDTH 540 0
DWIDTH 27 0
BBX 24 37 2 -1
BITMAP
0700E0
0700E0
0381E0
03F7C0
01FFC0
00FF80
000800
000000
000000
001800
01FF80
07FFE0
0FFFF0
1FC3F8
3F00FC
7E007C
7C003E
78003E
F8001E
F8001E
F8001F
FFFFFF
FFFFFF
FFFFFF
F00000
F00000
F80000
F80000
78001F
7C003E
7E003E
3F007C
1FC1FC
0FFFF8
07FFE0
01FFC0
001C00
ENDCHAR
STARTCHAR 0116
ENCODING 278
SWIDTH 660 0
DWIDTH 33 0
BBX 27 43 4 0
BITMAP
001F0000
001F0000
001F0000
001F0000
001F0000
00000000
00000000
FFFFFFC0
FFFFFFC0
FFFFFFC0
FFFFFFC0
F8000000
F8000000
F8000000
F8000000
F8000000
F8000000
F8000000
F8000000
F8000000
F8000000
F8000000
FFFFFF00
FFFFFF00
FFFFFF00
FFFFFF00
FFFFFF00
F8000000
F8000000
F8000000
F8000000
F8000000
F8000000
F8000000
F8000000
F8000000
F8000000
F8000000
F8000000
FFFFFFE0
FFFFFFE0
FFFFFFE0
FFFFFFE0
ENDCHAR
STARTCHAR 0117
ENCODING 279
SWIDTH 540 0
DWIDTH 27 0
BBX 24 36 2 -1
BITMAP
003E00
003E00
003E00
003E00
003E00
003E00
000000
000000
001800
01FF80
07FFE0
0FFFF0
1FC3F8
3F00FC
7E007C
7C003E
78003E
F8001E
F8001E
F8001F
FFFFFF
FFFFFF
FFFFFF
F00000
F00000
F80000
F80000
78001F
7C003E
7E003E
3F007C
1FC1FC
0FFFF8
07FFE0
01FFC0
001C00
ENDCHAR
STARTCHAR 0118
ENCODING 280
SWIDTH 660 0
DWIDTH 33 0
BBX 27 46 4 -10
BITMAP
FFFFFFC0
FFFFFFC0
FFFFFFC0
FFFFFFC0
F8000000
F8000000
F8000000
F8000000
F8000000
F8000000
F8000000
F8000000
F8000000
F8000000
F8000000
FFFFFF00
FFFFFF00
FFFFFF00
FFFFFF00
FFFFFF00
F8000000
F8000000
F8000000
F8000000
F8000000
F8000000
F8000000
F8000000
F8000000
F8000000
F8000000
F8000000
FFFFFFE0
FFFFFFE0
FFFFFFE0
FFFFFFE0
00007000
0000E000
0000E000
0000E000
0000E000
0000F000
0000F060
0000FFE0
00007FE0
00003F80
ENDCHAR
STARTCHAR 0119
ENCODING 281
SWIDTH 540 0
DWIDTH 27 0
BBX 24 37 2 -10
BITMAP
001800
01FF80
07FFE0
0FFFF0
1FC3F8
3F00FC
7E007C
7C003E
78003E
F8001E
F8001E
F8001F
FFFFFF
FFFFFF
FFFFFF
F00000
F00000
F80000
F80000
78001F
7C003E
7E003E
3F007C
1FC1FC
0FFFF8
07FFE0
01FFC0
001C00
001C00
003800
003800
003800
003C00
003E08
001FF8
001FF8
000FF0
ENDCHAR
STARTCHAR 011A
ENCODING 282
SWIDTH 660 0
DWIDTH 33 0
BBX 27 45 4 0
BITMAP
07C1F000
07C3E000
03E3C000
01F78000
00FF8000
00FF0000
007E0000
00000000
00000000
FFFFFFC0
FFFFFFC0
FFFFFFC0
FFFFFFC0
F8000000
F8000000
F8000000
F8000000
F8000000
F8000000
F8000000
F8000000
F8000000
F8000000
F8000000
FFFFFF00
FFFFFF00
FFFFFF00
FFFFFF00
FFFFFF00
F8000000
F8000000
F8000000
F8000000
F8000000
F8000000
F8000000
F8000000
F8000000
F8000000
F8000000
F8000000
FFFFFFE0
FFFFFFE0
FFFFFFE0
FFFFFFE0
ENDCHAR
STARTCHAR 011B
ENCODING 283
SWIDTH 540 0
DWIDTH 27 0
BBX 24 37 2 -1
BITMAP
07C1F0
03C3E0
03E7C0
01F780
00FF00
007F00
007E00
000000
000000
001800
01FF80
07FFE0
0FFFF0
1FC3F8
3F00FC
7E007C
7C003E
78003E
F8001E
F8001E
F8001F
FFFFFF
FFFFFF
FFFFFF
F00000
F00000
F80000
F80000
78001F
7C003E
7E003E
3F007C
1FC1FC
0FFFF8
07FFE0
01FFC0
001C00
ENDCHAR
STARTCHAR 011C
ENCODING 284
SWIDTH 760 0
DWIDTH 38 0
BBX 33 46 3 -1
BITMAP
0000F00000
0001F80000
0003FC0000
0007FE0000
00079F0000
000F8F0000
001F0F8000
0000000000
0000000000
001FFF0000
007FFFC000
01FFFFF000
03FFFFF800
07F003FC00
0FC000FC00
1F80007E00
3F00003E00
3E00001F00
7E00001F00
7C00000E00
7C00000000
F800000000
F800000000
F800000000
F800000000
F800000000
F800000000
F8003FFF80
F8003FFF80
F8003FFF80
F8003FFF80
F800000F80
F800000F80
FC00000F80
7C00000F80
7C00000F80
3E00000F80
3F00000F80
1F80001F80
0FC0007F80
0FF801FF00
03FFFFFE00
01FFFFF800
007FFFE000
001FFF8000
0001E00000
ENDCHAR
STARTCHAR 011D
ENCODING 285
SWIDTH 540 0
DWIDTH 27 0
BBX 22 47 2 -11
BITMAP
00FC00
00FE00
01FE00
03EF00
07CF80
0787C0
0F83E0
000000
000000
003000
03FE3C
0FFFBC
1FFFFC
3F87FC
3E01FC
7C00FC
78007C
F8007C
F8003C
F0003C
F0003C
F0003C
F0003C
F0003C
F0003C
F0003C
F8003C
F8003C
78007C
7C007C
7E00FC
3F01FC
1FFFFC
0FFFBC
07FF3C
01FC3C
00003C
00003C
E0003C
78007C
780078
7C00F8
7F03F0
3FFFE0
1FFFC0
07FF00
003000
ENDCHAR
STARTCHAR 011E
ENCODING 286
SWIDTH 760 0
DWIDTH 38 0
BBX 33 45 3 -1
BITMAP
001C038000
001E038000
000F078000
000FFF0000
0007FE0000
0001F80000
0000000000
0000000000
001FFF0000
007FFFC000
01FFFFF000
03FFFFF800
07F003FC00
0FC000FC00
1F80007E00
3F00003E00
3E00001F00
7E00001F00
7C00000E00
7C00000000
F800000000
F800000000
F800000000
F800000000
F800000000
F800000000
F8003FFF80
F8003FFF80
F8003FFF80
F8003FFF80
F800000F80
F800000F80
FC00000F80
7C00000F80
7C00000F80
3E00000F80
3F00000F80
1F80001F80
0FC0007F80
0FF801FF00
03FFFFFE00
01FFFFF800
007FFFE000
001FFF8000
0001E00000
ENDCHAR
STARTCHAR 011F
ENCODING 287
SWIDTH 540 0
DWIDTH 27 0
BBX 22 47 2 -11
BITMAP
0700E0
0700E0
0781E0
03EFC0
03FF80
00FF00
003000
000000
000000
003000
03FE3C
0FFFBC
1FFFFC
3F87FC
3E01FC
7C00FC
78007C
F8007C
F8003C
F0003C
F0003C
F0003C
F0003C
F0003C
F0003C
F0003C
F8003C
F8003C
78007C
7C007C
7E00FC
3F01FC
1FFFFC
0FFFBC
07FF3C
01FC3C
00003C
00003C
E0003C
78007C
780078
7C00F8
7F03F0
3FFFE0
1FFFC0
07FF00
003000
ENDCHAR
STARTCHAR 0120
ENCODING 288
SWIDTH 760 0
DWIDTH 38 0
BBX 33 44 3 -1
BITMAP
0001F80000
0001F80000
0001F80000
0001F80000
0001F80000
0000000000
0000000000
001FFF0000
007FFFC000
01FFFFF000
03FFFFF800
07F003FC00
0FC000FC00
1F80007E00
3F00003E00
3E00001F00
7E00001F00
7C00000E00
7C00000000
F800000000
F800000000
F800000000
F800000000
F800000000
F800000000
F8003FFF80
F8003FFF80
F8003FFF80
F8003FFF80
F800000F80
F800000F80
FC00000F80
7C00000F80
7C00000F80
3E00000F80
3F00000F80
1F80001F80
0FC0007F80
0FF801FF00
03FFFFFE00
01FFFFF800
007FFFE000
001FFF8000
0001E00000
ENDCHAR
STARTCHAR 0121
ENCODING 289
SWIDTH 540 0
DWIDTH 27 0
BBX 22 46 2 -11
BITMAP
007E00
007E00
007E00
007E00
007E00
007E00
000000
000000
003000
03FE3C
0FFFBC
1FFFFC
3F87FC
3E01FC
7C00FC
78007C
F8007C
F8003C
F0003C
F0003C
F0003C
F0003C
F0003C
F0003C
F0003C
F8003C
F8003C
78007C
7C007C
7E00FC
3F01FC
1FFFFC
0FFFBC
07FF3C
01FC3C
00003C
00003C
E0003C
78007C
780078
7C00F8
7F03F0
3FFFE0
1FFFC0
07FF00
003000
ENDCHAR
STARTCHAR 0122
ENCODING 290
SWIDTH 760 0
DWIDTH 38 0
BBX 33 46 3 -10
BITMAP
001FFF0000
007FFFC000
01FFFFF000
03FFFFF800
07F003FC00
0FC000FC00
1F80007E00
3F00003E00
3E00001F00
7E00001F00
7C00000E00
7C00000000
F800000000
F800000000
F800000000
F800000000
F800000000
F800000000
F8003FFF80
F8003FFF80
F8003FFF80
F8003FFF80
F800000F80
F800000F80
FC00000F80
7C00000F80
7C00000F80
3E00000F80
3F00000F80
1F80001F80
0FC0007F80
0FF801FF00
03FFFFFE00
01FFFFF800
007FFFE000
001FFF8000
0001E00000
0000E00000
0000F80000
0001FC0000
00001E0000
00001E0000
00003E0000
0007FE0000
0007FC0000
0007F00000
ENDCHAR
STARTCHAR 0123
ENCODING 291
SWIDTH 540 0
DWIDTH 27 0
BBX 22 49 2 -11
BITMAP
001800
003C00
007000
007000
00E000
00F800
00F800
00F800
00F800
000000
000000
003000
03FE3C
0FFFBC
1FFFFC
3F87FC
3E01FC
7C00FC
78007C
F8007C
F8003C
F0003C
F0003C
F0003C
F0003C
F0003C
F0003C
F0003C
F0003C
F8003C
78007C
7C007C
7E00FC
3F01FC
1FFFFC
0FFFBC
07FF3C
01FC3C
00003C
00003C
E0003C
78007C
780078
7C00F8
3F03F0
3FFFF0
1FFFC0
07FF00
001000
ENDCHAR
STARTCHAR 0124
ENCODING 292
SWIDTH 720 0
DWIDTH 36 0
BBX 28 45 4 0
BITMAP
000F8000
001FC000
001FE000
003DF000
007CF800
00F87800
01F07C00
00000000
00000000
F80001F0
F80001F0
F80001F0
F80001F0
F80001F0
F80001F0
F80001F0
F80001F0
F80001F0
F80001F0
F80001F0
F80001F0
F80001F0
F80001F0
F80001F0
FFFFFFF0
FFFFFFF0
FFFFFFF0
FFFFFFF0
F80001F0
F80001F0
F80001F0
F80001F0
F80001F0
F80001F0
F80001F0
F80001F0
F80001F0
F80001F0
F80001F0
F80001F0
F80001F0
F80001F0
F80001F0
F80001F0
F80001F0
ENDCHAR
STARTCHAR 0125
ENCODING 293
SWIDTH 540 0
DWIDTH 27 0
BBX 21 45 3 0
BITMAP
003E00
007F00
00FF80
00F7C0
01F3C0
03E3E0
07C1F0
000000
000000
F80000
F80000
F80000
F80000
F80000
F80000
F80000
F80000
F80000
F80800
F8FF80
FBFFE0
FFFFF0
FFC7F0
FF01F8
FC00F8
FC0078
F80078
F80078
F80078
F80078
F80078
F80078
F80078
F80078
F80078
F80078
F80078
F80078
F80078
F80078
F80078
F80078
F80078
F80078
F80078
ENDCHAR
STARTCHAR 0126
ENCODING 294
SWIDTH 720 0
DWIDTH 36 0
BBX 34 36 1 0
BITMAP
1F00003E00
1F00003E00
1F00003E00
1F00003E00
1F00003E00
1F00003E00
FFFFFFFFC0
FFFFFFFFC0
FFFFFFFFC0
1F00003E00
1F00003E00
1F00003E00
1F00003E00
1F00003E00
1F00003E00
1FFFFFFE00
1FFFFFFE00
1FFFFFFE00
1FFFFFFE00
1F00003E00
1F00003E00
1F00003E00
1F00003E00
1F00003E00
1F00003E00
1F00003E00
1F00003E00
1F00003E00
1F00003E00
1F00003E00
1F00003E00
1F00003E00
1F00003E00
1F00003E00
1F00003E00
1F00003E00
ENDCHAR
STARTCHAR 0127
ENCODING 295
SWIDTH 540 0
DWIDTH 27 0
BBX 24 36 0 0
BITMAP
1F0000
1F0000
1F0000
FFFF80
FFFF80
FFFF80
FFFF80
1F0000
1F0000
1F0100
1F1FF0
1F7FFC
1FFFFE
1FF8FE
1FC03F
1F801F
1F800F
1F000F
1F000F
1F000F
1F000F
1F000F
1F000F
1F000F
1F000F
1F000F
1F000F
1F000F
1F000F
1F000F
1F000F
1F000F
1F000F
1F000F
1F000F
1F000F
ENDCHAR
STARTCHAR 0128
ENCODING 296
SWIDTH 260 0
DWIDTH 13 0
BBX 17 44 -2 0
BITMAP
1F0780
3FC780
7FFF00
71FF00
F07E00
000000
000000
000000
01E000
01E000
01E000
01E000
01E000
01E000
01E000
01E000
01E000
01E000
01E000
01E000
01E000
01E000
01E000
01E000
01E000
01E000
01E000
01E000
01E000
01E000
01E000
01E000
01E000
01E000
01E000
01E000
01E000
01E000
01E000
01E000
01E000
01E000
01E000
01E000
ENDCHAR
STARTCHAR 0129
ENCODING 297
SWIDTH 260 0
DWIDTH 13 0
BBX 16 35 -1 0
BITMAP
3F07
7FCF
FFFF
F1FE
E07C
0000
0000
0000
0000
03C0
03C0
03C0
03C0
03C0
03C0
03C0
03C0
03C0
03C0
03C0
03C0
03C0
03C0
03C0
03C0
03C0
03C0
03C0
03C0
03C0
03C0
03C0
03C0
03C0
03C0
ENDCHAR
STARTCHAR 012A
ENCODING 298
SWIDTH 260 0
DWIDTH 13 0
BBX 16 42 -1 0
BITMAP
FFFF
FFFF
FFFF
FFFF
0000
0000
03C0
03C0
03C0
03C0
03C0
03C0
03C0
03C0
03C0
03C0
03C0
03C0
03C0
03C0
03C0
03C0
03C0
03C0
03C0
03C0
03C0
03C0
03C0
03C0
03C0
03C0
03C0
03C0
03C0
03C0
03C0
03C0
03C0
03C0
03C0
03C0
ENDCHAR
STARTCHAR 012B
ENCODING 299
SWIDTH 260 0
DWIDTH 13 0
BBX 16 34 -1 0
BITMAP
FFFF
FFFF
FFFF
FFFF
0000
0000
0000
0000
03C0
03C0
03C0
03C0
03C0
03C0
03C0
03C0
03C0
03C0
03C0
03C0
03C0
03C0
03C0
03C0
03C0
03C0
03C0
03C0
03C0
03C0
03C0
03C0
03C0
03C0
ENDCHAR
STARTCHAR 012C
ENCODING 300
SWIDTH 260 0
DWIDTH 13 0
BBX 14 44 0 0
BITMAP
E01C
E01C
703C
7FF8
3FF0
1FE0
0000
0000
0780
0780
0780
0780
0780
0780
0780
0780
0780
0780
0780
0780
0780
0780
0780
0780
0780
0780
0780
0780
0780
0780
0780
0780
0780
0780
0780
0780
0780
0780
0780
0780
0780
0780
0780
0780
ENDCHAR
STARTCHAR 012D
ENCODING 301
SWIDTH 260 0
DWIDTH 13 0
BBX 14 36 0 0
BITMAP
E01C
E01C
F03C
7FF8
3FF0
1FE0
0100
0000
0000
0000
0780
0780
0780
0780
0780
0780
0780
0780
0780
0780
0780
0780
0780
0780
0780
0780
0780
0780
0780
0780
0780
0780
0780
0780
0780
0780
ENDCHAR
STARTCHAR 012E
ENCODING 302
SWIDTH 260 0
DWIDTH 13 0
BBX 11 46 4 -10
BITMAP
7C00
7C00
7C00
7C00
7C00
7C00
7C00
7C00
7C00
7C00
7C00
7C00
7C00
7C00
7C00
7C00
7C00
7C00
7C00
7C00
7C00
7C00
7C00
7C00
7C00
7C00
7C00
7C00
7C00
7C00
7C00
7C00
7C00
7C00
7C00
7C00
7000
E000
E000
E000
E000
F000
F820
FFE0
7FE0
3F80
ENDCHAR
STARTCHAR 012F
ENCODING 303
SWIDTH 220 0
DWIDTH 11 0
BBX 11 46 2 -10
BITMAP
7C00
7C00
7C00
7C00
7C00
0000
0000
0000
0000
0000
7C00
7C00
7C00
7C00
7C00
7C00
7C00
7C00
7C00
7C00
7C00
7C00
7C00
7C00
7C00
7C00
7C00
7C00
7C00
7C00
7C00
7C00
7C00
7C00
7C00
7C00
7000
7000
7000
7000
F000
F000
7820
7FE0
3FE0
1FC0
ENDCHAR
STARTCHAR 0130
ENCODING 304
SWIDTH 260 0
DWIDTH 13 0
BBX 6 43 4 0
BITMAP
FC
FC
FC
FC
FC
00
00
78
78
78
78
78
78
78
78
78
78
78
78
78
78
78
78
78
78
78
78
78
78
78
78
78
78
78
78
78
78
78
78
78
78
78
78
ENDCHAR
STARTCHAR 0131
ENCODING 305
SWIDTH 260 0
DWIDTH 13 0
BBX 4 26 5 0
BITMAP
F0
F0
F0
F0
F0
F0
F0
F0
F0
F0
F0
F0
F0
F0
F0
F0
F0
F0
F0
F0
F0
F0
F0
F0
F0
F0
ENDCHAR
STARTCHAR 0132
ENCODING 306
SWIDTH 720 0
DWIDTH 36 0
BBX 29 37 5 -1
BITMAP
F00000F8
F00000F8
F00000F8
F00000F8
F00000F8
F00000F8
F00000F8
F00000F8
F00000F8
F00000F8
F00000F8
F00000F8
F00000F8
F00000F8
F00000F8
F00000F8
F00000F8
F00000F8
F00000F8
F00000F8
F00000F8
F00000F8
F00000F8
F00000F8
F00000F8
F00C00F8
F07C00F8
F03C00F8
F03C00F8
F03E00F8
F03E01F0
F03F03F0
F01FFFF0
F00FFFE0
F007FFC0
F003FF00
00003000
ENDCHAR
STARTCHAR 0133
ENCODING 307
SWIDTH 440 0
DWIDTH 22 0
BBX 16 47 3 -11
BITMAP
F80F
F80F
F80F
F80F
F80F
0000
0000
0000
0000
0000
F80F
F80F
F80F
F80F
F80F
F80F
F80F
F80F
F80F
F80F
F80F
F80F
F80F
F80F
F80F
F80F
F80F
F80F
F80F
F80F
F80F
F80F
F80F
F80F
F80F
F80F
000F
000F
000F
000F
000F
001F
013F
01FE
01FE
01FC
0020
ENDCHAR
STARTCHAR 0134
ENCODING 308
SWIDTH 500 0
DWIDTH 25 0
BBX 26 46 1 -1
BITMAP
0000F800
0001FC00
0003FC00
0007DE00
00079F00
000F8F80
001F07C0
00000000
00000000
0001F000
0001F000
0001F000
0001F000
0001F000
0001F000
0001F000
0001F000
0001F000
0001F000
0001F000
0001F000
0001F000
0001F000
0001F000
0001F000
0001F000
0001F000
0001F000
0001F000
0001F000
0001F000
0001F000
0001F000
0001F000
1801F000
F801F000
F801F000
7801F000
7801F000
7C03E000
7E07E000
3FFFE000
3FFFC000
1FFF8000
07FE0000
00E00000
ENDCHAR
STARTCHAR 0135
ENCODING 309
SWIDTH 220 0
DWIDTH 11 0
BBX 15 46 -2 -11
BITMAP
07C0
0FE0
1FF0
3EF8
3C78
7C7C
F83E
0000
0000
0000
07C0
07C0
07C0
07C0
07C0
07C0
07C0
07C0
07C0
07C0
07C0
07C0
07C0
07C0
07C0
07C0
07C0
07C0
07C0
07C0
07C0
07C0
07C0
07C0
07C0
07C0
07C0
07C0
07C0
07C0
0780
0780
DF80
FF80
FF00
FE00
ENDCHAR
STARTCHAR 0136
ENCODING 310
SWIDTH 660 0
DWIDTH 33 0
BBX 29 46 4 -10
BITMAP
F00003F0
F00007E0
F0000FC0
F0001F80
F0003F00
F0007E00
F000FC00
F001F800
F003F000
F007E000
F00FC000
F01F8000
F03F0000
F07E0000
F0FC0000
F1FC0000
F3FE0000
F7FF0000
FFDF0000
FF9F8000
FF0FC000
FE07E000
FC07E000
F803F000
F001F800
F000FC00
F000FC00
F0007E00
F0003F00
F0003F00
F0001F80
F0000FC0
F00007E0
F00007E0
F00003F0
F00001F8
00000000
000F8000
000FE000
000FF000
0000F000
0000F000
0000F000
003FF000
003FE000
003FC000
ENDCHAR
STARTCHAR 0137
ENCODING 311
SWIDTH 500 0
DWIDTH 25 0
BBX 21 46 3 -10
BITMAP
F80000
F80000
F80000
F80000
F80000
F80000
F80000
F80000
F80000
F80000
F801F0
F803E0
F807C0
F80F80
F81F00
F83E00
F87C00
F8F800
F9F000
FBE000
FFE000
FFF000
FFF800
FEF800
FC7C00
F83E00
F83E00
F81F00
F80F80
F80F80
F807C0
F807E0
F803E0
F801F0
F801F8
F800F8
000000
007C00
007F00
007F80
000780
000780
000780
01FF80
01FF00
01FE00
ENDCHAR
STARTCHAR 0138
ENCODING 312
SWIDTH 500 0
DWIDTH 25 0
BBX 21 26 3 0
BITMAP
F801F0
F803E0
F807C0
F80F80
F81F00
F83E00
F87C00
F8F800
F9F000
FBE000
FFE000
FFF000
FFF800
FEF800
FC7C00
F83E00
F83E00
F81F00
F81F80
F80F80
F807C0
F807E0
F803E0
F801F0
F801F8
F800F8
ENDCHAR
STARTCHAR 0139
ENCODING 313
SWIDTH 540 0
DWIDTH 27 0
BBX 22 45 4 0
BITMAP
03F000
03E000
03E000
07C000
078000
0F0000
0E0000
000000
000000
F00000
F00000
F00000
F00000
F00000
F00000
F00000
F00000
F00000
F00000
F00000
F00000
F00000
F00000
F00000
F00000
F00000
F00000
F00000
F00000
F00000
F00000
F00000
F00000
F00000
F00000
F00000
F00000
F00000
F00000
F00000
F00000
FFFFFC
FFFFFC
FFFFFC
FFFFFC
ENDCHAR
STARTCHAR 013A
ENCODING 314
SWIDTH 220 0
DWIDTH 11 0
BBX 8 44 2 0
BITMAP
3F
3E
7C
7C
F8
F0
00
00
7C
7C
7C
7C
7C
7C
7C
7C
7C
7C
7C
7C
7C
7C
7C
7C
7C
7C
7C
7C
7C
7C
7C
7C
7C
7C
7C
7C
7C
7C
7C
7C
7C
7C
7C
7C
ENDCHAR
STARTCHAR 013B
ENCODING 315
SWIDTH 540 0
DWIDTH 27 0
BBX 22 46 4 -10
BITMAP
F00000
F00000
F00000
F00000
F00000
F00000
F00000
F00000
F00000
F00000
F00000
F00000
F00000
F00000
F00000
F00000
F00000
F00000
F00000
F00000
F00000
F00000
F00000
F00000
F00000
F00000
F00000
F00000
F00000
F00000
F00000
F00000
FFFFFC
FFFFFC
FFFFFC
FFFFFC
000000
007C00
007F00
007F80
000780
000780
000780
01FF80
01FF00
01FE00
ENDCHAR
STARTCHAR 013C
ENCODING 316
SWIDTH 220 0
DWIDTH 11 0
BBX 10 46 0 -10
BITMAP
1F00
1F00
1F00
1F00
1F00
1F00
1F00
1F00
1F00
1F00
1F00
1F00
1F00
1F00
1F00
1F00
1F00
1F00
1F00
1F00
1F00
1F00
1F00
1F00
1F00
1F00
1F00
1F00
1F00
1F00
1F00
1F00
1F00
1F00
1F00
1F00
0000
1E00
1F80
1FC0
03C0
03C0
03C0
FFC0
FF80
FF00
ENDCHAR
STARTCHAR 013D
ENCODING 317
SWIDTH 540 0
DWIDTH 27 0
BBX 22 36 4 0
BITMAP
F007C0
F007C0
F007C0
F007C0
F007C0
F000C0
F000C0
F000C0
F001C0
F003C0
F00780
F00300
F00000
F00000
F00000
F00000
F00000
F00000
F00000
F00000
F00000
F00000
F00000
F00000
F00000
F00000
F00000
F00000
F00000
F00000
F00000
F00000
FFFFFC
FFFFFC
FFFFFC
FFFFFC
ENDCHAR
STARTCHAR 013E
ENCODING 318
SWIDTH 280 0
DWIDTH 14 0
BBX 12 36 3 0
BITMAP
F9F0
F9F0
F9F0
F9F0
F9F0
F870
F860
F860
F8E0
F9C0
F880
F800
F800
F800
F800
F800
F800
F800
F800
F800
F800
F800
F800
F800
F800
F800
F800
F800
F800
F800
F800
F800
F800
F800
F800
F800
ENDCHAR
STARTCHAR 013F
ENCODING 319
SWIDTH 540 0
DWIDTH 27 0
BBX 22 36 4 0
BITMAP
F00000
F00000
F00000
F00000
F00000
F00000
F00000
F00000
F00000
F00000
F00000
F00000
F00000
F00000
F00000
F003E0
F003E0
F003E0
F003E0
F003E0
F00000
F00000
F00000
F00000
F00000
F00000
F00000
F00000
F00000
F00000
F00000
F00000
FFFFFC
FFFFFC
FFFFFC
FFFFFC
ENDCHAR
STARTCHAR 0140
ENCODING 320
SWIDTH 320 0
DWIDTH 16 0
BBX 14 36 3 0
BITMAP
F800
F800
F800
F800
F800
F800
F800
F800
F800
F800
F800
F800
F800
F800
F800
F8FC
F8FC
F8FC
F8FC
F8FC
F800
F800
F800
F800
F800
F800
F800
F800
F800
F800
F800
F800
F800
F800
F800
F800
ENDCHAR
STARTCHAR 0141
ENCODING 321
SWIDTH 540 0
DWIDTH 27 0
BBX 26 36 0 0
BITMAP
0F000000
0F000000
0F000000
0F000000
0F000000
0F000000
0F000000
0F000000
0F010000
0F030000
0F0F0000
0F1F0000
0F3E0000
0F7C0000
0FF80000
0FE00000
0FC00000
0F800000
1F000000
3F000000
7F000000
FF000000
EF000000
CF000000
8F000000
0F000000
0F000000
0F000000
0F000000
0F000000
0F000000
0F000000
0FFFFFC0
0FFFFFC0
0FFFFFC0
0FFFFFC0
ENDCHAR
STARTCHAR 0142
ENCODING 322
SWIDTH 220 0
DWIDTH 11 0
BBX 11 36 0 0
BITMAP
1F00
1F00
1F00
1F00
1F00
1F00
1F00
1F00
1F00
1F00
1F00
1F00
1F20
1F60
1FE0
1FE0
1FC0
1F80
1F00
3F00
FF00
FF00
FF00
9F00
1F00
1F00
1F00
1F00
1F00
1F00
1F00
1F00
1F00
1F00
1F00
1F00
ENDCHAR
STARTCHAR 0143
ENCODING 323
SWIDTH 720 0
DWIDTH 36 0
BBX 28 45 4 0
BITMAP
0007E000
0007C000
000F8000
000F0000
001F0000
001E0000
003C0000
00000000
00000000
F80001F0
FC0001F0
FC0001F0
FE0001F0
FF0001F0
FF0001F0
FF8001F0
FFC001F0
F7C001F0
F7E001F0
F3F001F0
F1F001F0
F1F801F0
F0FC01F0
F07C01F0
F07E01F0
F03F01F0
F01F01F0
F01F81F0
F00FC1F0
F007C1F0
F007E1F0
F003F1F0
F001F1F0
F001F9F0
F000FDF0
F0007DF0
F0007FF0
F0003FF0
F0001FF0
F0001FF0
F0000FF0
F00007F0
F00007F0
F00003F0
F00001F0
ENDCHAR
STARTCHAR 0144
ENCODING 324
SWIDTH 540 0
DWIDTH 27 0
BBX 21 36 3 0
BITMAP
001F80
003F00
003E00
003C00
007800
007800
00F000
000000
000000
000800
F0FF80
F3FFE0
F7FFF0
FFC7F0
FE01F8
FC00F8
FC0078
F80078
F80078
F80078
F80078
F80078
F80078
F80078
F80078
F80078
F80078
F80078
F80078
F80078
F80078
F80078
F80078
F80078
F80078
F80078
ENDCHAR
STARTCHAR 0145
ENCODING 325
SWIDTH 720 0
DWIDTH 36 0
BBX 28 46 4 -10
BITMAP
F80001F0
FC0001F0
FC0001F0
FE0001F0
FF0001F0
FF0001F0
FF8001F0
FFC001F0
F7C001F0
F7E001F0
F3F001F0
F1F001F0
F1F801F0
F0FC01F0
F07C01F0
F07E01F0
F03F01F0
F01F01F0
F01F81F0
F00FC1F0
F007C1F0
F007E1F0
F003F1F0
F001F1F0
F001F9F0
F000FDF0
F0007DF0
F0007FF0
F0003FF0
F0001FF0
F0001FF0
F0000FF0
F00007F0
F00007F0
F00003F0
F00001F0
00000000
0007C000
0007F000
0007F000
00007800
00007800
0000F800
001FF800
001FF000
001FC000
ENDCHAR
STARTCHAR 0146
ENCODING 326
SWIDTH 540 0
DWIDTH 27 0
BBX 21 37 3 -10
BITMAP
000800
F0FF80
F3FFE0
F7FFF0
FFC7F0
FE01F8
FC00F8
FC0078
F80078
F80078
F80078
F80078
F80078
F80078
F80078
F80078
F80078
F80078
F80078
F80078
F80078
F80078
F80078
F80078
F80078
F80078
F80078
000000
00F800
00FE00
00FF00
000F00
000F00
000F00
03FF00
03FE00
03FC00
ENDCHAR
STARTCHAR 0147
ENCODING 327
SWIDTH 720 0
DWIDTH 36 0
BBX 28 45 4 0
BITMAP
03E0F800
01F0F800
00F9F000
007BE000
007FC000
003F8000
001F8000
00000000
00000000
F80001F0
FC0001F0
FC0001F0
FE0001F0
FF0001F0
FF0001F0
FF8001F0
FFC001F0
F7C001F0
F7E001F0
F3F001F0
F1F001F0
F1F801F0
F0FC01F0
F07C01F0
F07E01F0
F03F01F0
F01F01F0
F01F81F0
F00FC1F0
F007C1F0
F007E1F0
F003F1F0
F001F1F0
F001F9F0
F000FDF0
F0007DF0
F0007FF0
F0003FF0
F0001FF0
F0001FF0
F0000FF0
F00007F0
F00007F0
F00003F0
F00001F0
ENDCHAR
STARTCHAR 0148
ENCODING 328
SWIDTH 540 0
DWIDTH 27 0
BBX 21 36 3 0
BITMAP
0F83E0
07C7C0
07CF80
03EF00
01FE00
00FE00
00FC00
000000
000000
000800
F0FF80
F3FFE0
F7FFF0
FFC7F0
FE01F8
FC00F8
FC0078
F80078
F80078
F80078
F80078
F80078
F80078
F80078
F80078
F80078
F80078
F80078
F80078
F80078
F80078
F80078
F80078
F80078
F80078
F80078
ENDCHAR
STARTCHAR 0149
ENCODING 329
SWIDTH 600 0
DWIDTH 30 0
BBX 28 36 -1 0
BITMAP
F8000000
F8000000
F8000000
F8000000
F8000000
18000000
18000000
38000000
30000000
70002000
E1E3FE00
01E7FF80
01FFFFC0
01FF9FE0
01FC07E0
01F803E0
01F001E0
01F001F0
01E001F0
01E001F0
01E001F0
01E001F0
01E001F0
01E001F0
01E001F0
01E001F0
01E001F0
01E001F0
01E001F0
01E001F0
01E001F0
01E001F0
01E001F0
01E001F0
01E001F0
01E001F0
ENDCHAR
STARTCHAR 014A
ENCODING 330
SWIDTH 720 0
DWIDTH 36 0
BBX 30 37 4 -1
BITMAP
F83FF800
F8FFFE00
F9FFFF80
FBFFFFC0
FFC01FC0
FF8007E0
FE0003E0
FE0003F0
FC0001F0
FC0001F8
F80000F8
F80000F8
F80000F8
F80000F8
F8000078
F8000078
F8000078
F800007C
F800007C
F8000078
F8000078
F8000078
F80000F8
F80000F8
F80000F8
F80000F8
F80000F8
F80001F0
F80001F0
F80003F0
F80003E0
F8020FE0
F807FFC0
F807FF80
F80FFF00
F807FE00
00007000
ENDCHAR
STARTCHAR 014B
ENCODING 331
SWIDTH 540 0
DWIDTH 27 0
BBX 21 38 3 -11
BITMAP
000800
F0FF80
F3FFE0
F7FFF0
F7C7F0
FF01F8
FC00F8
FC0078
F80078
F80078
F80078
F80078
F80078
F80078
F80078
F80078
F80078
F80078
F80078
F80078
F80078
F80078
F80078
F80078
F80078
F80078
F80078
000078
000078
000078
000078
000078
000078
0009F8
000FF0
000FF0
000FE0
000100
ENDCHAR
STARTCHAR 014C
ENCODING 332
SWIDTH 760 0
DWIDTH 38 0
BBX 35 44 2 -1
BITMAP
003FFFC000
003FFFC000
003FFFC000
003FFFC000
0000000000
0000000000
0000000000
000FFE0000
007FFFC000
00FFFFE000
03FFFFF800
07F803FC00
0FE000FE00
0FC0007E00
1F80003F00
3F00001F80
3E00000F80
3E00000F80
7C000007C0
7C000007C0
7C000007C0
7C000007C0
78000003C0
F8000003E0
F8000003E0
F8000003E0
F8000003E0
78000003E0
78000003C0
7C000007C0
7C000007C0
7C000007C0
3E00000F80
3E00000F80
3F00001F80
1F00001F00
0F80003E00
0FE000FE00
07F001FC00
03FFBFF800
01FFFFF000
007FFFC000
001FFF0000
0000E00000
ENDCHAR
STARTCHAR 014D
ENCODING 333
SWIDTH 540 0
DWIDTH 27 0
BBX 24 35 2 -1
BITMAP
0FFFF0
0FFFF0
0FFFF0
0FFFF0
000000
000000
000000
001800
01FF80
07FFE0
0FFFF0
1FC3F8
3E00FC
7C007C
7C003E
F8003E
F8001E
F8001F
F0001F
F0001F
F0001F
F0001F
F0001F
F0001F
F0001F
F8001F
F8003E
7C003E
7C007C
3E00FC
3F83F8
1FFFF0
07FFE0
03FF80
001800
ENDCHAR
STARTCHAR 014E
ENCODING 334
SWIDTH 760 0
DWIDTH 38 0
BBX 35 46 2 -1
BITMAP
001C038000
001C038000
001E078000
000F0F0000
000FFE0000
0007FC0000
0000F00000
0000000000
0000000000
000FFE0000
007FFFC000
00FFFFE000
03FFFFF800
07F803FC00
0FE000FE00
0FC0007E00
1F80003F00
3F00001F80
3E00000F80
3E00000F80
7C000007C0
7C000007C0
7C000007C0
7C000007C0
78000003C0
F8000003E0
F8000003E0
F8000003E0
F8000003E0
78000003E0
78000003C0
7C000007C0
7C000007C0
7C000007C0
3E00000F80
3E00000F80
3F00001F80
1F00001F00
0F80003E00
0FE000FE00
07F001FC00
03FFBFF800
01FFFFF000
007FFFC000
001FFF0000
0000E00000
ENDCHAR
STARTCHAR 014F
ENCODING 335
SWIDTH 540 0
DWIDTH 27 0
BBX 24 37 2 -1
BITMAP
0700E0
0700E0
0781E0
03FFC0
01FF80
00FF00
000800
000000
000000
001800
01FF80
07FFE0
0FFFF0
1FC3F8
3E00FC
7C007C
7C003E
F8003E
F8001E
F8001F
F0001F
F0001F
F0001F
F0001F
F0001F
F0001F
F0001F
F8001F
F8003E
7C003E
7C007C
3E00FC
3F83F8
1FFFF0
07FFE0
03FF80
001800
ENDCHAR
STARTCHAR 0150
ENCODING 336
SWIDTH 760 0
DWIDTH 38 0
BBX 35 46 2 -1
BITMAP
000FC7E000
000F8FC000
001F0F8000
001F0F0000
001E1F0000
003C1E0000
00383C0000
0000000000
0000000000
000FFE0000
007FFFC000
00FFFFE000
03FFFFF800
07F803FC00
0FE000FE00
0FC0007E00
1F80003F00
3F00001F80
3E00000F80
3E00000F80
7C000007C0
7C000007C0
7C000007C0
7C000007C0
78000003C0
F8000003E0
F8000003E0
F8000003E0
F8000003E0
78000003E0
78000003C0
7C000007C0
7C000007C0
7C000007C0
3E00000F80
3E00000F80
3F00001F80
1F00001F00
0F80003E00
0FE000FE00
07F001FC00
03FFBFF800
01FFFFF000
007FFFC000
001FFF0000
0000E00000
ENDCHAR
STARTCHAR 0151
ENCODING 337
SWIDTH 540 0
DWIDTH 27 0
BBX 24 37 2 -1
BITMAP
00F8FC
01F0F8
01F1F0
03E1F0
03C3E0
0783C0
078380
000000
000000
001800
01FF80
07FFE0
0FFFF0
1FC3F8
3E00FC
7C007C
7C003E
F8003E
F8001E
F8001F
F0001F
F0001F
F0001F
F0001F
F0001F
F0001F
F0001F
F8001F
F8003E
7C003E
7C007C
3E00FC
3F83F8
1FFFF0
07FFE0
03FF80
001800
ENDCHAR
STARTCHAR 0152
ENCODING 338
SWIDTH 1000 0
DWIDTH 50 0
BBX 45 37 3 -1
BITMAP
007FE0FFFFF8
01FFF8FFFFF8
03FFFCFFFFF8
07FDFEFFFFF8
0FE03FF80000
1F800FF80000
1F0007F80000
3E0003F80000
3E0003F80000
7C0001F80000
7C0001F80000
7C0001F80000
7C0000F80000
F80000F80000
F80000F80000
F80000FFFFE0
F80000FFFFE0
F80000FFFFE0
F80000FFFFE0
F80000FFFFE0
F80000F80000
F80000F80000
F80000F80000
780000F80000
7C0001F80000
7C0001F80000
7C0001F80000
3E0003F80000
3E0003F80000
1F0007F80000
1F800FF80000
0FC01FF80000
07F07EFFFFF8
03FFFCFFFFF8
01FFF8FFFFF8
007FF0FFFFF8
000B00000000
ENDCHAR
STARTCHAR 0153
ENCODING 339
SWIDTH 940 0
DWIDTH 47 0
BBX 43 28 2 -1
BITMAP
000000010000
01FF801FF000
07FFE07FFC00
0FFFF0FFFE00
1FC3F9F83F00
3F00FFE00F80
3E007FC007C0
7C003FC003C0
7C001F8003C0
78001F8003E0
F8001F8001E0
F8000F0001E0
F8000FFFFFE0
F8000FFFFFE0
F8000FFFFFE0
F8000F000000
F8000F000000
F8001F000000
F8001F800000
78001F8003E0
7C003FC003E0
7E007FC007C0
3F00FFE00FC0
1FC3FBF83F80
0FFFF1FFFF00
07FFE07FFE00
01FF803FF800
001800018000
ENDCHAR
STARTCHAR 0154
ENCODING 340
SWIDTH 720 0
DWIDTH 36 0
BBX 31 45 4 0
BITMAP
001F8000
001F0000
003E0000
003E0000
007C0000
00780000
00700000
00000000
00000000
FFFFF000
FFFFFF00
FFFFFF80
FFFFFFC0
F8001FE0
F80007F0
F80003F0
F80001F0
F80001F0
F80000F8
F80000F8
F80001F0
F80001F0
F80003F0
F80007E0
F8001FE0
FFFFFFC0
FFFFFF80
FFFFFE00
FFFFF000
F807F000
F801F800
F800FC00
F8007E00
F8003F00
F8001F80
F8001F80
F8000FC0
F80007E0
F80007E0
F80003F0
F80001F8
F80001F8
F80000FC
F800007E
F800007E
ENDCHAR
STARTCHAR 0155
ENCODING 341
SWIDTH 320 0
DWIDTH 16 0
BBX 14 36 3 0
BITMAP
03F0
07E0
07C0
0F80
0F00
0F00
1E00
0000
0000
0040
F1FC
F3FC
F7FC
FFF8
FF08
FC00
FC00
F800
F800
F800
F800
F800
F800
F800
F800
F800
F800
F800
F800
F800
F800
F800
F800
F800
F800
F800
ENDCHAR
STARTCHAR 0156
ENCODING 342
SWIDTH 720 0
DWIDTH 36 0
BBX 31 46 4 -10
BITMAP
FFFFF000
FFFFFF00
FFFFFF80
FFFFFFC0
F8001FE0
F80007F0
F80003F0
F80001F0
F80001F0
F80000F8
F80000F8
F80001F0
F80001F0
F80003F0
F80007E0
F8001FE0
FFFFFFC0
FFFFFF80
FFFFFE00
FFFFF000
F807F000
F801F800
F800FC00
F8007E00
F8003F00
F8001F80
F8001F80
F8000FC0
F80007E0
F80007E0
F80003F0
F80001F8
F80001F8
F80000FC
F800007E
F800007E
00000000
0007C000
0007F000
0007F000
00007800
00007800
0000F800
001FF800
001FF000
001FC000
ENDCHAR
STARTCHAR 0157
ENCODING 343
SWIDTH 320 0
DWIDTH 16 0
BBX 14 37 3 -10
BITMAP
0040
F1FC
F3FC
F7FC
FFF8
FF08
FC00
FC00
F800
F800
F800
F800
F800
F800
F800
F800
F800
F800
F800
F800
F800
F800
F800
F800
F800
F800
F800
0000
1F00
1FC0
1FC0
01E0
01E0
03E0
7FE0
7FC0
7F00
ENDCHAR
STARTCHAR 0158
ENCODING 344
SWIDTH 720 0
DWIDTH 36 0
BBX 31 45 4 0
BITMAP
0F83E000
07C3E000
03E7C000
03EF8000
01FF0000
00FE0000
007E0000
00000000
00000000
FFFFF000
FFFFFF00
FFFFFF80
FFFFFFC0
F8001FE0
F80007F0
F80003F0
F80001F0
F80001F0
F80000F8
F80000F8
F80001F0
F80001F0
F80003F0
F80007E0
F8001FE0
FFFFFFC0
FFFFFF80
FFFFFE00
FFFFF000
F807F000
F801F800
F800FC00
F8007E00
F8003F00
F8001F80
F8001F80
F8000FC0
F80007E0
F80007E0
F80003F0
F80001F8
F80001F8
F80000FC
F800007E
F800007E
ENDCHAR
STARTCHAR 0159
ENCODING 345
SWIDTH 320 0
DWIDTH 16 0
BBX 15 36 2 0
BITMAP
F83E
787C
7CF8
3EF0
1FE0
0FE0
0FC0
0000
0000
0020
78FE
79FE
7BFE
7FFC
7F84
7E00
7E00
7C00
7C00
7C00
7C00
7C00
7C00
7C00
7C00
7C00
7C00
7C00
7C00
7C00
7C00
7C00
7C00
7C00
7C00
7C00
ENDCHAR
STARTCHAR 015A
ENCODING 346
SWIDTH 660 0
DWIDTH 33 0
BBX 29 46 2 -1
BITMAP
0007E000
0007C000
000F8000
000F0000
001F0000
001E0000
003C0000
00000000
00000000
007FF000
03FFFC00
07FFFF00
0FFFFF80
1FC01FC0
1F0007C0
3E0003E0
3C0003E0
3C0001E0
3C0001F0
3C000180
3E000000
3F000000
1FC00000
1FF80000
0FFF8000
07FFF800
01FFFE00
003FFF80
0003FFC0
00003FE0
000007F0
000003F0
000001F0
F80000F8
F80000F8
F80000F8
7C0000F8
7C0000F0
7E0001F0
3F0003F0
1FC00FE0
1FFFFFC0
0FFFFF80
03FFFF00
00FFFC00
00038000
ENDCHAR
STARTCHAR 015B
ENCODING 347
SWIDTH 500 0
DWIDTH 25 0
BBX 21 37 2 -1
BITMAP
001F00
003E00
003E00
007C00
007800
00F000
00F000
000000
000000
006000
07FE00
1FFF80
3FFFC0
7E07E0
7803F0
F801F0
F800F0
F80000
FC0000
7F0000
7FE000
3FFE00
1FFFC0
07FFE0
007FF0
0007F8
0001F8
0000F8
F00078
F000F8
F800F8
7C01F0
7F03F0
3FFFE0
1FFFC0
07FF00
00F000
ENDCHAR
STARTCHAR 015C
ENCODING 348
SWIDTH 660 0
DWIDTH 33 0
BBX 29 46 2 -1
BITMAP
000F8000
001FC000
003FC000
003DE000
007DF000
00F8F800
01F07C00
00000000
00000000
007FF000
03FFFC00
07FFFF00
0FFFFF80
1FC01FC0
1F0007C0
3E0003E0
3C0003E0
3C0001E0
3C0001F0
3C000180
3E000000
3F000000
1FC00000
1FF80000
0FFF8000
07FFF800
01FFFE00
003FFF80
0003FFC0
00003FE0
000007F0
000003F0
000001F0
F80000F8
F80000F8
F80000F8
7C0000F8
7C0000F0
7E0001F0
3F0003F0
1FC00FE0
1FFFFFC0
0FFFFF80
03FFFF00
00FFFC00
00038000
ENDCHAR
STARTCHAR 015D
ENCODING 349
SWIDTH 500 0
DWIDTH 25 0
BBX 21 37 2 -1
BITMAP
00FC00
01FC00
01FE00
03EF00
07CF80
0F87C0
0F87C0
000000
000000
006000
07FE00
1FFF80
3FFFC0
7E07E0
7803F0
F801F0
F800F0
F80000
FC0000
7F0000
7FE000
3FFE00
1FFFC0
07FFE0
007FF0
0007F8
0001F8
0000F8
F00078
F000F8
F800F8
7C01F0
7F03F0
3FFFE0
1FFFC0
07FF00
00F000
ENDCHAR
STARTCHAR 015E
ENCODING 350
SWIDTH 660 0
DWIDTH 33 0
BBX 29 46 2 -10
BITMAP
007FF000
03FFFC00
07FFFF00
0FFFFF80
1FC01FC0
1F0007C0
3E0003E0
3C0003E0
3C0001E0
3C0001F0
3C000180
3E000000
3F000000
1FC00000
1FF80000
0FFF8000
07FFF800
01FFFE00
003FFF80
0003FFC0
00003FE0
000007F0
000003F0
000001F0
F80000F8
F80000F8
F80000F8
7C0000F8
7C0000F0
7E0001F0
3F0003F0
1FC00FE0
1FFFFFC0
0FFFFF80
03FFFF00
00FFFC00
000F8000
000E0000
000FC000
000FE000
0001E000
0001E000
0003E000
007FE000
007FC000
007F0000
ENDCHAR
STARTCHAR 015F
ENCODING 351
SWIDTH 500 0
DWIDTH 25 0
BBX 21 37 2 -10
BITMAP
006000
07FE00
1FFF80
3FFFC0
7E07E0
7803F0
F801F0
F800F0
F80000
FC0000
7F0000
7FE000
3FFE00
1FFFC0
07FFE0
007FF0
0007F8
0001F8
0000F8
F00078
F000F8
F800F8
7C01F0
7F03F0
3FFFE0
1FFFC0
07FF00
00F000
00E000
01FC00
007E00
001E00
001E00
007E00
07FC00
07F800
0FE000
ENDCHAR
STARTCHAR 0160
ENCODING 352
SWIDTH 660 0
DWIDTH 33 0
BBX 29 46 2 -1
BITMAP
03E07C00
01F0F800
00F9F000
0079E000
007FC000
003FC000
001F8000
00000000
00000000
007FF000
03FFFC00
07FFFF00
0FFFFF80
1FC01FC0
1F0007C0
3E0003E0
3C0003E0
3C0001E0
3C0001F0
3C000180
3E000000
3F000000
1FC00000
1FF80000
0FFF8000
07FFF800
01FFFE00
003FFF80
0003FFC0
00003FE0
000007F0
000003F0
000001F0
F80000F8
F80000F8
F80000F8
7C0000F8
7C0000F0
7E0001F0
3F0003F0
1FC00FE0
1FFFFFC0
0FFFFF80
03FFFF00
00FFFC00
00038000
ENDCHAR
STARTCHAR 0161
ENCODING 353
SWIDTH 500 0
DWIDTH 25 0
BBX 21 37 2 -1
BITMAP
1F07C0
0F8F80
0F9F00
07DE00
03FC00
01FC00
00F800
000000
000000
006000
07FE00
1FFF80
3FFFC0
7E07E0
7803F0
F801F0
F800F0
F80000
FC0000
7F0000
7FE000
3FFE00
1FFFC0
07FFE0
007FF0
0007F8
0001F8
0000F8
F00078
F000F8
F800F8
7C01F0
7F03F0
3FFFE0
1FFFC0
07FF00
00F000
ENDCHAR
STARTCHAR 0162
ENCODING 354
SWIDTH 600 0
DWIDTH 30 0
BBX 29 50 1 -14
BITMAP
FFFFFFF8
FFFFFFF8
FFFFFFF8
FFFFFFF8
000F8000
000F8000
000F8000
000F8000
000F8000
000F8000
000F8000
000F8000
000F8000
000F8000
000F8000
000F8000
000F8000
000F8000
000F8000
000F8000
000F8000
000F8000
000F8000
000F8000
000F8000
000F8000
000F8000
000F8000
000F8000
000F8000
000F8000
000F8000
000F8000
000F8000
000F8000
000F8000
00000000
00000000
00000000
000F8000
000F8000
000F8000
000F8000
000F8000
00038000
00038000
00030000
00070000
000E0000
000C0000
ENDCHAR
STARTCHAR 0163
ENCODING 355
SWIDTH 260 0
DWIDTH 13 0
BBX 12 47 1 -12
BITMAP
0600
1E00
1E00
1E00
1E00
1E00
1E00
1E00
FFF0
FFF0
FFF0
1E00
1E00
1E00
1E00
1E00
1E00
1E00
1E00
1E00
1E00
1E00
1E00
1E00
1E00
1E00
1E00
1E00
1F00
1F00
1FF0
0FF0
0FF0
07F0
0000
0000
0000
03C0
03C0
03C0
03C0
00C0
00C0
01C0
0180
0380
0300
ENDCHAR
STARTCHAR 0164
ENCODING 356
SWIDTH 600 0
DWIDTH 30 0
BBX 29 45 1 0
BITMAP
01F07C00
00F0F800
00F8F000
007DF000
003FE000
001FC000
001F8000
00000000
00000000
FFFFFFF8
FFFFFFF8
FFFFFFF8
FFFFFFF8
000F8000
000F8000
000F8000
000F8000
000F8000
000F8000
000F8000
000F8000
000F8000
000F8000
000F8000
000F8000
000F8000
000F8000
000F8000
000F8000
000F8000
000F8000
000F8000
000F8000
000F8000
000F8000
000F8000
000F8000
000F8000
000F8000
000F8000
000F8000
000F8000
000F8000
000F8000
000F8000
ENDCHAR
STARTCHAR 0165
ENCODING 357
SWIDTH 360 0
DWIDTH 18 0
BBX 18 36 1 0
BITMAP
0007C0
0007C0
0607C0
1E07C0
1E07C0
1E01C0
1E01C0
1E0180
1E0380
1E0700
FFF200
FFF000
FFF000
1E0000
1E0000
1E0000
1E0000
1E0000
1E0000
1E0000
1E0000
1E0000
1E0000
1E0000
1E0000
1E0000
1E0000
1E0000
1E0000
1E0000
1F0000
1F0000
1FF000
0FF000
0FF000
07F000
ENDCHAR
STARTCHAR 0166
ENCODING 358
SWIDTH 600 0
DWIDTH 30 0
BBX 29 36 1 0
BITMAP
FFFFFFF8
FFFFFFF8
FFFFFFF8
FFFFFFF8
000F8000
000F8000
000F8000
000F8000
000F8000
000F8000
000F8000
000F8000
000F8000
000F8000
000F8000
000F8000
000F8000
0FFFFF80
0FFFFF80
0FFFFF80
0FFFFF80
000F8000
000F8000
000F8000
000F8000
000F8000
000F8000
000F8000
000F8000
000F8000
000F8000
000F8000
000F8000
000F8000
000F8000
000F8000
ENDCHAR
STARTCHAR 0167
ENCODING 359
SWIDTH 260 0
DWIDTH 13 0
BBX 13 35 0 0
BITMAP
0100
0700
0F00
0F00
0F00
0F00
0F00
0F00
0F00
FFF0
FFF0
FFF0
0F00
0F00
0F00
0F00
0F00
0F00
0F00
FFF0
FFF0
FFF0
0F00
0F00
0F00
0F00
0F00
0F00
0F00
0F00
0F00
0FF0
0FF8
07F8
03F8
ENDCHAR
STARTCHAR 0168
ENCODING 360
SWIDTH 720 0
DWIDTH 36 0
BBX 28 45 4 -1
BITMAP
007C1E00
00FF1E00
01FFFC00
01E7FC00
03C1F800
03C00000
00000000
00000000
F80001F0
F80001F0
F80001F0
F80001F0
F80001F0
F80001F0
F80001F0
F80001F0
F80001F0
F80001F0
F80001F0
F80001F0
F80001F0
F80001F0
F80001F0
F80001F0
F80001F0
F80001F0
F80001F0
F80001F0
F80001F0
F80001F0
F80001F0
F80001F0
F80001F0
F80001F0
F80001F0
780003E0
7C0003E0
7E0007E0
3F0007C0
3F801FC0
1FFFFF80
0FFFFF00
07FFFE00
01FFF800
00078000
ENDCHAR
STARTCHAR 0169
ENCODING 361
SWIDTH 540 0
DWIDTH 27 0
BBX 21 36 3 -1
BITMAP
07E0E0
0FF9E0
1FFFE0
1E3FC0
1C0F80
000000
000000
000000
000000
F80078
F80078
F80078
F80078
F80078
F80078
F80078
F80078
F80078
F80078
F80078
F80078
F80078
F80078
F80078
F80078
F80078
F80078
F800F8
F800F8
7801F8
7C03F8
7F0FF8
3FFF78
1FFE78
0FFC78
01C000
ENDCHAR
STARTCHAR 016A
ENCODING 362
SWIDTH 720 0
DWIDTH 36 0
BBX 28 43 4 -1
BITMAP
01FFFC00
01FFFC00
01FFFC00
00000000
00000000
00000000
F80001F0
F80001F0
F80001F0
F80001F0
F80001F0
F80001F0
F80001F0
F80001F0
F80001F0
F80001F0
F80001F0
F80001F0
F80001F0
F80001F0
F80001F0
F80001F0
F80001F0
F80001F0
F80001F0
F80001F0
F80001F0
F80001F0
F80001F0
F80001F0
F80001F0
F80001F0
F80001F0
780003E0
7C0003E0
7E0007E0
3F0007C0
3F801FC0
1FFFFF80
0FFFFF00
07FFFE00
01FFF800
00078000
ENDCHAR
STARTCHAR 016B
ENCODING 363
SWIDTH 540 0
DWIDTH 27 0
BBX 21 35 3 -1
BITMAP
1FFFE0
1FFFE0
1FFFE0
1FFFE0
000000
000000
000000
000000
F80078
F80078
F80078
F80078
F80078
F80078
F80078
F80078
F80078
F80078
F80078
F80078
F80078
F80078
F80078
F80078
F80078
F80078
F800F8
F800F8
7801F8
7C03F8
7F0FF8
3FFF78
1FFE78
0FFC78
01C000
ENDCHAR
STARTCHAR 016C
ENCODING 364
SWIDTH 720 0
DWIDTH 36 0
BBX 28 45 4 -1
BITMAP
01C03800
01E07800
00F0F000
00FFF000
007FE000
001F8000
00000000
00000000
F80001F0
F80001F0
F80001F0
F80001F0
F80001F0
F80001F0
F80001F0
F80001F0
F80001F0
F80001F0
F80001F0
F80001F0
F80001F0
F80001F0
F80001F0
F80001F0
F80001F0
F80001F0
F80001F0
F80001F0
F80001F0
F80001F0
F80001F0
F80001F0
F80001F0
F80001F0
F80001F0
780003E0
7C0003E0
7E0007E0
3F0007C0
3F801FC0
1FFFFF80
0FFFFF00
07FFFE00
01FFF800
00078000
ENDCHAR
STARTCHAR 016D
ENCODING 365
SWIDTH 540 0
DWIDTH 27 0
BBX 21 37 3 -1
BITMAP
0E01C0
0E01C0
0F03C0
07FF80
03FF80
01FE00
001000
000000
000000
000000
F80078
F80078
F80078
F80078
F80078
F80078
F80078
F80078
F80078
F80078
F80078
F80078
F80078
F80078
F80078
F80078
F80078
F80078
F800F8
F800F8
7801F8
7C03F8
7F0FF8
3FFF78
1FFE78
0FFC78
01C000
ENDCHAR
STARTCHAR 016E
ENCODING 366
SWIDTH 720 0
DWIDTH 36 0
BBX 28 48 4 -1
BITMAP
000F0000
001F8000
0030C000
0030C000
00204000
0030C000
0030C000
001F8000
000F0000
00000000
00000000
F80001F0
F80001F0
F80001F0
F80001F0
F80001F0
F80001F0
F80001F0
F80001F0
F80001F0
F80001F0
F80001F0
F80001F0
F80001F0
F80001F0
F80001F0
F80001F0
F80001F0
F80001F0
F80001F0
F80001F0
F80001F0
F80001F0
F80001F0
F80001F0
F80001F0
F80001F0
F80001F0
780003E0
7C0003E0
7E0007E0
3F0007C0
3F801FC0
1FFFFF80
0FFFFF00
07FFFE00
01FFF800
00078000
ENDCHAR
STARTCHAR 016F
ENCODING 367
SWIDTH 540 0
DWIDTH 27 0
BBX 21 38 3 -1
BITMAP
007800
01FC00
018600
030600
030600
030600
018E00
00FC00
007800
000000
000000
F80078
F80078
F80078
F80078
F80078
F80078
F80078
F80078
F80078
F80078
F80078
F80078
F80078
F80078
F80078
F80078
F80078
F80078
F800F8
F800F8
7801F8
7C03F8
7F0FF8
3FFF78
1FFE78
0FFC78
01C000
ENDCHAR
STARTCHAR 0170
ENCODING 368
SWIDTH 720 0
DWIDTH 36 0
BBX 28 46 4 -1
BITMAP
003F1F00
003E3F00
007C3E00
007C7C00
00F87800
00F0F800
00E0F000
00000000
00000000
F80001F0
F80001F0
F80001F0
F80001F0
F80001F0
F80001F0
F80001F0
F80001F0
F80001F0
F80001F0
F80001F0
F80001F0
F80001F0
F80001F0
F80001F0
F80001F0
F80001F0
F80001F0
F80001F0
F80001F0
F80001F0
F80001F0
F80001F0
F80001F0
F80001F0
F80001F0
F80001F0
780003E0
7C0003E0
7E0007E0
3F0007C0
3F801FC0
1FFFFF80
0FFFFF00
07FFFE00
01FFF800
00078000
ENDCHAR
STARTCHAR 0171
ENCODING 369
SWIDTH 540 0
DWIDTH 27 0
BBX 21 37 3 -1
BITMAP
03E3F0
07C3E0
07C7C0
0F8780
0F0F80
1E0F00
1E1E00
000000
000000
000000
F80078
F80078
F80078
F80078
F80078
F80078
F80078
F80078
F80078
F80078
F80078
F80078
F80078
F80078
F80078
F80078
F80078
F80078
F800F8
F800F8
7801F8
7C03F8
7F0FF8
3FFF78
1FFE78
0FFC78
01C000
ENDCHAR
STARTCHAR 0172
ENCODING 370
SWIDTH 720 0
DWIDTH 36 0
BBX 28 46 4 -10
BITMAP
F80001F0
F80001F0
F80001F0
F80001F0
F80001F0
F80001F0
F80001F0
F80001F0
F80001F0
F80001F0
F80001F0
F80001F0
F80001F0
F80001F0
F80001F0
F80001F0
F80001F0
F80001F0
F80001F0
F80001F0
F80001F0
F80001F0
F80001F0
F80001F0
F80001F0
F80001F0
F80001F0
780003E0
7C0003E0
7E0007E0
3F0007C0
3F801FC0
1FFFFF80
0FFFFF00
07FFFE00
01FFF800
000F0000
000E0000
000E0000
000E0000
000E0000
000E0000
000F0400
000FFC00
0007FC00
0003F800
ENDCHAR
STARTCHAR 0173
ENCODING 371
SWIDTH 540 0
DWIDTH 27 0
BBX 27 36 3 -10
BITMAP
F8007800
F8007800
F8007800
F8007800
F8007800
F8007800
F8007800
F8007800
F8007800
F8007800
F8007800
F8007800
F8007800
F8007800
F8007800
F8007800
F8007800
F8007800
F800F800
F800F800
7801F800
7C03F800
7F0FF800
3FFF7800
1FFE7800
0FFC7800
00E07000
00007000
00007000
00007000
0000F000
0000F000
00007820
00007FE0
00003FE0
00001FC0
ENDCHAR
STARTCHAR 0174
ENCODING 372
SWIDTH 940 0
DWIDTH 47 0
BBX 46 45 1 0
BITMAP
00000F800000
00001FC00000
00003FE00000
00007DE00000
000078F00000
0000F8F80000
0001F07C0000
000000000000
000000000000
F8000FC0007C
F8001FC00078
F8001FC000F8
F8001FC000F8
78001FE000F0
7C003DE000F0
7C003DE001F0
3C003DF001F0
3C007CF001E0
3E0078F001E0
3E0078F003E0
1E0078F803E0
1E00F07803C0
1F00F07803C0
1F00F07C07C0
0F00F03C0780
0F01E03C0780
0F01E03C0780
0F81E03E0F80
0783E01E0F00
0783C01E0F00
0783C01F0F00
03C3C00F1F00
03C7800F1E00
03C7800F1E00
03C7800F1E00
01EF8007BC00
01EF0007BC00
01EF0007BC00
01EF0007BC00
00EE0003B800
00FE0003F800
00FE0003F800
00FE0001F800
007C0001F000
007C0001F000
ENDCHAR
STARTCHAR 0175
ENCODING 373
SWIDTH 720 0
DWIDTH 36 0
BBX 36 36 0 0
BITMAP
0000F80000
0001FC0000
0003FE0000
0007DE0000
000F8F0000
000F8F8000
001F07C000
0000000000
0000000000
0000000000
F800F001F0
7801F801E0
7801F801E0
7C01F803E0
7C01F803C0
3C03FC03C0
3C03FC03C0
3E03FC0780
1E03BE0780
1E079E0780
1F079E0F00
0F071E0F00
0F0F1F0F00
0F0F0F1F00
078F0F1E00
078E0F1E00
079E079E00
079E07BC00
03DE07BC00
03DC07BC00
03FC03F800
01FC03F800
01FC03F800
01F803F000
00F801F000
00F801F000
ENDCHAR
STARTCHAR 0176
ENCODING 374
SWIDTH 660 0
DWIDTH 33 0
BBX 33 45 0 0
BITMAP
0001F00000
0003F80000
0007F80000
000FBC0000
001F3E0000
001F1F0000
003E0F8000
0000000000
0000000000
FC00001F80
7E00001F00
3E00003E00
3F00007E00
1F80007C00
0F8000F800
0FC001F800
07E001F000
03E003E000
03F007E000
01F807C000
00F80F8000
00FC1F0000
007E1F0000
003E3E0000
003F3C0000
001F7C0000
000FF80000
000FF00000
0007F00000
0003E00000
0003E00000
0003E00000
0003E00000
0003E00000
0003E00000
0003E00000
0003E00000
0003E00000
0003E00000
0003E00000
0003E00000
0003E00000
0003E00000
0003E00000
0003E00000
ENDCHAR
STARTCHAR 0177
ENCODING 375
SWIDTH 500 0
DWIDTH 25 0
BBX 23 46 1 -11
BITMAP
003E00
007F00
00FF80
01F7C0
01E3C0
03E3E0
07C1F0
000000
000000
000000
F8001E
F8001E
78003E
7C003C
7C003C
3C007C
3E0078
1E00F8
1F00F0
1F00F0
0F01F0
0F81E0
0781E0
0783E0
07C3C0
03C7C0
03C780
03E780
01EF80
01EF00
00FF00
00FF00
00FE00
007E00
007C00
007C00
007C00
007800
007800
00F800
00F000
01F000
3FE000
3FE000
3FC000
3F8000
ENDCHAR
STARTCHAR 0178
ENCODING 376
SWIDTH 660 0
DWIDTH 33 0
BBX 33 43 0 0
BITMAP
003C1E0000
003C1E0000
003C1E0000
003C1E0000
003C1E0000
0000000000
0000000000
FC00001F80
7E00001F00
3E00003E00
3F00007E00
1F80007C00
0F8000F800
0FC001F800
07E001F000
03E003E000
03F007E000
01F807C000
00F80F8000
00FC1F0000
007E1F0000
003E3E0000
003F3C0000
001F7C0000
000FF80000
000FF00000
0007F00000
0003E00000
0003E00000
0003E00000
0003E00000
0003E00000
0003E00000
0003E00000
0003E00000
0003E00000
0003E00000
0003E00000
0003E00000
0003E00000
0003E00000
0003E00000
0003E00000
ENDCHAR
STARTCHAR 0179
ENCODING 377
SWIDTH 600 0
DWIDTH 30 0
BBX 28 45 1 0
BITMAP
0003E000
0007E000
0007C000
000F8000
000F0000
001E0000
001E0000
00000000
00000000
3FFFFFF0
3FFFFFF0
3FFFFFF0
3FFFFFF0
000003F0
000007E0
00000FC0
00001F80
00003F00
00003F00
00007E00
0000FC00
0001F800
0003F000
0003F000
0007E000
000FC000
001F8000
003F0000
003F0000
007E0000
00FC0000
01F80000
03F00000
03F00000
07E00000
0FC00000
1F800000
3F000000
3E000000
7E000000
FC000000
FFFFFFF0
FFFFFFF0
FFFFFFF0
FFFFFFF0
ENDCHAR
STARTCHAR 017A
ENCODING 378
SWIDTH 500 0
DWIDTH 25 0
BBX 23 36 1 0
BITMAP
000F80
001F00
001F00
003E00
003C00
007800
007000
000000
000000
000000
7FFFFC
7FFFFC
7FFFFC
7FFFFC
0000F8
0001F0
0003E0
0007C0
000F80
001F80
003F00
007E00
007C00
00F800
01F000
03E000
07E000
0FC000
1F8000
1F0000
3E0000
7C0000
FFFFFE
FFFFFE
FFFFFE
FFFFFE
ENDCHAR
STARTCHAR 017B
ENCODING 379
SWIDTH 600 0
DWIDTH 30 0
BBX 28 43 1 0
BITMAP
000F8000
000F8000
000F8000
000F8000
000F8000
00000000
00000000
3FFFFFF0
3FFFFFF0
3FFFFFF0
3FFFFFF0
000003F0
000007E0
00000FC0
00001F80
00003F00
00003F00
00007E00
0000FC00
0001F800
0003F000
0003F000
0007E000
000FC000
001F8000
003F0000
003F0000
007E0000
00FC0000
01F80000
03F00000
03F00000
07E00000
0FC00000
1F800000
3F000000
3E000000
7E000000
FC000000
FFFFFFF0
FFFFFFF0
FFFFFFF0
FFFFFFF0
ENDCHAR
STARTCHAR 017C
ENCODING 380
SWIDTH 500 0
DWIDTH 25 0
BBX 23 35 1 0
BITMAP
007C00
007C00
007C00
007C00
007C00
007C00
000000
000000
000000
7FFFFC
7FFFFC
7FFFFC
7FFFFC
0000F8
0001F0
0003E0
0007C0
000F80
001F80
003F00
007E00
007C00
00F800
01F000
03E000
07E000
0FC000
1F8000
1F0000
3E0000
7C0000
FFFFFE
FFFFFE
FFFFFE
FFFFFE
ENDCHAR
STARTCHAR 017D
ENCODING 381
SWIDTH 600 0
DWIDTH 30 0
BBX 28 45 1 0
BITMAP
01F07C00
00F8F800
00F8F000
007DF000
003FE000
001FC000
001F8000
00000000
00000000
3FFFFFF0
3FFFFFF0
3FFFFFF0
3FFFFFF0
000003F0
000007E0
00000FC0
00001F80
00003F00
00003F00
00007E00
0000FC00
0001F800
0003F000
0003F000
0007E000
000FC000
001F8000
003F0000
003F0000
007E0000
00FC0000
01F80000
03F00000
03F00000
07E00000
0FC00000
1F800000
3F000000
3E000000
7E000000
FC000000
FFFFFFF0
FFFFFFF0
FFFFFFF0
FFFFFFF0
ENDCHAR
STARTCHAR 017E
ENCODING 382
SWIDTH 500 0
DWIDTH 25 0
BBX 23 36 1 0
BITMAP
07C1F0
03E3E0
03E7C0
01F780
00FF00
007F00
007E00
000000
000000
000000
7FFFFC
7FFFFC
7FFFFC
7FFFFC
0000F8
0001F0
0003E0
0007C0
000F80
001F80
003F00
007E00
007C00
00F800
01F000
03E000
07E000
0FC000
1F8000
1F0000
3E0000
7C0000
FFFFFE
FFFFFE
FFFFFE
FFFFFE
ENDCHAR
STARTCHAR 017F
ENCODING 383
SWIDTH 220 0
DWIDTH 11 0
BBX 12 36 3 0
BITMAP
1FF0
3FE0
7FE0
7FE0
7C00
F800
F800
F800
F800
F800
F800
F800
F800
F800
F800
F800
F800
F800
F800
F800
F800
F800
F800
F800
F800
F800
F800
F800
F800
F800
F800
F800
F800
F800
F800
F800
ENDCHAR
STARTCHAR 018F
ENCODING 399
SWIDTH 740 0
DWIDTH 37 0
BBX 33 37 2 -1
BITMAP
001FFC0000
007FFF8000
01FFFFC000
03FFFFF000
07F807F800
0FE001FC00
0FC0007C00
1F80003E00
1F00003E00
1F00001F00
0E00001F00
0000000F80
0000000F80
0000000F80
0000000F80
FFFFFFFF80
FFFFFFFF80
FFFFFFFF80
FFFFFFFF80
FFFFFFFF80
7800000F80
7800000F80
7C00000F80
7C00000F80
7C00000F80
7C00001F00
3E00001F00
3E00003F00
1F00003E00
1F80007E00
0FC000FC00
07F003F800
07FE3FF000
01FFFFE000
00FFFFC000
003FFF0000
0000C00000
ENDCHAR
STARTCHAR 0192
ENCODING 402
SWIDTH 540 0
DWIDTH 27 0
BBX 25 47 1 -11
BITMAP
0000FF80
0001FF80
0001FF80
0003FF80
0003E000
0003C000
0007C000
0007C000
0007C000
00078000
00FFFC00
00FFFC00
01FFFC00
000F8000
000F0000
000F0000
000F0000
001F0000
001F0000
001F0000
001E0000
001E0000
001E0000
003E0000
003E0000
003E0000
003C0000
003C0000
003C0000
007C0000
007C0000
00780000
00780000
00780000
00780000
00F80000
00F80000
00F00000
00F00000
00F00000
01F00000
01F00000
63E00000
7FE00000
FFC00000
FF800000
0C000000
ENDCHAR
STARTCHAR 01A0
ENCODING 416
SWIDTH 840 0
DWIDTH 42 0
BBX 40 37 2 -1
BITMAP
000FFE001F
007FFFC01F
00FFFFE01F
03FFFFF81F
07F803FC1F
0FE000FE07
0FC0007E06
1F80003F06
1F00001F8E
3E00000F9C
3E00000FB8
7C000007F0
7C000007C0
7C000007C0
7C000007C0
78000003E0
F8000003E0
F8000003E0
F8000003E0
F8000003E0
78000003E0
78000003C0
7C000007C0
7C000007C0
7C000007C0
3E00000F80
3E00000F80
3F00001F80
1F00001F00
0F80003E00
0FE000FE00
07F001FC00
03FFBFF800
01FFFFF000
007FFFC000
001FFF0000
0000E00000
ENDCHAR
STARTCHAR 01A1
ENCODING 417
SWIDTH 640 0
DWIDTH 32 0
BBX 29 28 2 -1
BITMAP
00180078
01FF8078
07FFE078
0FFFF078
1F83F878
3E00FC78
7C007C18
7C003E18
F8003E38
F8001E70
F8001FE0
F0001FC0
F0001F80
F0001F00
F0001F00
F0001F00
F0001F00
F8001F00
F8001E00
F8003E00
7C003E00
7C007C00
3E00FC00
3F83F800
1FFFF000
07FFE000
03FF8000
00180000
ENDCHAR
STARTCHAR 01AF
ENCODING 431
SWIDTH 840 0
DWIDTH 42 0
BBX 37 37 4 -1
BITMAP
F80001F0F8
F80001F0F8
F80001F0F8
F80001F0F8
F80001F0F8
F80001F038
F80001F038
F80001F030
F80001F030
F80001F070
F80001F0E0
F80001F1C0
F80001FF80
F80001FE00
F80001F000
F80001F000
F80001F000
F80001F000
F80001F000
F80001F000
F80001F000
F80001F000
F80001F000
F80001F000
F80001F000
F80001F000
F80001F000
780003E000
7C0003E000
7E0007E000
3F0007C000
3F801FC000
1FFFFF8000
0FFFFF0000
07FFFE0000
01FFF80000
0007000000
ENDCHAR
STARTCHAR 01B0
ENCODING 432
SWIDTH 660 0
DWIDTH 33 0
BBX 29 27 3 -1
BITMAP
F80078F8
F80078F8
F80078F8
F80078F8
F80078F8
F8007818
F8007838
F8007838
F8007830
F8007830
F8007860
F80079C0
F8007F80
F8007E00
F8007800
F8007800
F8007800
F8007800
F800F800
F800F800
7801F800
7C03F800
7F0FF800
3FFF7800
1FFE7800
0FFC7800
01C00000
ENDCHAR
STARTCHAR 01CD
ENCODING 461
SWIDTH 660 0
DWIDTH 33 0
BBX 33 45 0 0
BITMAP
007C1F0000
007C3E0000
003E3C0000
001F7C0000
000FF80000
000FF00000
0007E00000
0000000000
0000000000
0003E00000
0007E00000
0007F00000
000FF00000
000FF80000
000F780000
001F780000
001E7C0000
003E3C0000
003E3E0000
003C3E0000
007C1E0000
007C1F0000
00781F0000
00F80F8000
00F00F8000
01F0078000
01F007C000
01E007C000
03E003E000
03E003E000
07FFFFF000
07FFFFF000
07FFFFF000
0FFFFFF800
0F8000F800
0F0000FC00
1F00007C00
1F00007C00
3E00003E00
3E00003E00
3E00003F00
7C00001F00
7C00001F00
FC00001F80
F800000F80
ENDCHAR
STARTCHAR 01CE
ENCODING 462
SWIDTH 540 0
DWIDTH 27 0
BBX 23 37 2 -1
BITMAP
07C1F0
03E3E0
01F3C0
00F7C0
00FF80
007F00
003E00
000000
000000
001800
03FFC0
0FFFF0
1FFFF8
3F83FC
3E00FC
7C007C
78003C
78003C
00003C
00003C
0003FC
01FFFC
0FFFFC
3FFF3C
7FF03C
7E003C
F8003C
F8003C
F8007C
F8007C
F800FC
F801FC
7E07FE
7FFFBE
3FFF1E
1FFC1E
01C000
ENDCHAR
STARTCHAR 01CF
ENCODING 463
SWIDTH 260 0
DWIDTH 13 0
BBX 16 45 -1 0
BITMAP
F81F
7C3E
3E7C
1E78
1FF0
0FF0
07E0
0000
0000
03C0
03C0
03C0
03C0
03C0
03C0
03C0
03C0
03C0
03C0
03C0
03C0
03C0
03C0
03C0
03C0
03C0
03C0
03C0
03C0
03C0
03C0
03C0
03C0
03C0
03C0
03C0
03C0
03C0
03C0
03C0
03C0
03C0
03C0
03C0
03C0
ENDCHAR
STARTCHAR 01D0
ENCODING 464
SWIDTH 220 0
DWIDTH 11 0
BBX 15 36 -2 0
BITMAP
F83E
7C3C
3E7C
1EF8
0FF0
0FE0
07C0
0000
0000
0000
07C0
07C0
07C0
07C0
07C0
07C0
07C0
07C0
07C0
07C0
07C0
07C0
07C0
07C0
07C0
07C0
07C0
07C0
07C0
07C0
07C0
07C0
07C0
07C0
07C0
07C0
ENDCHAR
STARTCHAR 01D1
ENCODING 465
SWIDTH 760 0
DWIDTH 38 0
BBX 35 46 2 -1
BITMAP
003E0F8000
001F0F8000
000F1F0000
000FBE0000
0007FC0000
0003F80000
0001F80000
0000000000
0000000000
000FFE0000
007FFFC000
00FFFFE000
03FFFFF800
07F803FC00
0FE000FE00
0FC0007E00
1F80003F00
3F00001F80
3E00000F80
3E00000F80
7C000007C0
7C000007C0
7C000007C0
7C000007C0
78000003C0
F8000003E0
F8000003E0
F8000003E0
F8000003E0
78000003E0
78000003C0
7C000007C0
7C000007C0
7C000007C0
3E00000F80
3E00000F80
3F00001F80
1F00001F00
0F80003E00
0FE000FE00
07F001FC00
03FFBFF800
01FFFFF000
007FFFC000
001FFF0000
0000E00000
ENDCHAR
STARTCHAR 01D2
ENCODING 466
SWIDTH 540 0
DWIDTH 27 0
BBX 24 37 2 -1
BITMAP
0F83E0
07C3C0
03E7C0
01EF80
00FF00
00FE00
007C00
000000
000000
001800
01FF80
07FFE0
0FFFF0
1FC3F8
3E00FC
7C007C
7C003E
F8003E
F8001E
F8001F
F0001F
F0001F
F0001F
F0001F
F0001F
F0001F
F0001F
F8001F
F8003E
7C003E
7C007C
3E00FC
3F83F8
1FFFF0
07FFE0
03FF80
001800
ENDCHAR
STARTCHAR 01D3
ENCODING 467
SWIDTH 720 0
DWIDTH 36 0
BBX 28 46 4 -1
BITMAP
01F07C00
00F07800
00F8F800
007DF000
003DE000
001FC000
001F8000
00000000
00000000
F80001F0
F80001F0
F80001F0
F80001F0
F80001F0
F80001F0
F80001F0
F80001F0
F80001F0
F80001F0
F80001F0
F80001F0
F80001F0
F80001F0
F80001F0
F80001F0
F80001F0
F80001F0
F80001F0
F80001F0
F80001F0
F80001F0
F80001F0
F80001F0
F80001F0
F80001F0
F80001F0
780003E0
7C0003E0
7E0007E0
3F0007C0
3F801FC0
1FFFFF80
0FFFFF00
07FFFE00
01FFF800
00078000
ENDCHAR
STARTCHAR 01D4
ENCODING 468
SWIDTH 540 0
DWIDTH 27 0
BBX 21 37 3 -1
BITMAP
0F87C0
0787C0
07CF80
03EF00
01FE00
00FC00
00FC00
000000
000000
000000
F80078
F80078
F80078
F80078
F80078
F80078
F80078
F80078
F80078
F80078
F80078
F80078
F80078
F80078
F80078
F80078
F80078
F80078
F800F8
F800F8
7801F8
7C03F8
7F0FF8
3FFF78
1FFE78
0FFC78
01C000
ENDCHAR
STARTCHAR 01D5
ENCODING 469
SWIDTH 720 0
DWIDTH 36 0
BBX 28 46 4 -1
BITMAP
00FFF800
00FFF800
00FFF800
00000000
00000000
00E07800
00E07800
00E07800
00000000
F80001F0
F80001F0
F80001F0
F80001F0
F80001F0
F80001F0
F80001F0
F80001F0
F80001F0
F80001F0
F80001F0
F80001F0
F80001F0
F80001F0
F80001F0
F80001F0
F80001F0
F80001F0
F80001F0
F80001F0
F80001F0
F80001F0
F80001F0
F80001F0
F80001F0
F80001F0
F80001F0
780003E0
7C0003E0
7E0007E0
3F0007C0
3F801FC0
1FFFFF80
0FFFFF00
07FFFE00
01FFF800
00078000
ENDCHAR
STARTCHAR 01D6
ENCODING 470
SWIDTH 540 0
DWIDTH 27 0
BBX 21 44 3 -1
BITMAP
1FFFC0
1FFFC0
1FFFC0
1FFFC0
000000
000000
000000
0F07C0
0F07C0
0F07C0
0F07C0
0F07C0
000000
000000
000000
000000
000000
F80078
F80078
F80078
F80078
F80078
F80078
F80078
F80078
F80078
F80078
F80078
F80078
F80078
F80078
F80078
F80078
F80078
F80078
F800F8
F800F8
7801F8
7C03F8
7F0FF8
3FFF78
1FFE78
0FFC78
01C000
ENDCHAR
STARTCHAR 01D7
ENCODING 471
SWIDTH 720 0
DWIDTH 36 0
BBX 28 46 4 -1
BITMAP
0001F000
0003E000
00078000
000F0000
00000000
00E07800
00E07800
00E07800
00000000
F80001F0
F80001F0
F80001F0
F80001F0
F80001F0
F80001F0
F80001F0
F80001F0
F80001F0
F80001F0
F80001F0
F80001F0
F80001F0
F80001F0
F80001F0
F80001F0
F80001F0
F80001F0
F80001F0
F80001F0
F80001F0
F80001F0
F80001F0
F80001F0
F80001F0
F80001F0
F80001F0
780003E0
7C0003E0
7E0007E0
3F0007C0
3F801FC0
1FFFFF80
0FFFFF00
07FFFE00
01FFF800
00078000
ENDCHAR
STARTCHAR 01D8
ENCODING 472
SWIDTH 540 0
DWIDTH 27 0
BBX 21 46 3 -1
BITMAP
001F80
001F00
003E00
003C00
007C00
007800
00F000
000000
000000
0F07C0
0F07C0
0F07C0
0F07C0
0F07C0
000000
000000
000000
000000
000000
F80078
F80078
F80078
F80078
F80078
F80078
F80078
F80078
F80078
F80078
F80078
F80078
F80078
F80078
F80078
F80078
F80078
F80078
F800F8
F800F8
7801F8
7C03F8
7F0FF8
3FFF78
1FFE78
0FFC78
01C000
ENDCHAR
STARTCHAR 01D9
ENCODING 473
SWIDTH 720 0
DWIDTH 36 0
BBX 28 46 4 -1
BITMAP
0078E000
003DE000
001FC000
000F8000
00000000
00E07800
00E07800
00E07800
00000000
F80001F0
F80001F0
F80001F0
F80001F0
F80001F0
F80001F0
F80001F0
F80001F0
F80001F0
F80001F0
F80001F0
F80001F0
F80001F0
F80001F0
F80001F0
F80001F0
F80001F0
F80001F0
F80001F0
F80001F0
F80001F0
F80001F0
F80001F0
F80001F0
F80001F0
F80001F0
F80001F0
780003E0
7C0003E0
7E0007E0
3F0007C0
3F801FC0
1FFFFF80
0FFFFF00
07FFFE00
01FFF800
00078000
ENDCHAR
STARTCHAR 01DA
ENCODING 474
SWIDTH 540 0
DWIDTH 27 0
BBX 21 46 3 -1
BITMAP
0F87C0
0787C0
07CF80
03EF00
01FE00
00FC00
00FC00
000000
000000
0F07C0
0F07C0
0F07C0
0F07C0
0F07C0
000000
000000
000000
000000
000000
F80078
F80078
F80078
F80078
F80078
F80078
F80078
F80078
F80078
F80078
F80078
F80078
F80078
F80078
F80078
F80078
F80078
F80078
F800F8
F800F8
7801F8
7C03F8
7F0FF8
3FFF78
1FFE78
0FFC78
01C000
ENDCHAR
STARTCHAR 01DB
ENCODING 475
SWIDTH 720 0
DWIDTH 36 0
BBX 28 46 4 -1
BITMAP
007C0000
003E0000
001F0000
00070000
00000000
00E07800
00E07800
00E07800
00000000
F80001F0
F80001F0
F80001F0
F80001F0
F80001F0
F80001F0
F80001F0
F80001F0
F80001F0
F80001F0
F80001F0
F80001F0
F80001F0
F80001F0
F80001F0
F80001F0
F80001F0
F80001F0
F80001F0
F80001F0
F80001F0
F80001F0
F80001F0
F80001F0
F80001F0
F80001F0
F80001F0
780003E0
7C0003E0
7E0007E0
3F0007C0
3F801FC0
1FFFFF80
0FFFFF00
07FFFE00
01FFF800
00078000
ENDCHAR
STARTCHAR 01DC
ENCODING 476
SWIDTH 540 0
DWIDTH 27 0
BBX 21 46 3 -1
BITMAP
07C000
07E000
03E000
01F000
00F000
007800
003800
000000
000000
0F07C0
0F07C0
0F07C0
0F07C0
0F07C0
000000
000000
000000
000000
000000
F80078
F80078
F80078
F80078
F80078
F80078
F80078
F80078
F80078
F80078
F80078
F80078
F80078
F80078
F80078
F80078
F80078
F80078
F800F8
F800F8
7801F8
7C03F8
7F0FF8
3FFF78
1FFE78
0FFC78
01C000
ENDCHAR
STARTCHAR 01FA
ENCODING 506
SWIDTH 660 0
DWIDTH 33 0
BBX 33 52 0 0
BITMAP
00007C0000
0000FC0000
0000F80000
0001F00000
0001E00000
0003E00000
0003C00000
0000000000
0000000000
0007E00000
000E700000
000C300000
000C100000
000C180000
000C300000
000E700000
0007E00000
0007E00000
0007F00000
000FF00000
000FF80000
000F780000
001F780000
001E7C0000
003E3C0000
003E3E0000
003C3E0000
007C1E0000
007C1F0000
00781F0000
00F80F8000
00F00F8000
01F0078000
01F007C000
01E007C000
03E003E000
03E003E000
07FFFFF000
07FFFFF000
07FFFFF000
0FFFFFF800
0F8000F800
0F0000FC00
1F00007C00
1F00007C00
3E00003E00
3E00003E00
3E00003F00
7C00001F00
7C00001F00
FC00001F80
F800000F80
ENDCHAR
STARTCHAR 01FB
ENCODING 507
SWIDTH 540 0
DWIDTH 27 0
BBX 23 48 2 -1
BITMAP
0007E0
0007C0
000F80
000F00
001F00
001E00
003C00
000000
000000
000000
003C00
00FE00
00C300
018300
018300
018300
00C700
007E00
003C00
000000
001800
03FFC0
0FFFF0
1FFFF8
3F83FC
3E00FC
7C007C
78003C
78003C
00003C
00003C
0003FC
01FFFC
0FFFFC
3FFF3C
7FF03C
7E003C
F8003C
F8003C
F8007C
F8007C
F800FC
F801FC
7E07FE
7FFFBE
3FFF1E
1FFC1E
01C000
ENDCHAR
STARTCHAR 01FC
ENCODING 508
SWIDTH 1000 0
DWIDTH 50 0
BBX 47 45 0 0
BITMAP
0000007C0000
000000F80000
000000F80000
000001F00000
000001E00000
000003C00000
000003C00000
000000000000
000000000000
00007FFFFFFE
00007FFFFFFE
0000FFFFFFFE
0000FFFFFFFE
0001F0F80000
0001F0F80000
0003E0F80000
0003E0F80000
0007C0F80000
0007C0F80000
000F80F80000
000F80F80000
001F00F80000
001F00F80000
003E00F80000
003E00FFFFF8
007C00FFFFF8
007C00FFFFF8
00F800FFFFF8
00F800FFFFF8
01F800F80000
01FFFFF80000
03FFFFF80000
03FFFFF80000
03FFFFF80000
07FFFFF80000
07C000F80000
0F8000F80000
0F8000F80000
1F0000F80000
1F0000F80000
3E0000F80000
3E0000FFFFFE
7C0000FFFFFE
7C0000FFFFFE
F80000FFFFFE
ENDCHAR
STARTCHAR 01FD
ENCODING 509
SWIDTH 880 0
DWIDTH 44 0
BBX 40 37 2 -1
BITMAP
000007E000
000007C000
00000F8000
00000F0000
00001F0000
00001E0000
00003C0000
0000000000
0000000000
0010000C00
03FFC0FFC0
0FFFE3FFF0
1FFFF7FFF8
3F83FFE1FC
7C00FF807C
7C007E003E
78007E001E
F8007C001F
00007C000F
00007C000F
0003FC000F
01FFFFFFFF
0FFFFFFFFF
3FFF7FFFFF
7FE07C0000
7E007C0000
F8007C0000
F8007C0000
F0007C001F
F000FE001F
F800FE003E
F801FF807E
FC07CFC0FC
7FFF87FFF8
3FFF03FFF0
1FFC00FFC0
0180000C00
ENDCHAR
STARTCHAR 01FE
ENCODING 510
SWIDTH 760 0
DWIDTH 38 0
BBX 35 46 2 -1
BITMAP
00003E0000
00007E0000
00007C0000
0000F80000
0000F00000
0001E00000
0001E00000
0000000000
0000000080
000FFE01E0
007FFFC3E0
00FFFFE7C0
03FFFFFF80
07F803FF00
0FE000FE00
0FC0007E00
1F00007F00
3F0000FF00
3E0001EF80
3E0003EF80
7C0007C7C0
7C000F87C0
7C000F07C0
78001E07C0
F8003C07C0
F8007803C0
F800F003E0
F801E003E0
F803C003E0
F807C003C0
780F8007C0
7C0F0007C0
7C1E0007C0
7C3C0007C0
3E78000F80
3EF0000F80
3FE0001F80
1FC0003F00
0FC0007E00
0FE000FE00
1FF001FC00
1FFFBFF800
3DFFFFF000
787FFFC000
F01FFF0000
6000E00000
ENDCHAR
STARTCHAR 01FF
ENCODING 511
SWIDTH 600 0
DWIDTH 30 0
BBX 24 38 3 -2
BITMAP
0007E0
0007C0
000F80
000F00
001E00
001E00
003C00
000000
000000
000006
01FF8F
07FFEE
0FFFFC
1FC3FC
3F00FC
3E00FE
7C00FE
7C01FF
7803DF
F8078F
F8070F
F80F0F
F81E0F
F83C0F
F8380F
F8700F
F8F00F
79E01F
7FC01F
7F803E
3F803E
3F007C
1FC1FC
1FFFF8
3FFFE0
79FFC0
702800
200000
ENDCHAR
STARTCHAR 0259
ENCODING 601
SWIDTH 540 0
DWIDTH 27 0
BBX 24 28 2 -1
BITMAP
001800
03FF80
0FFFE0
1FFFF0
3F83F8
3E00FC
7C007C
7C003E
F8003E
00001F
00001F
00001F
00001F
FFFFFF
FFFFFF
FFFFFF
FFFFFF
F8001F
78001E
78001E
7C003E
3C007C
3E00FC
1F83F8
0FFFF0
07FFE0
01FF80
001C00
ENDCHAR
STARTCHAR 02C6
ENCODING 710
SWIDTH 320 0
DWIDTH 16 0
BBX 15 7 1 29
BITMAP
07C0
0FE0
1FF0
3EF0
7C78
7C7C
F83E
ENDCHAR
STARTCHAR 02C7
ENCODING 711
SWIDTH 320 0
DWIDTH 16 0
BBX 15 7 1 29
BITMAP
F83E
7C7C
3E78
1EF8
1FF0
0FE0
07C0
ENDCHAR
STARTCHAR 02C9
ENCODING 713
SWIDTH 320 0
DWIDTH 16 0
BBX 15 4 1 30
BITMAP
FFFE
FFFE
FFFE
FFFE
ENDCHAR
STARTCHAR 02D8
ENCODING 728
SWIDTH 320 0
DWIDTH 16 0
BBX 15 7 1 29
BITMAP
E01E
F01C
703C
7EF8
3FF8
1FF0
0100
ENDCHAR
STARTCHAR 02D9
ENCODING 729
SWIDTH 320 0
DWIDTH 16 0
BBX 5 6 6 29
BITMAP
F8
F8
F8
F8
F8
F8
ENDCHAR
STARTCHAR 02DA
ENCODING 730
SWIDTH 320 0
DWIDTH 16 0
BBX 9 9 4 28
BITMAP
3C00
7F00
E300
C180
C180
C180
E300
7F00
3C00
ENDCHAR
STARTCHAR 02DB
ENCODING 731
SWIDTH 320 0
DWIDTH 16 0
BBX 11 11 4 -10
BITMAP
7000
7000
7000
7000
7000
F000
F000
7820
7FE0
3FE0
1FC0
ENDCHAR
STARTCHAR 02DC
ENCODING 732
SWIDTH 320 0
DWIDTH 16 0
BBX 16 5 0 30
BITMAP
3F07
7FCF
7FFF
F1FE
E07C
ENDCHAR
STARTCHAR 02DD
ENCODING 733
SWIDTH 320 0
DWIDTH 16 0
BBX 16 7 2 29
BITMAP
3F1F
3E3F
7C3E
787C
F878
F0F8
E0F0
ENDCHAR
STARTCHAR 0300
ENCODING 768
SWIDTH 0 0
DWIDTH 0 0
BBX 9 7 -13 38
BITMAP
FC00
7C00
3E00
1E00
1F00
0F00
0780
ENDCHAR
STARTCHAR 0301
ENCODING 769
SWIDTH 0 0
DWIDTH 0 0
BBX 9 7 -9 38
BITMAP
1F80
3F00
3E00
3C00
7C00
7800
F000
ENDCHAR
STARTCHAR 0303
ENCODING 771
SWIDTH 0 0
DWIDTH 0 0
BBX 16 5 -22 38
BITMAP
3F07
7FCF
FFFF
E1FE
E07C
ENDCHAR
STARTCHAR 0309
ENCODING 777
SWIDTH 0 0
DWIDTH 0 0
BBX 10 8 -11 37
BITMAP
FC00
FF80
FFC0
03C0
03C0
1F80
1F00
1C00
ENDCHAR
STARTCHAR 0323
ENCODING 803
SWIDTH 0 0
DWIDTH 0 0
BBX 5 5 -19 -8
BITMAP
F8
F8
F8
F8
F8
ENDCHAR
STARTCHAR 037E
ENCODING 894
SWIDTH 260 0
DWIDTH 13 0
BBX 5 33 4 -7
BITMAP
F8
F8
F8
F8
F8
00
00
00
00
00
00
00
00
00
00
00
00
00
00
00
00
F8
F8
F8
F8
F8
18
18
18
38
70
F0
40
ENDCHAR
STARTCHAR 0384
ENCODING 900
SWIDTH 320 0
DWIDTH 16 0
BBX 8 7 6 29
BITMAP
3F
3E
7C
7C
78
F0
E0
ENDCHAR
STARTCHAR 0385
ENCODING 901
SWIDTH 320 0
DWIDTH 16 0
BBX 18 7 -1 30
BITMAP
007C00
007800
F8F3C0
F8F3C0
F9E3C0
F9C3C0
FB83C0
ENDCHAR
STARTCHAR 0386
ENCODING 902
SWIDTH 660 0
DWIDTH 33 0
BBX 33 36 0 0
BITMAP
0FC3E00000
0F87E00000
1F87F00000
1F0FF00000
1E0FF80000
3C0F780000
381F780000
001E7C0000
001E3C0000
003E3E0000
003C3E0000
007C1E0000
007C1F0000
00780F0000
00F80F8000
00F00F8000
01F007C000
01F007C000
01E007C000
03E003E000
03E003E000
03FFFFF000
07FFFFF000
07FFFFF000
0FFFFFF800
0F8000F800
0F0000FC00
1F00007C00
1F00007C00
3E00003E00
3E00003E00
3E00003F00
7C00001F00
7C00001F00
7C00001F80
F800000F80
ENDCHAR
STARTCHAR 0387
ENCODING 903
SWIDTH 260 0
DWIDTH 13 0
BBX 5 5 5 21
BITMAP
F8
F8
F8
F8
F8
ENDCHAR
STARTCHAR 0388
ENCODING 904
SWIDTH 780 0
DWIDTH 39 0
BBX 39 36 -2 0
BITMAP
1F8FFFFFFC
3F0FFFFFFC
3E0FFFFFFC
3C0FFFFFFC
780F800000
780F800000
F00F800000
000F800000
000F800000
000F800000
000F800000
000F800000
000F800000
000F800000
000F800000
000FFFFFF0
000FFFFFF0
000FFFFFF0
000FFFFFF0
000FFFFFF0
000F800000
000F800000
000F800000
000F800000
000F800000
000F800000
000F800000
000F800000
000F800000
000F800000
000F800000
000F800000
000FFFFFFE
000FFFFFFE
000FFFFFFE
000FFFFFFE
ENDCHAR
STARTCHAR 0389
ENCODING 905
SWIDTH 820 0
DWIDTH 41 0
BBX 39 36 -2 0
BITMAP
1F9F00003E
3F1F00003E
3E1F00003E
3C1F00003E
781F00003E
781F00003E
F01F00003E
001F00003E
001F00003E
001F00003E
001F00003E
001F00003E
001F00003E
001F00003E
001F00003E
001FFFFFFE
001FFFFFFE
001FFFFFFE
001FFFFFFE
001F00003E
001F00003E
001F00003E
001F00003E
001F00003E
001F00003E
001F00003E
001F00003E
001F00003E
001F00003E
001F00003E
001F00003E
001F00003E
001F00003E
001F00003E
001F00003E
001F00003E
ENDCHAR
STARTCHAR 038A
ENCODING 906
SWIDTH 380 0
DWIDTH 19 0
BBX 16 36 -2 0
BITMAP
1F9F
3F1F
3E1F
3C1F
781F
781F
F01F
001F
001F
001F
001F
001F
001F
001F
001F
001F
001F
001F
001F
001F
001F
001F
001F
001F
001F
001F
001F
001F
001F
001F
001F
001F
001F
001F
001F
001F
ENDCHAR
STARTCHAR 038C
ENCODING 908
SWIDTH 760 0
DWIDTH 38 0
BBX 38 37 -2 -1
BITMAP
1F81FFE000
3F07FFF800
3E1FFFFE00
3C3FFFFF00
787F803F80
78FE000FC0
F1F80007E0
01F00003F0
03E00001F0
03E00000F8
07C00000F8
07C00000F8
07C000007C
07C000007C
0F8000007C
0F8000007C
0F8000007C
0F8000007C
0F8000007C
0F8000007C
0F8000007C
0F8000007C
078000007C
07C000007C
07C00000FC
07C00000F8
03E00000F8
03E00001F0
01F00003F0
01F80007E0
00FC000FC0
007F003FC0
003FFBFF80
001FFFFE00
0007FFFC00
0001FFF000
00001D0000
ENDCHAR
STARTCHAR 038E
ENCODING 910
SWIDTH 840 0
DWIDTH 42 0
BBX 44 36 -2 0
BITMAP
1F9F800003F0
3F0FC00003E0
3E07E00007E0
3C07E0000FC0
7803F0000F80
7801F0001F00
F001F8003F00
0000FC003E00
00007C007C00
00007E00FC00
00003F00F800
00001F01F000
00001F83F000
00000FC3E000
000007C7C000
000007E7C000
000003EF8000
000001FF0000
000001FE0000
000000FE0000
0000007C0000
0000007C0000
0000007C0000
0000007C0000
0000007C0000
0000007C0000
0000007C0000
0000007C0000
0000007C0000
0000007C0000
0000007C0000
0000007C0000
0000007C0000
0000007C0000
0000007C0000
0000007C0000
ENDCHAR
STARTCHAR 038F
ENCODING 911
SWIDTH 740 0
DWIDTH 37 0
BBX 37 36 -2 0
BITMAP
1F81FFE000
3F07FFF800
3E1FFFFE00
3C3FFFFF00
787F807F80
78FE001F80
F0FC000FC0
01F80007E0
01F00003E0
03F00003F0
03E00001F0
03E00001F0
07C00001F0
07C00000F8
07C00000F8
07C00000F8
07C00000F8
07C00000F8
07C00000F8
07C00000F8
07C00000F8
03C00000F0
03E00001F0
03E00001F0
01E00001E0
01F00003E0
00F00003C0
00F8000780
007C000F80
003E001F00
001F003E00
000FC0FC00
07FFE1FFF8
07FFE1FFF8
07FFE1FFF8
07FFE1FFF8
ENDCHAR
STARTCHAR 0390
ENCODING 912
SWIDTH 220 0
DWIDTH 11 0
BBX 17 37 -3 0
BITMAP
007800
00F000
F0F780
F1E780
F1C780
F38780
F38780
000000
000000
000000
000000
03E000
03E000
03E000
03E000
03E000
03E000
03E000
03E000
03E000
03E000
03E000
03E000
03E000
03E000
03E000
03E000
03E000
03E000
03E000
03E000
03E000
03E000
03E000
03E000
03E000
03E000
ENDCHAR
STARTCHAR 0391
ENCODING 913
SWIDTH 660 0
DWIDTH 33 0
BBX 33 36 0 0
BITMAP
0003E00000
0007E00000
0007F00000
000FF00000
000FF80000
000F780000
001F780000
001E7C0000
003E3C0000
003E3E0000
003C3E0000
007C1E0000
007C1F0000
00781F0000
00F80F8000
00F00F8000
01F0078000
01F007C000
01E007C000
03E003E000
03E003E000
07FFFFF000
07FFFFF000
07FFFFF000
0FFFFFF800
0F8000F800
0F0000FC00
1F00007C00
1F00007C00
3E00003E00
3E00003E00
3E00003F00
7C00001F00
7C00001F00
FC00001F80
F800000F80
ENDCHAR
STARTCHAR 0392
ENCODING 914
SWIDTH 660 0
DWIDTH 33 0
BBX 27 36 4 0
BITMAP
FFFF8000
FFFFF000
FFFFFC00
FFFFFE00
F007FE00
F0003F00
F0001F00
F0000F80
F0000F80
F0000F80
F0000F80
F0000F80
F0000F00
F0001F00
F0003E00
FFFFFC00
FFFFF800
FFFFF800
FFFFFE00
F007FF00
F0001F80
F0000FC0
F00007C0
F00007C0
F00003E0
F00003E0
F00003E0
F00003E0
F00007C0
F0000FC0
F0001FC0
F0007F80
FFFFFF00
FFFFFE00
FFFFFC00
FFFFE000
ENDCHAR
STARTCHAR 0393
ENCODING 915
SWIDTH 540 0
DWIDTH 27 0
BBX 22 36 4 0
BITMAP
FFFFFC
FFFFFC
FFFFFC
FFFFFC
F80000
F80000
F80000
F80000
F80000
F80000
F80000
F80000
F80000
F80000
F80000
F80000
F80000
F80000
F80000
F80000
F80000
F80000
F80000
F80000
F80000
F80000
F80000
F80000
F80000
F80000
F80000
F80000
F80000
F80000
F80000
F80000
ENDCHAR
STARTCHAR 0394
ENCODING 916
SWIDTH 660 0
DWIDTH 33 0
BBX 33 36 0 0
BITMAP
0003E00000
0007E00000
0007F00000
000FF00000
000FF80000
000F780000
001F780000
001E7C0000
003E3C0000
003E3E0000
003C3E0000
007C1E0000
007C1F0000
00781F0000
00F80F8000
00F80F8000
01F0078000
01F007C000
01E007C000
03E003E000
03E003E000
03C001F000
07C001F000
07C001F000
0F8000F800
0F8000F800
0F0000FC00
1F00007C00
1F00007C00
3E00003E00
3E00003E00
3E00003F00
7FFFFFFF00
7FFFFFFF00
7FFFFFFF80
FFFFFFFF80
ENDCHAR
STARTCHAR 0395
ENCODING 917
SWIDTH 660 0
DWIDTH 33 0
BBX 27 36 4 0
BITMAP
FFFFFFC0
FFFFFFC0
FFFFFFC0
FFFFFFC0
F8000000
F8000000
F8000000
F8000000
F8000000
F8000000
F8000000
F8000000
F8000000
F8000000
F8000000
FFFFFF00
FFFFFF00
FFFFFF00
FFFFFF00
FFFFFF00
F8000000
F8000000
F8000000
F8000000
F8000000
F8000000
F8000000
F8000000
F8000000
F8000000
F8000000
F8000000
FFFFFFE0
FFFFFFE0
FFFFFFE0
FFFFFFE0
ENDCHAR
STARTCHAR 0396
ENCODING 918
SWIDTH 600 0
DWIDTH 30 0
BBX 28 36 1 0
BITMAP
3FFFFFF0
3FFFFFF0
3FFFFFF0
3FFFFFF0
000003F0
000007E0
00000FC0
00001F80
00003F00
00003F00
00007E00
0000FC00
0001F800
0003F000
0003F000
0007E000
000FC000
001F8000
003F0000
003F0000
007E0000
00FC0000
01F80000
03F00000
03F00000
07E00000
0FC00000
1F800000
3F000000
3E000000
7E000000
FC000000
FFFFFFF0
FFFFFFF0
FFFFFFF0
FFFFFFF0
ENDCHAR
STARTCHAR 0397
ENCODING 919
SWIDTH 720 0
DWIDTH 36 0
BBX 28 36 4 0
BITMAP
F80001F0
F80001F0
F80001F0
F80001F0
F80001F0
F80001F0
F80001F0
F80001F0
F80001F0
F80001F0
F80001F0
F80001F0
F80001F0
F80001F0
F80001F0
FFFFFFF0
FFFFFFF0
FFFFFFF0
FFFFFFF0
F80001F0
F80001F0
F80001F0
F80001F0
F80001F0
F80001F0
F80001F0
F80001F0
F80001F0
F80001F0
F80001F0
F80001F0
F80001F0
F80001F0
F80001F0
F80001F0
F80001F0
ENDCHAR
STARTCHAR 0398
ENCODING 920
SWIDTH 760 0
DWIDTH 38 0
BBX 35 37 2 -1
BITMAP
000FFE0000
007FFFC000
00FFFFE000
03FFFFF800
07F803FC00
0FE000FC00
0FC0007E00
1F80003F00
3F00001F00
3E00000F80
3E00000F80
7C000007C0
7C000007C0
7C000007C0
7C000007C0
F8000003C0
F83FFF83E0
F83FFF83E0
F83FFF83E0
F83FFF83E0
F8000003C0
78000007C0
7C000007C0
7C000007C0
7C000007C0
3E00000F80
3E00000F80
3F00001F80
1F00003F00
1F80003E00
0FE000FE00
07F001FC00
03FFBFF800
01FFFFF000
007FFFC000
001FFF0000
0000E00000
ENDCHAR
STARTCHAR 0399
ENCODING 921
SWIDTH 260 0
DWIDTH 13 0
BBX 4 36 5 0
BITMAP
F0
F0
F0
F0
F0
F0
F0
F0
F0
F0
F0
F0
F0
F0
F0
F0
F0
F0
F0
F0
F0
F0
F0
F0
F0
F0
F0
F0
F0
F0
F0
F0
F0
F0
F0
F0
ENDCHAR
STARTCHAR 039A
ENCODING 922
SWIDTH 660 0
DWIDTH 33 0
BBX 29 36 4 0
BITMAP
F00003F0
F00007E0
F0000FC0
F0001F80
F0003F00
F0007E00
F000FC00
F001F800
F003F000
F007E000
F00FC000
F01F8000
F03F0000
F07E0000
F0FC0000
F1FC0000
F3FE0000
F7FF0000
FFDF0000
FF9F8000
FF0FC000
FE07E000
FC07E000
F803F000
F001F800
F000FC00
F000FC00
F0007E00
F0003F00
F0003F00
F0001F80
F0000FC0
F00007E0
F00007E0
F00003F0
F00001F8
ENDCHAR
STARTCHAR 039B
ENCODING 923
SWIDTH 660 0
DWIDTH 33 0
BBX 33 36 0 0
BITMAP
0003E00000
0003F00000
0007F00000
0007F00000
0007F80000
000F780000
000F7C0000
001F3C0000
001E3C0000
001E3E0000
003E1E0000
003C1F0000
007C1F0000
00780F0000
00780F8000
00F8078000
00F0078000
01F007C000
01F003C000
01E003E000
03E003E000
03E001E000
03C001F000
07C001F000
078000F800
0F8000F800
0F8000F800
0F00007C00
1F00007C00
1F00003E00
3E00003E00
3E00003E00
3C00001F00
7C00001F00
7C00001F00
F800000F80
ENDCHAR
STARTCHAR 039C
ENCODING 924
SWIDTH 820 0
DWIDTH 41 0
BBX 34 36 4 0
BITMAP
FE00001FC0
FE00001FC0
FF00001FC0
FF00003FC0
FF00003FC0
FF80003FC0
F780007FC0
F780007FC0
F7C00077C0
F3C000F7C0
F3C000F7C0
F3E000E7C0
F1E001E7C0
F1E001E7C0
F1F001C7C0
F0F003C7C0
F0F003C7C0
F0F80387C0
F0780787C0
F0780787C0
F07C0F07C0
F03C0F07C0
F03C0F07C0
F03E1E07C0
F01E1E07C0
F01E1E07C0
F01F3C07C0
F00F3C07C0
F00F3C07C0
F00FF807C0
F007F807C0
F007F007C0
F007F007C0
F003F007C0
F003E007C0
F003E007C0
ENDCHAR
STARTCHAR 039D
ENCODING 925
SWIDTH 720 0
DWIDTH 36 0
BBX 28 36 4 0
BITMAP
F80001F0
FC0001F0
FC0001F0
FE0001F0
FF0001F0
FF0001F0
FF8001F0
FFC001F0
F7C001F0
F7E001F0
F3F001F0
F1F001F0
F1F801F0
F0FC01F0
F07C01F0
F07E01F0
F03F01F0
F01F01F0
F01F81F0
F00FC1F0
F007C1F0
F007E1F0
F003F1F0
F001F1F0
F001F9F0
F000FDF0
F0007DF0
F0007FF0
F0003FF0
F0001FF0
F0001FF0
F0000FF0
F00007F0
F00007F0
F00003F0
F00001F0
ENDCHAR
STARTCHAR 039E
ENCODING 926
SWIDTH 640 0
DWIDTH 32 0
BBX 27 36 3 0
BITMAP
FFFFFFC0
FFFFFFC0
FFFFFFC0
FFFFFFC0
00000000
00000000
00000000
00000000
00000000
00000000
00000000
00000000
00000000
00000000
00000000
00000000
1FFFFF00
1FFFFF00
1FFFFF00
1FFFFF00
00000000
00000000
00000000
00000000
00000000
00000000
00000000
00000000
00000000
00000000
00000000
00000000
FFFFFFE0
FFFFFFE0
FFFFFFE0
FFFFFFE0
ENDCHAR
STARTCHAR 039F
ENCODING 927
SWIDTH 760 0
DWIDTH 38 0
BBX 35 37 2 -1
BITMAP
000FFE0000
007FFFC000
00FFFFE000
03FFFFF800
07F803FC00
0FE000FE00
0FC0007E00
1F80003F00
3F00001F80
3E00000F80
3E00000F80
7C000007C0
7C000007C0
7C000007C0
7C000007C0
78000003C0
F8000003E0
F8000003E0
F8000003E0
F8000003E0
78000003E0
78000003C0
7C000007C0
7C000007C0
7C000007C0
3E00000F80
3E00000F80
3F00001F80
1F00001F00
0F80003E00
0FE000FE00
07F001FC00
03FFBFF800
01FFFFF000
007FFFC000
001FFF0000
0000E00000
ENDCHAR
STARTCHAR 03A0
ENCODING 928
SWIDTH 720 0
DWIDTH 36 0
BBX 28 36 4 0
BITMAP
FFFFFFF0
FFFFFFF0
FFFFFFF0
FFFFFFF0
F80001F0
F80001F0
F80001F0
F80001F0
F80001F0
F80001F0
F80001F0
F80001F0
F80001F0
F80001F0
F80001F0
F80001F0
F80001F0
F80001F0
F80001F0
F80001F0
F80001F0
F80001F0
F80001F0
F80001F0
F80001F0
F80001F0
F80001F0
F80001F0
F80001F0
F80001F0
F80001F0
F80001F0
F80001F0
F80001F0
F80001F0
F80001F0
ENDCHAR
STARTCHAR 03A1
ENCODING 929
SWIDTH 660 0
DWIDTH 33 0
BBX 27 36 4 0
BITMAP
FFFFE000
FFFFFC00
FFFFFF00
FFFFFF80
F801FF80
F8000FC0
F80007C0
F80003E0
F80003E0
F80003E0
F80003E0
F80003E0
F80003E0
F80003E0
F80007E0
F8000FC0
F8001FC0
FFFFFF80
FFFFFF00
FFFFFE00
FFFFF800
F8000000
F8000000
F8000000
F8000000
F8000000
F8000000
F8000000
F8000000
F8000000
F8000000
F8000000
F8000000
F8000000
F8000000
F8000000
ENDCHAR
STARTCHAR 03A3
ENCODING 931
SWIDTH 600 0
DWIDTH 30 0
BBX 25 36 4 0
BITMAP
FFFFFF00
FFFFFF00
FFFFFF00
FFFFFF00
F8000000
FC000000
7E000000
3F000000
1F800000
0FC00000
07C00000
03E00000
01F00000
00F80000
007C0000
007E0000
003F0000
001F8000
003F0000
003E0000
007C0000
00FC0000
01F80000
03F00000
07E00000
0FC00000
0F800000
1F000000
3F000000
7E000000
FC000000
F8000000
FFFFFF80
FFFFFF80
FFFFFF80
FFFFFF80
ENDCHAR
STARTCHAR 03A4
ENCODING 932
SWIDTH 600 0
DWIDTH 30 0
BBX 29 36 1 0
BITMAP
FFFFFFF8
FFFFFFF8
FFFFFFF8
FFFFFFF8
000F8000
000F8000
000F8000
000F8000
000F8000
000F8000
000F8000
000F8000
000F8000
000F8000
000F8000
000F8000
000F8000
000F8000
000F8000
000F8000
000F8000
000F8000
000F8000
000F8000
000F8000
000F8000
000F8000
000F8000
000F8000
000F8000
000F8000
000F8000
000F8000
000F8000
000F8000
000F8000
ENDCHAR
STARTCHAR 03A5
ENCODING 933
SWIDTH 660 0
DWIDTH 33 0
BBX 33 36 0 0
BITMAP
FC00001F80
7E00001F00
3E00003E00
3F00007E00
1F80007C00
0F8000F800
0FC001F800
07E001F000
03E003E000
03F007E000
01F807C000
00F80F8000
00FC1F0000
007E1F0000
003E3E0000
003F3C0000
001F7C0000
000FF80000
000FF00000
0007F00000
0003E00000
0003E00000
0003E00000
0003E00000
0003E00000
0003E00000
0003E00000
0003E00000
0003E00000
0003E00000
0003E00000
0003E00000
0003E00000
0003E00000
0003E00000
0003E00000
ENDCHAR
STARTCHAR 03A6
ENCODING 934
SWIDTH 780 0
DWIDTH 39 0
BBX 36 38 2 -1
BITMAP
0000F00000
0000F00000
0000F00000
0000F00000
0000F00000
003FFFC000
01FFFFF000
03FFFFFC00
0FFFFFFE00
1FE0F07F00
1F80F01F80
3F00F00FC0
7E00F007C0
7C00F003E0
7C00F003E0
F800F001E0
F800F001F0
F800F001F0
F800F001F0
F800F001F0
F800F001F0
F800F001F0
FC00F003E0
7C00F003E0
7C00F003E0
3E00F007C0
3F00F00FC0
1FC0F03F80
0FF0F0FF00
07FFFFFE00
03FFFFFC00
00FFFFF000
001FFF8000
0000F00000
0000F00000
0000F00000
0000F00000
0000F00000
ENDCHAR
STARTCHAR 03A7
ENCODING 935
SWIDTH 660 0
DWIDTH 33 0
BBX 32 36 1 0
BITMAP
7E00003E
3E00007C
1F0000F8
1F8001F8
0FC001F0
07C003E0
07E007C0
03F00FC0
01F00F80
01F81F00
00FC3E00
007C7E00
003E7C00
003FF800
001FF000
000FF000
000FE000
0007E000
000FE000
001FF000
001FF800
003EFC00
007E7C00
00FC7E00
00F83F00
01F01F80
03F01F80
03E00FC0
07C007E0
0FC003E0
1F8003F0
1F0001F8
3E0000FC
7E0000FC
FC00007E
F800003F
ENDCHAR
STARTCHAR 03A8
ENCODING 936
SWIDTH 820 0
DWIDTH 41 0
BBX 36 36 3 0
BITMAP
F801F001F0
F801F001F0
F801F001F0
F801F001F0
F801F001F0
F801F001F0
F801F001F0
F801F001F0
F801F001F0
F801F001F0
F801F001F0
F801F001F0
F801F001F0
F801F003E0
F801F003E0
7C01F003E0
7C01F007E0
7E01F007C0
3F01F00FC0
3FC1F03F80
1FF9F1FF00
0FFFFFFE00
03FFFFFC00
01FFFFF000
001FFF8000
0001F00000
0001F00000
0001F00000
0001F00000
0001F00000
0001F00000
0001F00000
0001F00000
0001F00000
0001F00000
0001F00000
ENDCHAR
STARTCHAR 03A9
ENCODING 937
SWIDTH 740 0
DWIDTH 37 0
BBX 33 36 2 0
BITMAP
001FFE0000
007FFF8000
01FFFFC000
03FFFFE000
07F807F000
0FE001F800
0FC000FC00
1F80007C00
3F00007E00
3E00003E00
3E00003F00
7E00001F00
7C00001F00
7C00001F00
7C00000F80
7C00000F80
7C00000F80
7C00000F80
7C00000F80
7C00000F00
7C00000F00
7C00001F00
3C00001F00
3E00001E00
3E00001E00
1E00003C00
1F00003C00
0F80007800
078000F000
03C001F000
01F003E000
00F80FC000
FFFC1FFF80
FFFC1FFF80
FFFC1FFF80
FFFC1FFF80
ENDCHAR
STARTCHAR 03AA
ENCODING 938
SWIDTH 260 0
DWIDTH 13 0
BBX 14 43 0 0
BITMAP
F87C
F87C
F87C
F87C
F87C
0000
0000
0780
0780
0780
0780
0780
0780
0780
0780
0780
0780
0780
0780
0780
0780
0780
0780
0780
0780
0780
0780
0780
0780
0780
0780
0780
0780
0780
0780
0780
0780
0780
0780
0780
0780
0780
0780
ENDCHAR
STARTCHAR 03AB
ENCODING 939
SWIDTH 660 0
DWIDTH 33 0
BBX 33 43 0 0
BITMAP
003C1E0000
003C1E0000
003C1E0000
003C1E0000
003C1E0000
0000000000
0000000000
FC00001F80
7E00001F00
3E00003E00
3F00007E00
1F80007C00
0F8000F800
0FC001F800
07E001F000
03E003E000
03F007E000
01F807C000
00F80F8000
00FC1F0000
007E1F0000
003E3E0000
003F3C0000
001F7C0000
000FF80000
000FF00000
0007F00000
0003E00000
0003E00000
0003E00000
0003E00000
0003E00000
0003E00000
0003E00000
0003E00000
0003E00000
0003E00000
0003E00000
0003E00000
0003E00000
0003E00000
0003E00000
0003E00000
ENDCHAR
STARTCHAR 03AC
ENCODING 940
SWIDTH 560 0
DWIDTH 28 0
BBX 25 37 2 -1
BITMAP
000FC000
000F8000
001F0000
001F0000
003E0000
003C0000
00380000
00000000
00000000
00200000
03FE0F80
0FFF8F80
1FFFCF00
3F87FF00
3F01FF00
7E00FF00
7C007E00
F8007E00
F8003E00
F8003E00
F8003C00
F8003C00
F8003C00
F8003C00
F8003C00
F8003C00
F8003E00
F8003E00
F8007E00
7C007E00
7C00FE00
3E01FF00
3F87DF00
1FFFCF00
0FFF8F00
03FE0F80
00200000
ENDCHAR
STARTCHAR 03AD
ENCODING 941
SWIDTH 440 0
DWIDTH 22 0
BBX 19 37 2 -1
BITMAP
003F00
007E00
007C00
007800
00F000
00F000
01E000
000000
000000
006000
07FE00
0FFF00
1FFFC0
3F1FC0
3C0700
7C0000
780000
780000
7C0000
3E0000
3F0000
1FF000
07F000
1FF000
3FF000
7E0000
7C0000
F80000
F80000
F80000
780180
7C03C0
7E0FE0
3FFFC0
1FFF80
0FFE00
00C000
ENDCHAR
STARTCHAR 03AE
ENCODING 942
SWIDTH 540 0
DWIDTH 27 0
BBX 21 46 3 -10
BITMAP
001F80
001F00
003E00
003E00
007C00
007800
007000
000000
000000
000800
F0FF80
F3FFE0
F7FFF0
F7C7F0
FF01F8
FC00F8
FC0078
F80078
F80078
F80078
F80078
F80078
F80078
F80078
F80078
F80078
F80078
F80078
F80078
F80078
F80078
F80078
F80078
F80078
F80078
F80078
000078
000078
000078
000078
000078
000078
000078
000078
000078
000078
ENDCHAR
STARTCHAR 03AF
ENCODING 943
SWIDTH 220 0
DWIDTH 11 0
BBX 8 36 3 0
BITMAP
3F
3E
7C
7C
78
F0
E0
00
00
00
F8
F8
F8
F8
F8
F8
F8
F8
F8
F8
F8
F8
F8
F8
F8
F8
F8
F8
F8
F8
F8
F8
F8
F8
F8
F8
ENDCHAR
STARTCHAR 03B0
ENCODING 944
SWIDTH 540 0
DWIDTH 27 0
BBX 21 38 3 -1
BITMAP
001E00
003C00
3C3DF0
3C79F0
3C71F0
3CF1F0
3CE1F0
000000
000000
000000
000000
F80078
F80078
F80078
F80078
F80078
F80078
F80078
F80078
F80078
F80078
F80078
F80078
F80078
F80078
F80078
F80078
F80078
F80078
7800F8
7800F8
7C01F0
7E01F0
3F07E0
1FFFE0
0FFF80
07FF00
003000
ENDCHAR
STARTCHAR 03B1
ENCODING 945
SWIDTH 560 0
DWIDTH 28 0
BBX 25 28 2 -1
BITMAP
00200000
03FE0F80
0FFF8F80
1FFFCF00
3F87FF00
3F01FF00
7E00FF00
7C007E00
F8007E00
F8003E00
F8003E00
F8003C00
F8003C00
F8003C00
F8003C00
F8003C00
F8003C00
F8003E00
F8003E00
F8007E00
7C007E00
7C00FE00
3E01FF00
3F87DF00
1FFFCF00
0FFF8F00
03FE0F80
00200000
ENDCHAR
STARTCHAR 03B2
ENCODING 946
SWIDTH 560 0
DWIDTH 28 0
BBX 23 46 3 -10
BITMAP
01FF00
07FFC0
1FFFE0
3F87F0
3E01F0
7C00F8
780078
780078
780078
F80078
F80078
F80078
F800F0
F801F0
F807E0
F87F80
F87F00
F87FE0
F807F0
F800F8
F8007C
F8003E
F8003E
F8001E
F8001E
F8001E
F8001E
F8001E
F8001E
FC003E
FE003E
FF007C
FF80F8
FFFFF8
FBFFF0
F8FFC0
F80C00
F80000
F80000
F80000
F80000
F80000
F80000
F80000
F80000
F80000
ENDCHAR
STARTCHAR 03B3
ENCODING 947
SWIDTH 500 0
DWIDTH 25 0
BBX 23 36 1 -10
BITMAP
F0001E
F8003E
78003E
78003C
7C007C
3C0078
3E0078
3E00F8
1E00F0
1F01F0
1F01F0
0F01E0
0F83E0
0783C0
0783C0
07C7C0
03C780
03C780
03EF80
01EF00
01FF00
00FE00
00FE00
00FE00
007C00
007C00
007C00
007C00
007C00
007C00
007C00
007C00
007C00
007C00
007C00
007C00
ENDCHAR
STARTCHAR 03B4
ENCODING 948
SWIDTH 540 0
DWIDTH 27 0
BBX 24 37 2 -1
BITMAP
3FFFFC
3FFFFC
3FFFFC
3FFFFC
1F8000
07C000
03E000
01F800
00FC00
007E00
003F80
03FFC0
07FFE0
1FFFF0
3F81F8
3E007C
7C003E
7C003E
F8001E
F8001F
F8001F
F0001F
F0000F
F0000F
F0000F
F0001F
F8001F
F8001F
78001E
7C003E
7E007E
3F00FC
1F83F8
1FFFF0
07FFE0
03FF80
001800
ENDCHAR
STARTCHAR 03B5
ENCODING 949
SWIDTH 440 0
DWIDTH 22 0
BBX 19 28 2 -1
BITMAP
006000
07FE00
0FFF00
1FFFC0
3F1FC0
3C0700
7C0000
780000
780000
7C0000
3E0000
3F0000
1FF000
07F000
1FF000
3FF000
7E0000
7C0000
F80000
F80000
F80000
780180
7C03C0
7E0FE0
3FFFC0
1FFF80
0FFE00
00C000
ENDCHAR
STARTCHAR 03B6
ENCODING 950
SWIDTH 440 0
DWIDTH 22 0
BBX 20 47 2 -11
BITMAP
0FFFF0
0FFFF0
0FFFF0
0FFFE0
0007C0
000F00
003E00
007C00
00F800
01F000
03E000
03C000
07C000
0F8000
1F0000
1F0000
3E0000
3C0000
7C0000
780000
780000
F80000
F80000
F00000
F00000
F00000
F00000
F00000
F80000
F80000
7C0000
7F0000
3FFC00
3FFF80
1FFFC0
03FFC0
0007E0
0003E0
0001E0
0001E0
0001E0
0003C0
001FC0
003F80
003F00
003E00
002000
ENDCHAR
STARTCHAR 03B7
ENCODING 951
SWIDTH 540 0
DWIDTH 27 0
BBX 21 37 3 -10
BITMAP
000800
F0FF80
F3FFE0
F7FFF0
F7C7F0
FF01F8
FC00F8
FC0078
F80078
F80078
F80078
F80078
F80078
F80078
F80078
F80078
F80078
F80078
F80078
F80078
F80078
F80078
F80078
F80078
F80078
F80078
F80078
000078
000078
000078
000078
000078
000078
000078
000078
000078
000078
ENDCHAR
STARTCHAR 03B8
ENCODING 952
SWIDTH 540 0
DWIDTH 27 0
BBX 24 37 2 -1
BITMAP
01FF80
03FFC0
0FFFE0
0FC3F0
1F01F8
3E00F8
3E007C
3C003C
7C003C
7C003E
78003E
78001E
78001E
F8001E
F8001E
F8001F
FFFFFF
FFFFFF
FFFFFF
FFFFFF
F8001F
F8001E
F8001E
78001E
78001E
78001E
7C003E
7C003E
3C003C
3E007C
3E0078
1F00F8
1FC3F0
0FFFE0
07FFC0
01FF80
001800
ENDCHAR
STARTCHAR 03B9
ENCODING 953
SWIDTH 220 0
DWIDTH 11 0
BBX 5 26 3 0
BITMAP
F8
F8
F8
F8
F8
F8
F8
F8
F8
F8
F8
F8
F8
F8
F8
F8
F8
F8
F8
F8
F8
F8
F8
F8
F8
F8
ENDCHAR
STARTCHAR 03BA
ENCODING 954
SWIDTH 500 0
DWIDTH 25 0
BBX 22 26 3 0
BITMAP
F801F8
F803E0
F807C0
F80F80
F81F00
F83E00
F87C00
F9F800
FBF000
FFE000
FFC000
FFC000
FFE000
FFF000
F9F000
F8F800
F8FC00
F87E00
F83F00
F81F80
F80F80
F807C0
F807E0
F803F0
F801F8
F800FC
ENDCHAR
STARTCHAR 03BB
ENCODING 955
SWIDTH 500 0
DWIDTH 25 0
BBX 23 36 1 0
BITMAP
07C000
03C000
03E000
01E000
01F000
01F000
00F000
00F800
00F800
007800
007C00
007C00
00FE00
00FE00
00FE00
01FF00
01FF00
01EF00
03EF80
03C780
07C7C0
07C7C0
0783C0
0F83E0
0F83E0
0F01E0
1F01F0
1E00F0
3E00F8
3E00F8
3C0078
7C007C
7C007C
78003C
F8003E
F0001E
ENDCHAR
STARTCHAR 03BC
ENCODING 956
SWIDTH 560 0
DWIDTH 28 0
BBX 21 36 4 -10
BITMAP
F00078
F00078
F00078
F00078
F00078
F00078
F00078
F00078
F00078
F00078
F00078
F00078
F00078
F000F8
F000F8
F000F8
F000F8
F800F8
F800F8
F800F8
FC01F8
FE03F8
FF9FF8
FFFFF8
F7FF78
F3FE78
F06000
F00000
F00000
F00000
F00000
F00000
F00000
F00000
F00000
F00000
ENDCHAR
STARTCHAR 03BD
ENCODING 957
SWIDTH 500 0
DWIDTH 25 0
BBX 23 26 1 0
BITMAP
F0001E
F8003E
78003E
7C003C
7C007C
3C0078
3E0078
3E00F8
1E00F0
1F01F0
0F01E0
0F01E0
0F83E0
0783C0
0783C0
03C7C0
03C780
03C780
01EF00
01EF00
01EF00
00FE00
00FE00
007E00
007C00
007C00
ENDCHAR
STARTCHAR 03BE
ENCODING 958
SWIDTH 440 0
DWIDTH 22 0
BBX 19 46 2 -11
BITMAP
01FF80
07FF80
0FFF80
1FC000
3E0000
3C0000
3C0000
3C0000
3C0000
3C0000
3E0000
1F8000
0FFF80
07FF80
00FF80
03FF80
07E000
0F8000
1F0000
3E0000
3C0000
7C0000
780000
F80000
F80000
F80000
F80000
F80000
780000
7C0000
7E0000
3F8000
1FFC00
0FFF80
07FFC0
00FFE0
0007E0
0001E0
0001E0
0001E0
0001E0
0003E0
001FC0
003FC0
003F00
003E00
ENDCHAR
STARTCHAR 03BF
ENCODING 959
SWIDTH 540 0
DWIDTH 27 0
BBX 24 28 2 -1
BITMAP
001800
01FF80
07FFE0
0FFFF0
1FC3F8
3E00FC
7C007C
7C003E
F8003E
F8001E
F8001F
F0001F
F0001F
F0001F
F0001F
F0001F
F0001F
F0001F
F8001F
F8003E
7C003E
7C007C
3E00FC
3F83F8
1FFFF0
07FFE0
03FF80
001800
ENDCHAR
STARTCHAR 03C0
ENCODING 960
SWIDTH 680 0
DWIDTH 34 0
BBX 32 26 1 0
BITMAP
FFFFFFFF
FFFFFFFF
FFFFFFFF
FFFFFFFF
01E003E0
01E003E0
01E003E0
01E003E0
01E003E0
01E003E0
01E003E0
01E003E0
01E003E0
01E003E0
01E003E0
01E003E0
01E003E0
01E003E0
01E003E0
01E003E0
01E003E0
01E003E0
01E003E0
01E003E0
01E003E0
01E003E0
ENDCHAR
STARTCHAR 03C1
ENCODING 961
SWIDTH 560 0
DWIDTH 28 0
BBX 24 37 3 -10
BITMAP
001000
03FF80
07FFC0
0FFFF0
1FC3F8
3F00F8
3E007C
7C003C
78003E
78001E
F8001E
F8001F
F8001F
F8001F
F8001F
F8001F
F8001F
F8001E
F8001E
F8003E
FC003E
FE007C
FE00FC
FF83F8
FFFFF0
FBFFE0
F9FF80
F83800
F80000
F80000
F80000
F80000
F80000
F80000
F80000
F80000
F80000
ENDCHAR
STARTCHAR 03C2
ENCODING 962
SWIDTH 480 0
DWIDTH 24 0
BBX 22 38 2 -11
BITMAP
000180
007FFC
01FFF8
03FFF8
07F018
0F8000
1F0000
3E0000
3C0000
7C0000
780000
F80000
F80000
F00000
F00000
F00000
F80000
F80000
780000
7C0000
7E0000
3F8000
1FE000
0FFE00
07FF80
01FFE0
003FE0
0003F0
0001F0
0000F0
0000F0
0001F0
0003F0
00FFE0
00FFE0
00FFC0
01FF00
001000
ENDCHAR
STARTCHAR 03C3
ENCODING 963
SWIDTH 600 0
DWIDTH 30 0
BBX 28 28 2 -1
BITMAP
00100000
01FFFFF0
07FFFFF0
0FFFFFF0
1FC3FFF0
3F00FC00
7C007C00
7C003E00
F8003E00
F8001E00
F8001F00
F0001F00
F0001F00
F0001F00
F0001F00
F0001F00
F0001F00
F0001F00
F8001F00
F8003E00
7C003E00
7C007C00
3E00FC00
3F83F800
1FFFF000
07FFE000
03FF8000
001C0000
ENDCHAR
STARTCHAR 03C4
ENCODING 964
SWIDTH 380 0
DWIDTH 19 0
BBX 18 26 1 0
BITMAP
FFFFC0
FFFFC0
FFFFC0
FFFFC0
01E000
01E000
01E000
01E000
01E000
01E000
01E000
01E000
01E000
01E000
01E000
01E000
01E000
01E000
01E000
01E000
01E000
01E000
01E000
01E000
01E000
01E000
ENDCHAR
STARTCHAR 03C5
ENCODING 965
SWIDTH 540 0
DWIDTH 27 0
BBX 21 27 3 -1
BITMAP
F80078
F80078
F80078
F80078
F80078
F80078
F80078
F80078
F80078
F80078
F80078
F80078
F80078
F80078
F80078
F80078
F80078
F80078
7800F8
7800F8
7C01F0
7E01F0
3F07E0
1FFFE0
0FFF80
07FF00
003000
ENDCHAR
STARTCHAR 03C6
ENCODING 966
SWIDTH 640 0
DWIDTH 32 0
BBX 29 37 2 -10
BITMAP
00006000
03C3FE00
07C7FF00
1FC7FF80
1F8FC7C0
3E0F83E0
7C0F81E0
780F81F0
F80F80F0
F80F80F0
F00F80F0
F00F80F8
F00F80F8
F00F80F8
F00F80F8
F00F80F0
F80F80F0
F80F81F0
780F81F0
7C0F83E0
7E0F83E0
3F0F87C0
1F8F9F80
0FEFFF00
07FFFE00
03FFFC00
00FFF000
001F8000
000F8000
000F8000
000F8000
000F8000
000F8000
000F8000
000F8000
000F8000
000F8000
ENDCHAR
STARTCHAR 03C7
ENCODING 967
SWIDTH 520 0
DWIDTH 26 0
BBX 25 36 1 -10
BITMAP
F8001F00
7C001F00
7C003E00
3E003C00
3E007C00
1F007800
1F00F800
0F80F000
0781F000
07C1E000
03C3E000
03E3C000
01E7C000
01F78000
00FF8000
00FF0000
007E0000
007E0000
007E0000
00FF0000
00FF0000
01FF8000
01E78000
03E7C000
03C3C000
07C3E000
0781F000
0F81F000
0F00F800
1F00F800
3E007C00
3E007C00
7C003E00
7C001E00
F8001F00
F8000F80
ENDCHAR
STARTCHAR 03C8
ENCODING 968
SWIDTH 700 0
DWIDTH 35 0
BBX 30 36 3 -10
BITMAP
F007807C
F007807C
F007807C
F007807C
F007807C
F007807C
F007807C
F007807C
F007807C
F007807C
F007807C
F007807C
F007807C
F007807C
F007807C
F007807C
F8078078
F8078078
F8078078
780780F8
7C0781F8
3E0783F0
3FC78FE0
1FFFFFC0
07FFFF80
01FFFE00
000FC000
00078000
00078000
00078000
00078000
00078000
00078000
00078000
00078000
00078000
ENDCHAR
STARTCHAR 03C9
ENCODING 969
SWIDTH 780 0
DWIDTH 39 0
BBX 35 27 2 -1
BITMAP
0F00001E00
1F00001F00
1E00000F00
3E00000F80
3C00000780
7C000007C0
7C000007C0
7C01F003C0
7801F003C0
F801F003E0
F801F003E0
F801F003E0
F801F003E0
F801F003E0
F801F003E0
F801F003E0
F801F003E0
F801F003E0
7801F003C0
7C01F007C0
7C03F807C0
3E07BC0F80
3F0FBE1F80
1FFF1FFF00
0FFE0FFE00
07FC07FC00
0040004000
ENDCHAR
STARTCHAR 03CA
ENCODING 970
SWIDTH 220 0
DWIDTH 11 0
BBX 14 36 -1 0
BITMAP
F07C
F07C
F07C
F07C
F07C
0000
0000
0000
0000
0000
0F80
0F80
0F80
0F80
0F80
0F80
0F80
0F80
0F80
0F80
0F80
0F80
0F80
0F80
0F80
0F80
0F80
0F80
0F80
0F80
0F80
0F80
0F80
0F80
0F80
0F80
ENDCHAR
STARTCHAR 03CB
ENCODING 971
SWIDTH 540 0
DWIDTH 27 0
BBX 21 37 3 -1
BITMAP
0F87C0
0F87C0
0F87C0
0F87C0
0F87C0
000000
000000
000000
000000
000000
F80078
F80078
F80078
F80078
F80078
F80078
F80078
F80078
F80078
F80078
F80078
F80078
F80078
F80078
F80078
F80078
F80078
F80078
7800F8
7800F8
7C01F0
7E01F0
3F07E0
1FFFE0
0FFF80
07FF00
003000
ENDCHAR
STARTCHAR 03CC
ENCODING 972
SWIDTH 540 0
DWIDTH 27 0
BBX 24 37 2 -1
BITMAP
000FC0
000F80
001F00
001F00
003E00
003C00
003800
000000
000000
001800
01FF80
07FFE0
0FFFF0
1FC3F8
3E00FC
7C007C
7C003E
F8003E
F8001E
F8001F
F0001F
F0001F
F0001F
F0001F
F0001F
F0001F
F0001F
F8001F
F8003E
7C003E
7C007C
3E00FC
3F83F8
1FFFF0
07FFE0
03FF80
001800
ENDCHAR
STARTCHAR 03CD
ENCODING 973
SWIDTH 540 0
DWIDTH 27 0
BBX 21 37 3 -1
BITMAP
001F00
003F00
003E00
007C00
007800
00F800
00F000
000000
000000
000000
F80078
F80078
F80078
F80078
F80078
F80078
F80078
F80078
F80078
F80078
F80078
F80078
F80078
F80078
F80078
F80078
F80078
F80078
7800F8
7800F8
7C01F0
7E01F0
3F07E0
1FFFE0
0FFF80
07FF00
003000
ENDCHAR
STARTCHAR 03CE
ENCODING 974
SWIDTH 780 0
DWIDTH 39 0
BBX 35 37 2 -1
BITMAP
00003F0000
00003E0000
00007C0000
0000780000
0000F80000
0000F00000
0001E00000
0000000000
0000000000
0000000000
0F00001E00
1F00001F00
1E00000F00
3E00000F80
3C00000780
7C000007C0
7C000007C0
7C01F003C0
7801F003C0
F801F003E0
F801F003E0
F801F003E0
F801F003E0
F801F003E0
F801F003E0
F801F003E0
F801F003E0
F801F003E0
7801F003C0
7C01F007C0
7C03F807C0
3E07BC0F80
3F0FBE1F80
1FFF1FFF00
0FFE0FFE00
07FC07FC00
0040004000
ENDCHAR
STARTCHAR 0401
ENCODING 1025
SWIDTH 660 0
DWIDTH 33 0
BBX 27 43 4 0
BITMAP
03E1F000
03E1F000
03E1F000
03E1F000
03E1F000
00000000
00000000
FFFFFFC0
FFFFFFC0
FFFFFFC0
FFFFFFC0
F8000000
F8000000
F8000000
F8000000
F8000000
F8000000
F8000000
F8000000
F8000000
F8000000
F8000000
FFFFFF00
FFFFFF00
FFFFFF00
FFFFFF00
FFFFFF00
F8000000
F8000000
F8000000
F8000000
F8000000
F8000000
F8000000
F8000000
F8000000
F8000000
F8000000
F8000000
FFFFFFE0
FFFFFFE0
FFFFFFE0
FFFFFFE0
ENDCHAR
STARTCHAR 0402
ENCODING 1026
SWIDTH 860 0
DWIDTH 43 0
BBX 40 37 1 -1
BITMAP
FFFFFFF800
FFFFFFF800
FFFFFFF800
FFFFFFF800
000F800000
000F800000
000F800000
000F800000
000F800000
000F800000
000F800000
000F800000
000F800000
000F80FE00
000F8FFFC0
000FFFFFF0
000FFFFFF8
000FFE03FC
000FE000FC
000F80007E
000F80003E
000F80001F
000F80001F
000F80001F
000F80001F
000F80001F
000F80001F
000F80001F
000F80001F
000F80003E
000F80003E
000F8000FC
000F80C3FC
000F80FFF8
000F80FFF0
000F81FFC0
0000000C00
ENDCHAR
STARTCHAR 0403
ENCODING 1027
SWIDTH 540 0
DWIDTH 27 0
BBX 23 45 4 0
BITMAP
001F00
003F00
003E00
007C00
007800
00F000
00F000
000000
000000
FFFFFE
FFFFFE
FFFFFE
FFFFFE
F80000
F80000
F80000
F80000
F80000
F80000
F80000
F80000
F80000
F80000
F80000
F80000
F80000
F80000
F80000
F80000
F80000
F80000
F80000
F80000
F80000
F80000
F80000
F80000
F80000
F80000
F80000
F80000
F80000
F80000
F80000
F80000
ENDCHAR
STARTCHAR 0404
ENCODING 1028
SWIDTH 700 0
DWIDTH 35 0
BBX 31 37 3 -1
BITMAP
001FFC00
00FFFF00
01FFFFC0
07FFFFE0
0FF007F0
0FC003F8
1F0001F8
3F0000FC
3E00007C
7C00007E
7C000038
78000000
F8000000
F8000000
F8000000
FFFFC000
FFFFC000
FFFFC000
FFFFC000
FFFFC000
F8000000
F8000000
F8000000
F8000000
F800003C
7C00003E
7C00003E
7E00007C
3E0000FC
3F0000F8
1F8001F8
0FE007F0
07FE3FE0
03FFFFC0
01FFFF80
007FFE00
0001E000
ENDCHAR
STARTCHAR 0405
ENCODING 1029
SWIDTH 660 0
DWIDTH 33 0
BBX 29 37 2 -1
BITMAP
007FF000
03FFFC00
07FFFF00
0FFFFF80
1FC01FC0
1F0007C0
3E0003E0
3C0003E0
3C0001E0
3C0001F0
3C000180
3E000000
3F000000
1FC00000
1FF80000
0FFF8000
07FFF800
01FFFE00
003FFF80
0003FFC0
00003FE0
000007F0
000003F0
000001F0
F80000F8
F80000F8
F80000F8
7C0000F8
7C0000F0
7E0001F0
3F0003F0
1FC00FE0
1FFFFFC0
0FFFFF80
03FFFF00
00FFFC00
00038000
ENDCHAR
STARTCHAR 0406
ENCODING 1030
SWIDTH 260 0
DWIDTH 13 0
BBX 4 36 5 0
BITMAP
F0
F0
F0
F0
F0
F0
F0
F0
F0
F0
F0
F0
F0
F0
F0
F0
F0
F0
F0
F0
F0
F0
F0
F0
F0
F0
F0
F0
F0
F0
F0
F0
F0
F0
F0
F0
ENDCHAR
STARTCHAR 0407
ENCODING 1031
SWIDTH 260 0
DWIDTH 13 0
BBX 14 43 0 0
BITMAP
F87C
F87C
F87C
F87C
F87C
0000
0000
0780
0780
0780
0780
0780
0780
0780
0780
0780
0780
0780
0780
0780
0780
0780
0780
0780
0780
0780
0780
0780
0780
0780
0780
0780
0780
0780
0780
0780
0780
0780
0780
0780
0780
0780
0780
ENDCHAR
STARTCHAR 0408
ENCODING 1032
SWIDTH 500 0
DWIDTH 25 0
BBX 20 37 1 -1
BITMAP
0001F0
0001F0
0001F0
0001F0
0001F0
0001F0
0001F0
0001F0
0001F0
0001F0
0001F0
0001F0
0001F0
0001F0
0001F0
0001F0
0001F0
0001F0
0001F0
0001F0
0001F0
0001F0
0001F0
0001F0
0001F0
1801F0
F801F0
F801F0
7801F0
7801F0
7C03E0
7E07E0
3FFFE0
3FFFC0
1FFF80
07FE00
00E000
ENDCHAR
STARTCHAR 0409
ENCODING 1033
SWIDTH 1040 0
DWIDTH 52 0
BBX 51 37 0 -1
BITMAP
03FFFFF8000000
03FFFFF8000000
03FFFFF8000000
03FFFFF8000000
03E000F8000000
03E000F8000000
03E000F8000000
03E000F8000000
03E000F8000000
03E000F8000000
03E000F8000000
03E000F8000000
03E000F8000000
03E000F8000000
03E000F8000000
03E000FFFC0000
03E000FFFFF800
03E000FFFFFE00
03E000FFFFFF00
03E000FFFFFF80
03E000F8001FC0
03E000F8000FC0
03E000F80007E0
03E000F80003E0
03E000F80003E0
03E000F80003E0
03E000F80003E0
03E000F80003E0
03E000F80007E0
03E000F80007C0
03E000F8000FC0
07C000F8003F80
7FC000FFFFFF80
7FC000FFFFFF00
7F8000FFFFFC00
FF0000FFFFF000
3C000000000000
ENDCHAR
STARTCHAR 040A
ENCODING 1034
SWIDTH 1000 0
DWIDTH 50 0
BBX 45 36 4 0
BITMAP
F8003C000000
F8003C000000
F8003C000000
F8003C000000
F8003C000000
F8003C000000
F8003C000000
F8003C000000
F8003C000000
F8003C000000
F8003C000000
F8003C000000
F8003C000000
F8003C000000
F8003C000000
FFFFFFFF0000
FFFFFFFFFE00
FFFFFFFFFF80
FFFFFFFFFFC0
FFFFFFFFFFE0
F8003C0007E0
F8003C0003F0
F8003C0001F0
F8003C0001F0
F8003C0001F8
F8003C0000F8
F8003C0000F8
F8003C0001F0
F8003C0001F0
F8003C0001F0
F8003C0003F0
F8003C000FE0
F8003FFFFFC0
F8003FFFFF80
F8003FFFFF00
F8003FFFF800
ENDCHAR
STARTCHAR 040B
ENCODING 1035
SWIDTH 840 0
DWIDTH 42 0
BBX 39 36 1 0
BITMAP
FFFFFFF800
FFFFFFF800
FFFFFFF800
FFFFFFF800
000F800000
000F800000
000F800000
000F800000
000F800000
000F800000
000F800000
000F800000
000F800000
000F80FE00
000F8FFFC0
000FFFFFF0
000FFFFFF8
000FFF03F8
000FF000FC
000F80007C
000F80003E
000F80003E
000F80003E
000F80003E
000F80001E
000F80001E
000F80001E
000F80001E
000F80001E
000F80001E
000F80001E
000F80001E
000F80001E
000F80001E
000F80001E
000F80001E
ENDCHAR
STARTCHAR 040C
ENCODING 1036
SWIDTH 580 0
DWIDTH 29 0
BBX 25 45 4 0
BITMAP
000FC000
001F8000
001F0000
003E0000
003C0000
003C0000
00780000
00000000
00000000
F8001F80
F8007F80
F800FF80
F801FF80
F803F800
F803E000
F807C000
F807C000
F8078000
F80F8000
F80F8000
F81F0000
F81F0000
F83E0000
F87E0000
F8FC0000
FFF80000
FFE00000
FFF80000
FBFC0000
F87E0000
F83F0000
F83F8000
F81F8000
F80FC000
F807C000
F807E000
F803F000
F803F000
F801F800
F800FC00
F800FC00
F8007E00
F8003E00
F8003F00
F8001F80
ENDCHAR
STARTCHAR 040E
ENCODING 1038
SWIDTH 620 0
DWIDTH 31 0
BBX 31 44 0 0
BITMAP
00380700
003C0700
001E1E00
001FFE00
000FFC00
0003F000
00000000
00000000
F800001E
7C00003E
3C00003E
3E00007C
1E00007C
1F0000F8
0F0000F8
0F8000F0
078001F0
07C001E0
03E003E0
03E003C0
01F007C0
00F00780
00F80F80
00780F00
007C1F00
003C1E00
003E3E00
001E3C00
001F7C00
000F7800
0007F800
0007F000
0003F000
0003E000
0001E000
0003C000
0003C000
00078000
00078000
000F0000
073F0000
07FE0000
07FC0000
07F80000
ENDCHAR
STARTCHAR 040F
ENCODING 1039
SWIDTH 700 0
DWIDTH 35 0
BBX 28 46 4 -10
BITMAP
F80001F0
F80001F0
F80001F0
F80001F0
F80001F0
F80001F0
F80001F0
F80001F0
F80001F0
F80001F0
F80001F0
F80001F0
F80001F0
F80001F0
F80001F0
F80001F0
F80001F0
F80001F0
F80001F0
F80001F0
F80001F0
F80001F0
F80001F0
F80001F0
F80001F0
F80001F0
F80001F0
F80001F0
F80001F0
F80001F0
F80001F0
F80001F0
FFFFFFF0
FFFFFFF0
FFFFFFF0
FFFFFFF0
000F0000
000F0000
000F0000
000F0000
000F0000
000F0000
000F0000
000F0000
000F0000
000F0000
ENDCHAR
STARTCHAR 0410
ENCODING 1040
SWIDTH 660 0
DWIDTH 33 0
BBX 33 36 0 0
BITMAP
0003E00000
0007E00000
0007F00000
000FF00000
000FF80000
000F780000
001F780000
001E7C0000
003E3C0000
003E3E0000
003C3E0000
007C1E0000
007C1F0000
00781F0000
00F80F8000
00F00F8000
01F0078000
01F007C000
01E007C000
03E003E000
03E003E000
07FFFFF000
07FFFFF000
07FFFFF000
0FFFFFF800
0F8000F800
0F0000FC00
1F00007C00
1F00007C00
3E00003E00
3E00003E00
3E00003F00
7C00001F00
7C00001F00
FC00001F80
F800000F80
ENDCHAR
STARTCHAR 0411
ENCODING 1041
SWIDTH 640 0
DWIDTH 32 0
BBX 27 36 4 0
BITMAP
FFFFFE00
FFFFFE00
FFFFFE00
FFFFFE00
F8000000
F8000000
F8000000
F8000000
F8000000
F8000000
F8000000
F8000000
F8000000
F8000000
F8000000
FFFC0000
FFFFF800
FFFFFE00
FFFFFF00
FFFFFF80
F8001FC0
F8000FC0
F80007E0
F80003E0
F80003E0
F80003E0
F80003E0
F80003E0
F80007E0
F80007C0
F8000FC0
F8003F80
FFFFFF80
FFFFFF00
FFFFFC00
FFFFF000
ENDCHAR
STARTCHAR 0412
ENCODING 1042
SWIDTH 660 0
DWIDTH 33 0
BBX 27 36 4 0
BITMAP
FFFF8000
FFFFF000
FFFFFC00
FFFFFE00
F007FE00
F0003F00
F0001F00
F0000F80
F0000F80
F0000F80
F0000F80
F0000F80
F0000F00
F0001F00
F0003E00
FFFFFC00
FFFFF800
FFFFF800
FFFFFE00
F007FF00
F0001F80
F0000FC0
F00007C0
F00007C0
F00003E0
F00003E0
F00003E0
F00003E0
F00007C0
F0000FC0
F0001FC0
F0007F80
FFFFFF00
FFFFFE00
FFFFFC00
FFFFE000
ENDCHAR
STARTCHAR 0413
ENCODING 1043
SWIDTH 540 0
DWIDTH 27 0
BBX 23 36 4 0
BITMAP
FFFFFE
FFFFFE
FFFFFE
FFFFFE
F80000
F80000
F80000
F80000
F80000
F80000
F80000
F80000
F80000
F80000
F80000
F80000
F80000
F80000
F80000
F80000
F80000
F80000
F80000
F80000
F80000
F80000
F80000
F80000
F80000
F80000
F80000
F80000
F80000
F80000
F80000
F80000
ENDCHAR
STARTCHAR 0414
ENCODING 1044
SWIDTH 660 0
DWIDTH 33 0
BBX 32 44 0 -8
BITMAP
01FFFFF8
01FFFFF8
01FFFFF8
01FFFFF8
01F000F8
01F000F8
01F000F8
01F000F8
01F000F8
01F000F8
01F000F8
01E000F8
01E000F8
01E000F8
01E000F8
01E000F8
01E000F8
01E000F8
03E000F8
03E000F8
03E000F8
03C000F8
03C000F8
03C000F8
07C000F8
07C000F8
078000F8
078000F8
0F8000F8
0F8000F8
1F0000F8
1F0000F8
FFFFFFFF
FFFFFFFF
FFFFFFFF
FFFFFFFF
F000000F
F000000F
F000000F
F000000F
F000000F
F000000F
F000000F
F000000F
ENDCHAR
STARTCHAR 0415
ENCODING 1045
SWIDTH 660 0
DWIDTH 33 0
BBX 27 36 4 0
BITMAP
FFFFFFC0
FFFFFFC0
FFFFFFC0
FFFFFFC0
F8000000
F8000000
F8000000
F8000000
F8000000
F8000000
F8000000
F8000000
F8000000
F8000000
F8000000
FFFFFF00
FFFFFF00
FFFFFF00
FFFFFF00
FFFFFF00
F8000000
F8000000
F8000000
F8000000
F8000000
F8000000
F8000000
F8000000
F8000000
F8000000
F8000000
F8000000
FFFFFFE0
FFFFFFE0
FFFFFFE0
FFFFFFE0
ENDCHAR
STARTCHAR 0416
ENCODING 1046
SWIDTH 920 0
DWIDTH 46 0
BBX 46 36 0 0
BITMAP
7C0007C000FC
7F0007C003FC
7F8007C007FC
7FC007C00FFC
0FE007C00FC0
03E007C01F00
01F007C01F00
01F007C03E00
00F807C03E00
00F807C07C00
00F807C07C00
007C07C0F800
007C07C0F800
003E07C1F000
003F07C3F000
001FC7C7E000
000FFFFFC000
0003FFFF0000
0007FFFFC000
001FE7DFE000
003F87C3F000
007E07C1F800
007E07C0FC00
00FC07C0FC00
01F807C07E00
01F807C03E00
03F007C03F00
07E007C01F80
07E007C01F80
0FC007C00FC0
0F8007C007E0
1F8007C007E0
3F0007C003F0
3F0007C001F0
7E0007C001F8
FC0007C000FC
ENDCHAR
STARTCHAR 0417
ENCODING 1047
SWIDTH 600 0
DWIDTH 30 0
BBX 26 37 2 -1
BITMAP
00FFC000
03FFF000
0FFFF800
1FFFFC00
1FC07E00
3F003F00
3E001F00
7C001F00
7C000F00
7C000F00
78000F00
18001F00
00001F00
00003E00
00007E00
003FFC00
003FF800
003FF800
003FFE00
003FFF00
00003F80
00001F80
00000FC0
000007C0
000007C0
780007C0
F80007C0
F80007C0
7C0007C0
7E000F80
3F001F80
3F803F00
1FF3FF00
0FFFFE00
07FFF800
01FFE000
001E0000
ENDCHAR
STARTCHAR 0418
ENCODING 1048
SWIDTH 700 0
DWIDTH 35 0
BBX 28 36 4 0
BITMAP
F00001F0
F00003F0
F00003F0
F00007F0
F0000FF0
F0000FF0
F0001FF0
F0003FF0
F0003EF0
F0007EF0
F000FCF0
F000F8F0
F001F8F0
F003F0F0
F003E0F0
F007E0F0
F00FC0F0
F00F80F0
F01F00F0
F03F00F0
F03E00F0
F07C00F0
F0FC00F0
F0F800F0
F1F000F0
F3F000F0
F3E000F0
F7C000F0
FFC000F0
FF8000F0
FF0000F0
FF0000F0
FE0000F0
FC0000F0
FC0000F0
F80000F0
ENDCHAR
STARTCHAR 0419
ENCODING 1049
SWIDTH 700 0
DWIDTH 35 0
BBX 28 44 4 0
BITMAP
03C03800
01C07000
01E0F000
00FFE000
007FC000
003F8000
00000000
00000000
F00001F0
F00003F0
F00003F0
F00007F0
F0000FF0
F0000FF0
F0001FF0
F0003FF0
F0003EF0
F0007EF0
F000FCF0
F000F8F0
F001F8F0
F003F0F0
F003E0F0
F007E0F0
F00FC0F0
F00F80F0
F01F00F0
F03F00F0
F03E00F0
F07C00F0
F0FC00F0
F0F800F0
F1F000F0
F3F000F0
F3E000F0
F7C000F0
FFC000F0
FF8000F0
FF0000F0
FF0000F0
FE0000F0
FC0000F0
FC0000F0
F80000F0
ENDCHAR
STARTCHAR 041A
ENCODING 1050
SWIDTH 580 0
DWIDTH 29 0
BBX 25 36 4 0
BITMAP
F8001F80
F8007F80
F800FF80
F801FF80
F803F800
F803E000
F807C000
F807C000
F8078000
F80F8000
F80F8000
F81F0000
F81F0000
F83E0000
F87E0000
F8FC0000
FFF80000
FFE00000
FFF80000
FBFC0000
F87E0000
F83F0000
F83F8000
F81F8000
F80FC000
F807C000
F807E000
F803F000
F803F000
F801F800
F800FC00
F800FC00
F8007E00
F8003E00
F8003F00
F8001F80
ENDCHAR
STARTCHAR 041B
ENCODING 1051
SWIDTH 640 0
DWIDTH 32 0
BBX 28 37 1 -1
BITMAP
07FFFFF0
07FFFFF0
07FFFFF0
07FFFFF0
07C001F0
07C001F0
07C001F0
07C001F0
07C001F0
07C001F0
07C001F0
07C001F0
07C001F0
07C001F0
07C001F0
07C001F0
07C001F0
07C001F0
07C001F0
07C001F0
07C001F0
07C001F0
07C001F0
07C001F0
07C001F0
07C001F0
07C001F0
07C001F0
07C001F0
07C001F0
07C001F0
0FC001F0
FF8001F0
FF8001F0
FF0001F0
FE0001F0
30000000
ENDCHAR
STARTCHAR 041C
ENCODING 1052
SWIDTH 820 0
DWIDTH 41 0
BBX 34 36 4 0
BITMAP
FE00001FC0
FE00001FC0
FF00001FC0
FF00003FC0
FF00003FC0
FF80003FC0
F780007FC0
F780007FC0
F7C00077C0
F3C000F7C0
F3C000F7C0
F3E000E7C0
F1E001E7C0
F1E001E7C0
F1F001C7C0
F0F003C7C0
F0F003C7C0
F0F80387C0
F0780787C0
F0780787C0
F07C0F07C0
F03C0F07C0
F03C0F07C0
F03E1E07C0
F01E1E07C0
F01E1E07C0
F01F3C07C0
F00F3C07C0
F00F3C07C0
F00FF807C0
F007F807C0
F007F007C0
F007F007C0
F003F007C0
F003E007C0
F003E007C0
ENDCHAR
STARTCHAR 041D
ENCODING 1053
SWIDTH 720 0
DWIDTH 36 0
BBX 28 36 4 0
BITMAP
F80001F0
F80001F0
F80001F0
F80001F0
F80001F0
F80001F0
F80001F0
F80001F0
F80001F0
F80001F0
F80001F0
F80001F0
F80001F0
F80001F0
F80001F0
FFFFFFF0
FFFFFFF0
FFFFFFF0
FFFFFFF0
F80001F0
F80001F0
F80001F0
F80001F0
F80001F0
F80001F0
F80001F0
F80001F0
F80001F0
F80001F0
F80001F0
F80001F0
F80001F0
F80001F0
F80001F0
F80001F0
F80001F0
ENDCHAR
STARTCHAR 041E
ENCODING 1054
SWIDTH 760 0
DWIDTH 38 0
BBX 35 37 2 -1
BITMAP
000FFE0000
007FFFC000
00FFFFE000
03FFFFF800
07F803FC00
0FE000FE00
0FC0007E00
1F80003F00
3F00001F80
3E00000F80
3E00000F80
7C000007C0
7C000007C0
7C000007C0
7C000007C0
78000003C0
F8000003E0
F8000003E0
F8000003E0
F8000003E0
78000003E0
78000003C0
7C000007C0
7C000007C0
7C000007C0
3E00000F80
3E00000F80
3F00001F80
1F00001F00
0F80003E00
0FE000FE00
07F001FC00
03FFBFF800
01FFFFF000
007FFFC000
001FFF0000
0000E00000
ENDCHAR
STARTCHAR 041F
ENCODING 1055
SWIDTH 700 0
DWIDTH 35 0
BBX 28 36 4 0
BITMAP
FFFFFFF0
FFFFFFF0
FFFFFFF0
FFFFFFF0
F80001F0
F80001F0
F80001F0
F80001F0
F80001F0
F80001F0
F80001F0
F80001F0
F80001F0
F80001F0
F80001F0
F80001F0
F80001F0
F80001F0
F80001F0
F80001F0
F80001F0
F80001F0
F80001F0
F80001F0
F80001F0
F80001F0
F80001F0
F80001F0
F80001F0
F80001F0
F80001F0
F80001F0
F80001F0
F80001F0
F80001F0
F80001F0
ENDCHAR
STARTCHAR 0420
ENCODING 1056
SWIDTH 660 0
DWIDTH 33 0
BBX 27 36 4 0
BITMAP
FFFFE000
FFFFFC00
FFFFFF00
FFFFFF80
F801FF80
F8000FC0
F80007C0
F80003E0
F80003E0
F80003E0
F80003E0
F80003E0
F80003E0
F80003E0
F80007E0
F8000FC0
F8001FC0
FFFFFF80
FFFFFF00
FFFFFE00
FFFFF800
F8000000
F8000000
F8000000
F8000000
F8000000
F8000000
F8000000
F8000000
F8000000
F8000000
F8000000
F8000000
F8000000
F8000000
F8000000
ENDCHAR
STARTCHAR 0421
ENCODING 1057
SWIDTH 720 0
DWIDTH 36 0
BBX 32 37 2 -1
BITMAP
000FFE00
007FFF80
00FFFFE0
03FFFFF0
07F803F8
0FE001F8
0F8000FC
1F00007E
3F00003E
3E00003E
3E000018
7C000000
7C000000
7C000000
7C000000
78000000
F8000000
F8000000
F8000000
78000000
78000000
7C000000
7C000000
7C000010
7C00001F
3E00001F
3E00003F
3F00003E
1F00007E
1F8000FC
0FC001FC
07F003F8
03FF3FF0
01FFFFE0
00FFFF80
003FFE00
0001E000
ENDCHAR
STARTCHAR 0422
ENCODING 1058
SWIDTH 600 0
DWIDTH 30 0
BBX 29 36 1 0
BITMAP
FFFFFFF8
FFFFFFF8
FFFFFFF8
FFFFFFF8
000F8000
000F8000
000F8000
000F8000
000F8000
000F8000
000F8000
000F8000
000F8000
000F8000
000F8000
000F8000
000F8000
000F8000
000F8000
000F8000
000F8000
000F8000
000F8000
000F8000
000F8000
000F8000
000F8000
000F8000
000F8000
000F8000
000F8000
000F8000
000F8000
000F8000
000F8000
000F8000
ENDCHAR
STARTCHAR 0423
ENCODING 1059
SWIDTH 620 0
DWIDTH 31 0
BBX 31 36 0 0
BITMAP
F800001E
7C00003E
3C00003E
3E00007C
1E00007C
1F0000F8
0F0000F8
0F8000F0
078001F0
07C001E0
03E003E0
03E003C0
01F007C0
00F00780
00F80F80
00780F00
007C1F00
003C1E00
003E3E00
001E3C00
001F7C00
000F7800
0007F800
0007F000
0003F000
0003E000
0001E000
0003C000
0003C000
00078000
00078000
000F0000
073F0000
07FE0000
07FC0000
07F80000
ENDCHAR
STARTCHAR 0424
ENCODING 1060
SWIDTH 760 0
DWIDTH 38 0
BBX 34 36 2 0
BITMAP
0001E00000
0001E00000
0001E00000
0001E00000
0001E00000
007FFF8000
01FFFFE000
07FFFFF800
0FFFFFFC00
1FC1E0FE00
3F81E03F00
3E01E01F00
7C01E00F80
7C01E00F80
F801E007C0
F801E007C0
F801E007C0
F801E007C0
F801E007C0
F801E007C0
F801E007C0
F801E007C0
7C01E00F80
7E01E01F80
3E01E01F00
3F81E07F00
1FE1E1FE00
0FFFFFFC00
07FFFFF800
01FFFFE000
003FFF0000
0001E00000
0001E00000
0001E00000
0001E00000
0001E00000
ENDCHAR
STARTCHAR 0425
ENCODING 1061
SWIDTH 660 0
DWIDTH 33 0
BBX 32 36 1 0
BITMAP
7E00003E
3E00007C
1F0000F8
1F8001F8
0FC001F0
07C003E0
07E007C0
03F00FC0
01F00F80
01F81F00
00FC3E00
007C7E00
003E7C00
003FF800
001FF000
000FF000
000FE000
0007E000
000FE000
001FF000
001FF800
003EFC00
007E7C00
00FC7E00
00F83F00
01F01F80
03F01F80
03E00FC0
07C007E0
0FC003E0
1F8003F0
1F0001F8
3E0000FC
7E0000FC
FC00007E
F800003F
ENDCHAR
STARTCHAR 0426
ENCODING 1062
SWIDTH 720 0
DWIDTH 36 0
BBX 31 46 4 -10
BITMAP
F80001F0
F80001F0
F80001F0
F80001F0
F80001F0
F80001F0
F80001F0
F80001F0
F80001F0
F80001F0
F80001F0
F80001F0
F80001F0
F80001F0
F80001F0
F80001F0
F80001F0
F80001F0
F80001F0
F80001F0
F80001F0
F80001F0
F80001F0
F80001F0
F80001F0
F80001F0
F80001F0
F80001F0
F80001F0
F80001F0
F80001F0
F80001F0
FFFFFFFE
FFFFFFFE
FFFFFFFE
FFFFFFFE
0000001E
0000001E
0000001E
0000001E
0000001E
0000001E
0000001E
0000001E
0000001E
0000001E
ENDCHAR
STARTCHAR 0427
ENCODING 1063
SWIDTH 660 0
DWIDTH 33 0
BBX 27 36 2 0
BITMAP
F80001E0
F80001E0
F80001E0
F80001E0
F80001E0
F80001E0
F80001E0
F80001E0
F80001E0
F80001E0
F80001E0
F80001E0
F80001E0
F80001E0
F80001E0
F80001E0
7C0001E0
7E0001E0
7F000FE0
3FC0FFE0
1FFFFFE0
0FFFFFE0
07FFF1E0
00FF01E0
000001E0
000001E0
000001E0
000001E0
000001E0
000001E0
000001E0
000001E0
000001E0
000001E0
000001E0
000001E0
ENDCHAR
STARTCHAR 0428
ENCODING 1064
SWIDTH 900 0
DWIDTH 45 0
BBX 38 36 4 0
BITMAP
F80078007C
F80078007C
F80078007C
F80078007C
F80078007C
F80078007C
F80078007C
F80078007C
F80078007C
F80078007C
F80078007C
F80078007C
F80078007C
F80078007C
F80078007C
F80078007C
F80078007C
F80078007C
F80078007C
F80078007C
F80078007C
F80078007C
F80078007C
F80078007C
F80078007C
F80078007C
F80078007C
F80078007C
F80078007C
F80078007C
F80078007C
F80078007C
FFFFFFFFFC
FFFFFFFFFC
FFFFFFFFFC
FFFFFFFFFC
ENDCHAR
STARTCHAR 0429
ENCODING 1065
SWIDTH 920 0
DWIDTH 46 0
BBX 41 46 4 -10
BITMAP
F80078007C00
F80078007C00
F80078007C00
F80078007C00
F80078007C00
F80078007C00
F80078007C00
F80078007C00
F80078007C00
F80078007C00
F80078007C00
F80078007C00
F80078007C00
F80078007C00
F80078007C00
F80078007C00
F80078007C00
F80078007C00
F80078007C00
F80078007C00
F80078007C00
F80078007C00
F80078007C00
F80078007C00
F80078007C00
F80078007C00
F80078007C00
F80078007C00
F80078007C00
F80078007C00
F80078007C00
F80078007C00
FFFFFFFFFF80
FFFFFFFFFF80
FFFFFFFFFF80
FFFFFFFFFF80
000000000780
000000000780
000000000780
000000000780
000000000780
000000000780
000000000780
000000000780
000000000780
000000000780
ENDCHAR
STARTCHAR 042A
ENCODING 1066
SWIDTH 780 0
DWIDTH 39 0
BBX 38 36 0 0
BITMAP
FFFF000000
FFFF000000
FFFF000000
FFFF000000
001F000000
001F000000
001F000000
001F000000
001F000000
001F000000
001F000000
001F000000
001F000000
001F000000
001F000000
001FFF8000
001FFFFF00
001FFFFFC0
001FFFFFE0
001FFFFFF0
001F0003F8
001F0001F8
001F0000F8
001F0000FC
001F00007C
001F00007C
001F00007C
001F00007C
001F0000FC
001F0000F8
001F0001F8
001F000FF0
001FFFFFE0
001FFFFFC0
001FFFFF80
001FFFFC00
ENDCHAR
STARTCHAR 042B
ENCODING 1067
SWIDTH 880 0
DWIDTH 44 0
BBX 36 36 4 0
BITMAP
F8000001F0
F8000001F0
F8000001F0
F8000001F0
F8000001F0
F8000001F0
F8000001F0
F8000001F0
F8000001F0
F8000001F0
F8000001F0
F8000001F0
F8000001F0
F8000001F0
F8000001F0
FFFE0001F0
FFFFF801F0
FFFFFE01F0
FFFFFF01F0
FFFFFF81F0
F8001FC1F0
F8000FC1F0
F80007E1F0
F80003E1F0
F80003E1F0
F80003E1F0
F80003E1F0
F80003E1F0
F80007E1F0
F80007C1F0
F8000FC1F0
F8003F81F0
FFFFFF81F0
FFFFFF01F0
FFFFFC01F0
FFFFE001F0
ENDCHAR
STARTCHAR 042C
ENCODING 1068
SWIDTH 640 0
DWIDTH 32 0
BBX 27 36 4 0
BITMAP
F8000000
F8000000
F8000000
F8000000
F8000000
F8000000
F8000000
F8000000
F8000000
F8000000
F8000000
F8000000
F8000000
F8000000
F8000000
FFFC0000
FFFFF800
FFFFFE00
FFFFFF00
FFFFFF80
F8001FC0
F8000FC0
F80007E0
F80003E0
F80003E0
F80003E0
F80003E0
F80003E0
F80007E0
F80007C0
F8000FC0
F8003F80
FFFFFF00
FFFFFF00
FFFFFC00
FFFFE000
ENDCHAR
STARTCHAR 042D
ENCODING 1069
SWIDTH 700 0
DWIDTH 35 0
BBX 32 37 2 -1
BITMAP
007FF800
01FFFE00
07FFFF00
0FFFFFC0
1FE01FE0
1F8007F0
3F0001F0
7E0000F8
7C0000FC
7C00007C
3800007C
0000003E
0000003E
0000003E
0000003E
0007FFFE
0007FFFE
0007FFFF
0007FFFF
0007FFFE
0000001E
0000003E
0000003E
0000003E
7800003E
F800007E
7C00007C
7C0000FC
7E0000F8
3E0001F8
1F8003F0
1FC00FE0
0FFC7FC0
07FFFF80
01FFFF00
007FFC00
00070000
ENDCHAR
STARTCHAR 042E
ENCODING 1070
SWIDTH 1000 0
DWIDTH 50 0
BBX 44 37 4 -1
BITMAP
F80003FF8000
F8000FFFF000
F8001FFFF800
F8007FFFFC00
F800FE00FE00
F801F8003F00
F801F0001F80
F803E0000FC0
F803E00007C0
F807C00007C0
F807C00003E0
F80F800003E0
F80F800003E0
F80F800001F0
F80F800001F0
F80F800001F0
FFFF000001F0
FFFF000001F0
FFFF000001F0
FFFF000001F0
F80F000001F0
F80F800001F0
F80F800001F0
F80F800003E0
F80F800003E0
F807C00003E0
F807C00007E0
F807E00007C0
F803E0000FC0
F801F0001F80
F801F8003F00
F800FE007F00
F8007FEFFE00
F8003FFFF800
F8000FFFF000
F80003FFC000
000000780000
ENDCHAR
STARTCHAR 042F
ENCODING 1071
SWIDTH 720 0
DWIDTH 36 0
BBX 31 36 1 0
BITMAP
001FFFFE
01FFFFFE
03FFFFFE
07FFFFFE
0FF0003E
0FC0003E
1F80003E
1F00003E
1F00003E
1E00003E
1E00003E
1F00003E
1F00003E
1F80003E
0FC0003E
0FF0003E
07FFFFFE
03FFFFFE
00FFFFFE
000FFFFE
001FC03E
003F003E
007E003E
00FC003E
01F8003E
03F0003E
03F0003E
07E0003E
0FC0003E
0FC0003E
1F80003E
1F00003E
3F00003E
7E00003E
7E00003E
FC00003E
ENDCHAR
STARTCHAR 0430
ENCODING 1072
SWIDTH 540 0
DWIDTH 27 0
BBX 23 28 2 -1
BITMAP
001800
03FFC0
0FFFF0
1FFFF8
3F83FC
3E00FC
7C007C
78003C
78003C
00003C
00003C
0003FC
01FFFC
0FFFFC
3FFF3C
7FF03C
7E003C
F8003C
F8003C
F8007C
F8007C
F800FC
F801FC
7E07FE
7FFFBE
3FFF1E
1FFC1E
01C000
ENDCHAR
STARTCHAR 0431
ENCODING 1073
SWIDTH 560 0
DWIDTH 28 0
BBX 25 38 2 -1
BITMAP
00000F00
001FFF00
01FFFF00
07FFFE00
0FFFFE00
1FFFC000
3F000000
3E000000
3C000000
78000000
78000000
703F0000
70FFE000
F3FFF000
F7FFF800
FF80FC00
FF007E00
FE003E00
FC001F00
FC001F00
FC000F00
F8000F00
F8000F80
F8000F80
F8000F80
78000F80
78000F80
78000F00
7C001F00
7C001F00
3C001E00
3E003E00
1F007C00
0FC1FC00
0FFFF800
03FFF000
01FFC000
001E0000
ENDCHAR
STARTCHAR 0432
ENCODING 1074
SWIDTH 520 0
DWIDTH 26 0
BBX 22 26 3 0
BITMAP
FFFE00
FFFFC0
FFFFE0
FFFFE0
F803F0
F801F0
F800F0
F800F0
F800F0
F801F0
F803E0
FFFFE0
FFFF80
FFFFE0
FFFFF0
F800F8
F800F8
F8007C
F8007C
F8007C
F80078
F800F8
FFFFF8
FFFFF0
FFFFE0
FFFF00
ENDCHAR
STARTCHAR 0433
ENCODING 1075
SWIDTH 360 0
DWIDTH 18 0
BBX 15 26 3 0
BITMAP
FFFE
FFFE
FFFE
FFFE
F800
F800
F800
F800
F800
F800
F800
F800
F800
F800
F800
F800
F800
F800
F800
F800
F800
F800
F800
F800
F800
F800
ENDCHAR
STARTCHAR 0434
ENCODING 1076
SWIDTH 580 0
DWIDTH 29 0
BBX 28 33 0 -7
BITMAP
01FFFF80
01FFFF80
01FFFF80
01FFFF80
01C00F80
01C00F80
01C00F80
01C00F80
03C00F80
03C00F80
03C00F80
03C00F80
03C00F80
03800F80
03800F80
07800F80
07800F80
07000F80
0F000F80
0F000F80
1E000F80
1E000F80
FFFFFFF0
FFFFFFF0
FFFFFFF0
FFFFFFF0
F00000F0
F00000F0
F00000F0
F00000F0
F00000F0
F00000F0
F00000F0
ENDCHAR
STARTCHAR 0435
ENCODING 1077
SWIDTH 540 0
DWIDTH 27 0
BBX 24 28 2 -1
BITMAP
001800
01FF80
07FFE0
0FFFF0
1FC3F8
3F00FC
7E007C
7C003E
78003E
F8001E
F8001E
F8001F
FFFFFF
FFFFFF
FFFFFF
F00000
F00000
F80000
F80000
78001F
7C003E
7E003E
3F007C
1FC1FC
0FFFF8
07FFE0
01FFC0
001C00
ENDCHAR
STARTCHAR 0436
ENCODING 1078
SWIDTH 660 0
DWIDTH 33 0
BBX 33 26 0 0
BITMAP
7803E00F80
7E03E01F80
7E03E03F80
7F03E07F80
0703E07800
0783E07000
0383E0F000
03C3E0F000
03C3E1E000
01E3E1E000
01F3E3C000
00FFFF8000
003FFF0000
007FFF8000
01F3E7C000
03E3E3E000
03C3E1F000
07C3E0F000
0F83E0F800
0F83E07C00
1F03E03C00
1E03E03E00
3E03E01F00
7C03E01F00
7C03E00F80
F803E00F80
ENDCHAR
STARTCHAR 0437
ENCODING 1079
SWIDTH 440 0
DWIDTH 22 0
BBX 20 28 1 -1
BITMAP
002000
03FE00
0FFF80
1FFFC0
3F0FC0
3E03E0
7C03E0
7C01E0
0001E0
0003E0
0003E0
000FC0
00FF80
00FF80
00FFC0
000FE0
0003E0
0001F0
0000F0
7800F0
F800F0
7801F0
7C01F0
3F07E0
3FFFC0
1FFFC0
07FF00
00B000
ENDCHAR
STARTCHAR 0438
ENCODING 1080
SWIDTH 540 0
DWIDTH 27 0
BBX 22 26 3 0
BITMAP
F8007C
F800FC
F801FC
F801FC
F803FC
F803FC
F807FC
F80FFC
F80F7C
F81E7C
F83E7C
F83C7C
F8787C
F8787C
F8F07C
F9F07C
F9E07C
FBC07C
FBC07C
FF807C
FF007C
FF007C
FE007C
FE007C
FC007C
F8007C
ENDCHAR
STARTCHAR 0439
ENCODING 1081
SWIDTH 540 0
DWIDTH 27 0
BBX 22 36 3 0
BITMAP
0E01E0
0F01C0
0703C0
07EF80
03FF80
01FF00
001000
000000
000000
000000
F8007C
F800FC
F801FC
F801FC
F803FC
F803FC
F807FC
F80FFC
F80F7C
F81E7C
F83E7C
F83C7C
F8787C
F8787C
F8F07C
F9F07C
F9E07C
FBC07C
FBC07C
FF807C
FF007C
FF007C
FE007C
FE007C
FC007C
F8007C
ENDCHAR
STARTCHAR 043A
ENCODING 1082
SWIDTH 420 0
DWIDTH 21 0
BBX 19 26 3 0
BITMAP
F803C0
F80FC0
F80FC0
F81FC0
F81E00
F83C00
F83C00
F87800
F87800
F8F000
F8F000
FFE000
FF8000
FFE000
F9F000
F8F800
F87800
F87C00
F83E00
F81E00
F81F00
F80F80
F80F80
F807C0
F803C0
F803E0
ENDCHAR
STARTCHAR 043B
ENCODING 1083
SWIDTH 580 0
DWIDTH 29 0
BBX 25 26 1 0
BITMAP
0FFFFF80
0FFFFF80
0FFFFF80
0FFFFF80
0F800F80
0F800F80
0F800F80
0F800F80
0F800F80
0F800F80
0F800F80
0F800F80
0F800F80
0F800F80
0F800F80
0F800F80
0F800F80
0F800F80
0F800F80
0F800F80
0F800F80
0F800F80
FF800F80
FF000F80
FF000F80
FC000F80
ENDCHAR
STARTCHAR 043C
ENCODING 1084
SWIDTH 680 0
DWIDTH 34 0
BBX 28 26 3 0
BITMAP
FE0007F0
FF0007F0
FF0007F0
FF000FF0
FF800FF0
FF800EF0
FF801EF0
FBC01EF0
FBC01CF0
FBC03CF0
F9E03CF0
F9E078F0
F9E078F0
F8F070F0
F8F0F0F0
F8F0F0F0
F878E0F0
F879E0F0
F879E0F0
F83DC0F0
F83FC0F0
F83FC0F0
F81F80F0
F81F80F0
F81F00F0
F80F00F0
ENDCHAR
STARTCHAR 043D
ENCODING 1085
SWIDTH 540 0
DWIDTH 27 0
BBX 21 26 3 0
BITMAP
F80078
F80078
F80078
F80078
F80078
F80078
F80078
F80078
F80078
F80078
F80078
FFFFF8
FFFFF8
FFFFF8
FFFFF8
F80078
F80078
F80078
F80078
F80078
F80078
F80078
F80078
F80078
F80078
F80078
ENDCHAR
STARTCHAR 043E
ENCODING 1086
SWIDTH 540 0
DWIDTH 27 0
BBX 24 28 2 -1
BITMAP
001800
01FF80
07FFE0
0FFFF0
1FC3F8
3E00FC
7C007C
7C003E
F8003E
F8001E
F8001F
F0001F
F0001F
F0001F
F0001F
F0001F
F0001F
F0001F
F8001F
F8003E
7C003E
7C007C
3E00FC
3F83F8
1FFFF0
07FFE0
03FF80
001800
ENDCHAR
STARTCHAR 043F
ENCODING 1087
SWIDTH 540 0
DWIDTH 27 0
BBX 21 26 3 0
BITMAP
FFFFF8
FFFFF8
FFFFF8
FFFFF8
F800F8
F800F8
F800F8
F800F8
F800F8
F800F8
F800F8
F800F8
F800F8
F800F8
F800F8
F800F8
F800F8
F800F8
F800F8
F800F8
F800F8
F800F8
F800F8
F800F8
F800F8
F800F8
ENDCHAR
STARTCHAR 0440
ENCODING 1088
SWIDTH 540 0
DWIDTH 27 0
BBX 23 37 3 -10
BITMAP
001800
F1FF00
F3FFC0
F7FFE0
FF83F0
FE01F8
FC00F8
FC007C
F8007C
F8003C
F8003E
F0003E
F0003E
F0003E
F0003E
F0003E
F0003E
F8003C
F8003C
F8007C
FC007C
FC00F8
FE01F8
FF83F0
FFFFE0
FBFFC0
F9FF00
F81000
F80000
F80000
F80000
F80000
F80000
F80000
F80000
F80000
F80000
ENDCHAR
STARTCHAR 0441
ENCODING 1089
SWIDTH 500 0
DWIDTH 25 0
BBX 22 28 2 -1
BITMAP
001800
01FF80
07FFE0
0FFFF0
1FC3F0
3F00F8
7E0078
7C007C
78003C
F80000
F80000
F80000
F80000
F00000
F00000
F80000
F80000
F80000
F8003C
78003C
7C007C
7C007C
3E00F8
1F83F0
0FFFE0
07FFC0
03FF80
001800
ENDCHAR
STARTCHAR 0442
ENCODING 1090
SWIDTH 440 0
DWIDTH 22 0
BBX 21 26 1 0
BITMAP
FFFFF8
FFFFF8
FFFFF8
FFFFF8
00F800
00F800
00F800
00F800
00F800
00F800
00F800
00F800
00F800
00F800
00F800
00F800
00F800
00F800
00F800
00F800
00F800
00F800
00F800
00F800
00F800
00F800
ENDCHAR
STARTCHAR 0443
ENCODING 1091
SWIDTH 500 0
DWIDTH 25 0
BBX 23 36 1 -11
BITMAP
F8001E
F8001E
78003E
7C003C
7C003C
3C007C
3E0078
1E00F8
1F00F0
1F00F0
0F01F0
0F81E0
0781E0
0783E0
07C3C0
03C7C0
03C780
03E780
01EF80
01EF00
00FF00
00FF00
00FE00
007E00
007C00
007C00
007C00
007800
007800
00F800
00F000
01F000
3FE000
3FE000
3FC000
3F8000
ENDCHAR
STARTCHAR 0444
ENCODING 1092
SWIDTH 820 0
DWIDTH 41 0
BBX 37 46 2 -10
BITMAP
0000F80000
0000F80000
0000F80000
0000F80000
0000F80000
0000F80000
0000F80000
0000F80000
0000F80000
0060F80000
03FCF9FF00
0FFEFBFF80
1FFFFFFFC0
3F8FFF87E0
3E03FE03E0
7C01FC01F0
7C01FC00F0
7800F800F8
F800F800F8
F800F80078
F000F80078
F000F80078
F000F80078
F000F80078
F000F80078
F000F80078
F800F80078
F800F800F8
7800F800F8
7801FC00F0
7C01FC01F0
3E03FE03E0
3F87FF07E0
1FFFFFFFC0
0FFFFBFF80
03FCF9FE00
0060F81000
0000F80000
0000F80000
0000F80000
0000F80000
0000F80000
0000F80000
0000F80000
0000F80000
0000F80000
ENDCHAR
STARTCHAR 0445
ENCODING 1093
SWIDTH 500 0
DWIDTH 25 0
BBX 23 26 1 0
BITMAP
FC007E
7C007C
3E00F8
3F01F0
1F01F0
0F83E0
07C7C0
07CFC0
03EF80
01FF00
01FE00
00FE00
007C00
00FE00
01FF00
01FF00
03EF80
07C7C0
07C7C0
0F83E0
1F01F0
1F01F0
3E00F8
7C007C
FC007E
F8003E
ENDCHAR
STARTCHAR 0446
ENCODING 1094
SWIDTH 560 0
DWIDTH 28 0
BBX 24 33 3 -7
BITMAP
F80078
F80078
F80078
F80078
F80078
F80078
F80078
F80078
F80078
F80078
F80078
F80078
F80078
F80078
F80078
F80078
F80078
F80078
F80078
F80078
F80078
F80078
FFFFFF
FFFFFF
FFFFFF
FFFFFF
000007
000007
000007
000007
000007
000007
000007
ENDCHAR
STARTCHAR 0447
ENCODING 1095
SWIDTH 520 0
DWIDTH 26 0
BBX 21 26 2 0
BITMAP
F000F8
F000F8
F000F8
F000F8
F000F8
F000F8
F000F8
F000F8
F000F8
F000F8
F800F8
FC00F8
7E03F8
3FFFF8
3FFFF8
0FFFF8
03F0F8
0000F8
0000F8
0000F8
0000F8
0000F8
0000F8
0000F8
0000F8
0000F8
ENDCHAR
STARTCHAR 0448
ENCODING 1096
SWIDTH 800 0
DWIDTH 40 0
BBX 34 26 3 0
BITMAP
F801E007C0
F801E007C0
F801E007C0
F801E007C0
F801E007C0
F801E007C0
F801E007C0
F801E007C0
F801E007C0
F801E007C0
F801E007C0
F801E007C0
F801E007C0
F801E007C0
F801E007C0
F801E007C0
F801E007C0
F801E007C0
F801E007C0
F801E007C0
F801E007C0
F801E007C0
FFFFFFFFC0
FFFFFFFFC0
FFFFFFFFC0
FFFFFFFFC0
ENDCHAR
STARTCHAR 0449
ENCODING 1097
SWIDTH 820 0
DWIDTH 41 0
BBX 37 33 3 -7
BITMAP
F801E007C0
F801E007C0
F801E007C0
F801E007C0
F801E007C0
F801E007C0
F801E007C0
F801E007C0
F801E007C0
F801E007C0
F801E007C0
F801E007C0
F801E007C0
F801E007C0
F801E007C0
F801E007C0
F801E007C0
F801E007C0
F801E007C0
F801E007C0
F801E007C0
F801E007C0
FFFFFFFFF8
FFFFFFFFF8
FFFFFFFFF8
FFFFFFFFF8
0000000078
0000000078
0000000078
0000000078
0000000078
0000000078
0000000078
ENDCHAR
STARTCHAR 044A
ENCODING 1098
SWIDTH 620 0
DWIDTH 31 0
BBX 28 26 1 0
BITMAP
FFF00000
FFF00000
FFF00000
FFF00000
01F00000
01F00000
01F00000
01F00000
01F00000
01F00000
01FFF800
01FFFF00
01FFFFC0
01FFFFE0
01F007E0
01F001F0
01F000F0
01F000F0
01F000F0
01F000F0
01F001F0
01F003F0
01FFFFE0
01FFFFC0
01FFFF80
01FFFE00
ENDCHAR
STARTCHAR 044B
ENCODING 1099
SWIDTH 700 0
DWIDTH 35 0
BBX 29 26 3 0
BITMAP
F8000078
F8000078
F8000078
F8000078
F8000078
F8000078
F8000078
F8000078
F8000078
F8000078
FFFC0078
FFFF8078
FFFFE078
FFFFF078
F801F878
F800F878
F8007C78
F8007C78
F8007C78
F8007C78
F800F878
F801F878
FFFFF078
FFFFE078
FFFFC078
FFFF0078
ENDCHAR
STARTCHAR 044C
ENCODING 1100
SWIDTH 520 0
DWIDTH 26 0
BBX 22 26 3 0
BITMAP
F80000
F80000
F80000
F80000
F80000
F80000
F80000
F80000
F80000
F80000
FFFC00
FFFF80
FFFFE0
FFFFF0
F803F8
F800F8
F80078
F80078
F8007C
F80078
F800F8
F801F8
FFFFF0
FFFFE0
FFFFC0
FFFE00
ENDCHAR
STARTCHAR 044D
ENCODING 1101
SWIDTH 500 0
DWIDTH 25 0
BBX 23 28 1 -1
BITMAP
003000
03FF00
0FFFC0
1FFFE0
3F87F0
3E01F8
7C00F8
78007C
78007C
00003C
00003C
00003E
007FFE
007FFE
007FFE
007FFE
00003E
00003C
F8003C
F8007C
78007C
7C00F8
3E01F8
3F03F0
1FFFE0
0FFFC0
03FF80
007C00
ENDCHAR
STARTCHAR 044E
ENCODING 1102
SWIDTH 740 0
DWIDTH 37 0
BBX 32 28 3 -1
BITMAP
00000800
F800FFC0
F801FFF0
F807FFF8
F807E1FC
F80F807C
F81F003E
F81F001E
F81E001F
F83E001F
F83E000F
F83E000F
FFFE000F
FFFE000F
FFFC000F
FFFE000F
F83E000F
F83E000F
F83E001F
F81E001F
F81F001E
F81F003E
F80F807E
F807E0FC
F807FFF8
F801FFF0
F800FFC0
00000C00
ENDCHAR
STARTCHAR 044F
ENCODING 1103
SWIDTH 540 0
DWIDTH 27 0
BBX 23 26 1 0
BITMAP
01FFFE
07FFFE
1FFFFE
1FFFFE
3F003E
3E003E
7C003E
7C003E
7C003E
3C003E
3E003E
3F003E
1FFFFE
0FFFFE
03FFFE
00FFFE
01F03E
03E03E
07C03E
0FC03E
1F803E
1F003E
3F003E
7E003E
7C003E
FC003E
ENDCHAR
STARTCHAR 0451
ENCODING 1105
SWIDTH 540 0
DWIDTH 27 0
BBX 24 37 2 -1
BITMAP
07C3E0
07C3E0
07C3E0
07C3E0
07C3E0
000000
000000
000000
000000
001800
01FF80
07FFE0
0FFFF0
1FC3F8
3F00FC
7E007C
7C003E
78003E
F8001E
F8001E
F8001F
FFFFFF
FFFFFF
FFFFFF
F00000
F00000
F80000
F80000
78001F
7C003E
7E003E
3F007C
1FC1FC
0FFFF8
07FFE0
01FFC0
001C00
ENDCHAR
STARTCHAR 0452
ENCODING 1106
SWIDTH 540 0
DWIDTH 27 0
BBX 24 47 0 -11
BITMAP
1F0000
1F0000
1F0000
FFFF00
FFFF00
FFFF00
1F0000
1F0000
1F0000
1F0100
1F1FF0
1F7FFC
1FFFFE
1FF8FE
1FE03F
1F801F
1F800F
1F000F
1F000F
1F000F
1F000F
1F000F
1F000F
1F000F
1F000F
1F000F
1F000F
1F000F
1F000F
1F000F
1F000F
1F000F
1F000F
1F000F
1F000F
1F000F
00000F
00000F
00000F
00000F
00000F
00001F
00013F
0001FE
0001FE
0001FC
000020
ENDCHAR
STARTCHAR 0453
ENCODING 1107
SWIDTH 360 0
DWIDTH 18 0
BBX 15 36 3 0
BITMAP
00FC
00F8
01F0
01F0
03E0
03C0
0380
0000
0000
0000
FFFE
FFFE
FFFE
FFFE
F800
F800
F800
F800
F800
F800
F800
F800
F800
F800
F800
F800
F800
F800
F800
F800
F800
F800
F800
F800
F800
F800
ENDCHAR
STARTCHAR 0454
ENCODING 1108
SWIDTH 500 0
DWIDTH 25 0
BBX 22 28 2 -1
BITMAP
001000
01FF80
07FFC0
0FFFE0
1F83F0
3F00F8
3E0078
7C007C
78007C
F80000
F80000
F80000
FFFC00
FFFC00
FFFC00
FFFC00
F80000
F80000
F8003C
78003C
7C007C
7C0078
3E00F8
3F83F0
1FFFE0
0FFFC0
03FF80
007800
ENDCHAR
STARTCHAR 0455
ENCODING 1109
SWIDTH 500 0
DWIDTH 25 0
BBX 21 28 2 -1
BITMAP
006000
07FE00
1FFF80
3FFFC0
7E07E0
7803F0
F801F0
F800F0
F80000
FC0000
7F0000
7FE000
3FFE00
1FFFC0
07FFE0
007FF0
0007F8
0001F8
0000F8
F00078
F000F8
F800F8
7C01F0
7F03F0
3FFFE0
1FFFC0
07FF00
00F000
ENDCHAR
STARTCHAR 0456
ENCODING 1110
SWIDTH 220 0
DWIDTH 11 0
BBX 5 36 3 0
BITMAP
F8
F8
F8
F8
F8
00
00
00
00
00
F8
F8
F8
F8
F8
F8
F8
F8
F8
F8
F8
F8
F8
F8
F8
F8
F8
F8
F8
F8
F8
F8
F8
F8
F8
F8
ENDCHAR
STARTCHAR 0457
ENCODING 1111
SWIDTH 260 0
DWIDTH 13 0
BBX 14 36 0 0
BITMAP
F87C
F87C
F87C
F87C
F87C
0000
0000
0000
0000
0000
0780
0780
0780
0780
0780
0780
0780
0780
0780
0780
0780
0780
0780
0780
0780
0780
0780
0780
0780
0780
0780
0780
0780
0780
0780
0780
ENDCHAR
STARTCHAR 0458
ENCODING 1112
SWIDTH 220 0
DWIDTH 11 0
BBX 10 46 -2 -11
BITMAP
07C0
07C0
07C0
07C0
07C0
0000
0000
0000
0000
0000
07C0
07C0
07C0
07C0
07C0
07C0
07C0
07C0
07C0
07C0
07C0
07C0
07C0
07C0
07C0
07C0
07C0
07C0
07C0
07C0
07C0
07C0
07C0
07C0
07C0
07C0
07C0
07C0
07C0
07C0
07C0
0780
CF80
FF80
FF00
FE00
ENDCHAR
STARTCHAR 0459
ENCODING 1113
SWIDTH 900 0
DWIDTH 45 0
BBX 44 26 0 0
BITMAP
03FFFFE00000
03FFFFE00000
03FFFFE00000
03FFFFE00000
03C003E00000
03C003E00000
03C003E00000
03C003E00000
03C003E00000
03C003E00000
03C003FFF000
03C003FFFE00
03C003FFFF80
03C003FFFFC0
03C003E007E0
03C003E003E0
03C003E001E0
03C003E001F0
03C003E001F0
03C003E001E0
07C003E003E0
07C003E007E0
8FC003FFFFC0
FF8003FFFF80
FF8003FFFF00
FE0003FFFC00
ENDCHAR
STARTCHAR 045A
ENCODING 1114
SWIDTH 800 0
DWIDTH 40 0
BBX 36 26 3 0
BITMAP
F801E00000
F801E00000
F801E00000
F801E00000
F801E00000
F801E00000
F801E00000
F801E00000
F801E00000
F801E00000
F801E00000
FFFFFFFC00
FFFFFFFF00
FFFFFFFFC0
FFFFFFFFE0
F801E003E0
F801E001F0
F801E001F0
F801E001F0
F801E001F0
F801E001F0
F801E003E0
F801E07FE0
F801FFFFC0
F801FFFF80
F801FFFC00
ENDCHAR
STARTCHAR 045B
ENCODING 1115
SWIDTH 540 0
DWIDTH 27 0
BBX 24 36 0 0
BITMAP
1F0000
1F0000
1F0000
FFFF00
FFFF00
FFFF00
1F0000
1F0000
1F0000
1F0100
1F1FF0
1F7FFC
1FFFFE
1FF8FE
1FE03F
1F801F
1F800F
1F000F
1F000F
1F000F
1F000F
1F000F
1F000F
1F000F
1F000F
1F000F
1F000F
1F000F
1F000F
1F000F
1F000F
1F000F
1F000F
1F000F
1F000F
1F000F
ENDCHAR
STARTCHAR 045C
ENCODING 1116
SWIDTH 420 0
DWIDTH 21 0
BBX 19 36 3 0
BITMAP
00FC00
00F800
01F000
01F000
03E000
03C000
038000
000000
000000
000000
F803C0
F80FC0
F80FC0
F81FC0
F81E00
F83C00
F83C00
F87800
F87800
F8F000
F8F000
FFE000
FF8000
FFE000
F9F000
F8F800
F87800
F87C00
F83E00
F81E00
F81F00
F80F80
F80F80
F807C0
F803C0
F803E0
ENDCHAR
STARTCHAR 045E
ENCODING 1118
SWIDTH 500 0
DWIDTH 25 0
BBX 23 46 1 -11
BITMAP
0700E0
0700E0
0781C0
03EFC0
03FF80
00FF00
001000
000000
000000
000000
F8001E
F8001E
78003E
7C003C
7C003C
3C007C
3E0078
1E00F8
1F00F0
1F00F0
0F01F0
0F81E0
0781E0
0783E0
07C3C0
03C7C0
03C780
03E780
01EF80
01EF00
00FF00
00FF00
00FE00
007E00
007C00
007C00
007C00
007800
007800
00F800
00F000
01F000
3FE000
3FE000
3FC000
3F8000
ENDCHAR
STARTCHAR 045F
ENCODING 1119
SWIDTH 540 0
DWIDTH 27 0
BBX 21 33 3 -7
BITMAP
F80078
F80078
F80078
F80078
F80078
F80078
F80078
F80078
F80078
F80078
F80078
F80078
F80078
F80078
F80078
F80078
F80078
F80078
F80078
F80078
F80078
F80078
FFFFF8
FFFFF8
FFFFF8
FFFFF8
007800
007800
007800
007800
007800
007800
007800
ENDCHAR
STARTCHAR 0490
ENCODING 1168
SWIDTH 480 0
DWIDTH 24 0
BBX 19 46 4 0
BITMAP
0001E0
0001E0
0001E0
0001E0
0001E0
0001E0
0001E0
0001E0
0001E0
0001E0
FFFFE0
FFFFE0
FFFFE0
FFFFE0
F80000
F80000
F80000
F80000
F80000
F80000
F80000
F80000
F80000
F80000
F80000
F80000
F80000
F80000
F80000
F80000
F80000
F80000
F80000
F80000
F80000
F80000
F80000
F80000
F80000
F80000
F80000
F80000
F80000
F80000
F80000
F80000
ENDCHAR
STARTCHAR 0491
ENCODING 1169
SWIDTH 400 0
DWIDTH 20 0
BBX 16 36 3 0
BITMAP
000F
000F
000F
000F
000F
000F
000F
000F
000F
000F
FFFF
FFFF
FFFF
FFFF
F800
F800
F800
F800
F800
F800
F800
F800
F800
F800
F800
F800
F800
F800
F800
F800
F800
F800
F800
F800
F800
F800
ENDCHAR
STARTCHAR 0492
ENCODING 1170
SWIDTH 540 0
DWIDTH 27 0
BBX 27 36 0 0
BITMAP
0FFFFFE0
0FFFFFE0
0FFFFFE0
0FFFFFE0
0F800000
0F800000
0F800000
0F800000
0F800000
0F800000
0F800000
0F800000
0F800000
0F800000
0F800000
0F800000
FFFFC000
FFFFC000
FFFFC000
FFFFC000
0F800000
0F800000
0F800000
0F800000
0F800000
0F800000
0F800000
0F800000
0F800000
0F800000
0F800000
0F800000
0F800000
0F800000
0F800000
0F800000
ENDCHAR
STARTCHAR 0493
ENCODING 1171
SWIDTH 360 0
DWIDTH 18 0
BBX 18 26 0 0
BITMAP
1FFFC0
1FFFC0
1FFFC0
1FFFC0
1F0000
1F0000
1F0000
1F0000
1F0000
1F0000
FFF800
FFF800
FFF800
1F0000
1F0000
1F0000
1F0000
1F0000
1F0000
1F0000
1F0000
1F0000
1F0000
1F0000
1F0000
1F0000
ENDCHAR
STARTCHAR 0496
ENCODING 1174
SWIDTH 920 0
DWIDTH 46 0
BBX 46 46 0 -10
BITMAP
7C0007C000FC
7F0007C003FC
7F8007C007FC
7FC007C00FFC
0FE007C00FE0
03E007C01F00
01F007C01F00
01F007C03E00
00F807C03C00
00F807C07C00
00F807C07C00
007C07C0F800
007C07C0F800
003E07C1F000
003F07C3F000
001FC7CFE000
000FFFFFC000
0003FFFF0000
0007FFFFC000
001FE7DFE000
003F87C3F000
007E07C1F800
007E07C0FC00
00FC07C0FC00
01F807C07E00
01F807C03E00
03F007C03F00
07E007C01F80
07E007C01F80
0FC007C00FC0
0F8007C007E0
1F8007C007E0
3F0007C003FC
3F0007C001FC
7E0007C001FC
FC0007C000FC
00000000003C
00000000003C
00000000003C
00000000003C
00000000003C
00000000003C
00000000003C
00000000003C
00000000003C
00000000003C
ENDCHAR
STARTCHAR 0497
ENCODING 1175
SWIDTH 660 0
DWIDTH 33 0
BBX 33 33 0 -7
BITMAP
7803E00F80
7E03E01F80
7F03E03F80
7F03E07F80
0783E07800
0783E07000
0383E0F000
03C3E0F000
03C3E1E000
01E3E1E000
01F3E3C000
00FFFF8000
003FFF0000
007FFF8000
01F3E7C000
03E3E3E000
03C3E1F000
07C3E0F000
0F83E0F800
0F83E07C00
1F03E03C00
1E03E03E00
3E03E01F80
7C03E01F80
7C03E00F80
F803E00F80
0000000380
0000000380
0000000380
0000000380
0000000380
0000000380
0000000380
ENDCHAR
STARTCHAR 049A
ENCODING 1178
SWIDTH 580 0
DWIDTH 29 0
BBX 25 46 4 -10
BITMAP
F8001F80
F8007F80
F800FF80
F801FF80
F801FC00
F803E000
F807C000
F807C000
F8078000
F80F8000
F80F8000
F81F0000
F81F0000
F83E0000
F87E0000
F9FC0000
FFF80000
FFE00000
FFF80000
FBFC0000
F87E0000
F83F0000
F81F8000
F81F8000
F80FC000
F807C000
F807E000
F803F000
F803F000
F801F800
F800FC00
F800FC00
F8007F80
F8003F80
F8003F80
F8001F80
00000780
00000780
00000780
00000780
00000780
00000780
00000780
00000780
00000780
00000780
ENDCHAR
STARTCHAR 049B
ENCODING 1179
SWIDTH 420 0
DWIDTH 21 0
BBX 19 33 3 -7
BITMAP
F803C0
F80FC0
F80FC0
F81FC0
F81E00
F83C00
F83C00
F87800
F87800
F8F000
F9F000
FFE000
FF8000
FFE000
F9F000
F8F800
F87C00
F87C00
F83E00
F81E00
F81F00
F80F80
F80FE0
F807E0
F803E0
F803E0
0001E0
0001E0
0001E0
0001E0
0001E0
0001E0
0001E0
ENDCHAR
STARTCHAR 049C
ENCODING 1180
SWIDTH 580 0
DWIDTH 29 0
BBX 25 36 4 0
BITMAP
F8001F80
F8007F80
F800FF80
F801FF80
F803FC00
F803E000
F8E7C000
F8E7C000
F8E78000
F8EF8000
F8EF8000
F8FF0000
F8FF0000
F8FE0000
F8FE0000
F8FC0000
FFF80000
FFE00000
FFF80000
F9FC0000
F8FE0000
F8FF0000
F8FF8000
F8FF8000
F8EFC000
F8E7C000
F8E7E000
F8E3F000
F8E3F000
F8E1F800
F800FC00
F800FC00
F8007E00
F8003E00
F8003F00
F8001F80
ENDCHAR
STARTCHAR 049D
ENCODING 1181
SWIDTH 420 0
DWIDTH 21 0
BBX 19 26 3 0
BITMAP
F803C0
F80FC0
F80FC0
F99FC0
F99E00
F9BC00
F9BC00
F9F800
F9F800
F9F000
F9F000
FFE000
FF8000
FFE000
F9F000
F9F800
F9FC00
F9FC00
F9BE00
F99E00
F99F00
F98F80
F80F80
F807C0
F803C0
F803E0
ENDCHAR
STARTCHAR 04A2
ENCODING 1186
SWIDTH 720 0
DWIDTH 36 0
BBX 31 46 4 -10
BITMAP
F80001F0
F80001F0
F80001F0
F80001F0
F80001F0
F80001F0
F80001F0
F80001F0
F80001F0
F80001F0
F80001F0
F80001F0
F80001F0
F80001F0
F80001F0
FFFFFFF0
FFFFFFF0
FFFFFFF0
FFFFFFF0
F80001F0
F80001F0
F80001F0
F80001F0
F80001F0
F80001F0
F80001F0
F80001F0
F80001F0
F80001F0
F80001F0
F80001F0
F80001F0
F80001FE
F80001FE
F80001FE
F80001FE
0000001E
0000001E
0000001E
0000001E
0000001E
0000001E
0000001E
0000001E
0000001E
0000001E
ENDCHAR
STARTCHAR 04A3
ENCODING 1187
SWIDTH 540 0
DWIDTH 27 0
BBX 24 33 3 -7
BITMAP
F80078
F80078
F80078
F80078
F80078
F80078
F80078
F80078
F80078
F80078
F80078
FFFFF8
FFFFF8
FFFFF8
FFFFF8
F80078
F80078
F80078
F80078
F80078
F80078
F80078
F8007F
F8007F
F8007F
F8007F
000007
000007
000007
000007
000007
000007
000007
ENDCHAR
STARTCHAR 04AE
ENCODING 1198
SWIDTH 540 0
DWIDTH 27 0
BBX 27 36 0 0
BITMAP
F80003E0
7C0003E0
7C0007C0
3E0007C0
3E000F80
1F000F80
0F001F00
0F803F00
07803E00
07C07C00
03E07C00
03E0F800
01F0F800
00F1F000
00F9F000
007BE000
007FC000
003FC000
003F8000
001F8000
000F0000
000F0000
000F0000
000F0000
000F0000
000F0000
000F0000
000F0000
000F0000
000F0000
000F0000
000F0000
000F0000
000F0000
000F0000
000F0000
ENDCHAR
STARTCHAR 04AF
ENCODING 1199
SWIDTH 500 0
DWIDTH 25 0
BBX 23 36 1 -10
BITMAP
F0001E
F8003E
F8003E
78003C
7C007C
3C0078
3E00F8
3E00F8
1E00F0
1F01F0
1F01F0
0F01E0
0F83E0
0783C0
0783C0
07C7C0
03C780
03C780
03EF80
01EF00
01EF00
00FE00
00FE00
00FE00
007C00
007C00
007C00
007C00
007C00
007C00
007C00
007C00
007C00
007C00
007C00
007C00
ENDCHAR
STARTCHAR 04B0
ENCODING 1200
SWIDTH 540 0
DWIDTH 27 0
BBX 27 36 0 0
BITMAP
F80003E0
7C0003E0
7C0007C0
3E0007C0
3E000F80
1F000F80
0F001F00
0F803F00
07803E00
07C07C00
03E07C00
03E0F800
01F0F800
00F1F000
00F9F000
007BE000
007FC000
003FC000
3FFFFFC0
3FFFFFC0
3FFFFFC0
000F0000
000F0000
000F0000
000F0000
000F0000
000F0000
000F0000
000F0000
000F0000
000F0000
000F0000
000F0000
000F0000
000F0000
000F0000
ENDCHAR
ENDFONT
